<svg width="22" height="20" viewBox="0 0 22 20" fill="none" xmlns="http://www.w3.org/2000/svg">
<path d="M21.6882 4.34384C21.5621 3.85039 21.3675 3.37703 21.1101 2.93759C20.8628 2.48045 20.5466 2.06411 20.1726 1.70322C19.6303 1.1628 18.9882 0.73295 18.2819 0.43759C16.8603 -0.145863 15.2661 -0.145863 13.8444 0.43759C13.1769 0.72015 12.5636 1.11669 12.0319 1.60947L11.9538 1.70322L10.9382 2.71884L9.92256 1.70322L9.84443 1.60947C9.3128 1.11669 8.69949 0.72015 8.03193 0.43759C6.6103 -0.145863 5.01606 -0.145863 3.59443 0.43759C2.88816 0.73295 2.24604 1.1628 1.70381 1.70322C0.962188 2.42483 0.437201 3.33949 0.188183 4.34384C0.0557064 4.85387 -0.00736228 5.37945 0.000682933 5.90634C0.000682933 6.40165 0.063183 6.8954 0.188183 7.37509C0.319173 7.85953 0.508033 8.32644 0.750683 8.76572C1.01274 9.21729 1.33321 9.63233 1.70381 10.0001L10.9382 19.2345L20.1726 10.0001C20.5429 9.63603 20.8601 9.21884 21.1101 8.76572C21.6175 7.89869 21.882 6.91094 21.8757 5.90634C21.8838 5.37944 21.8207 4.85386 21.6882 4.34384ZM20.1257 6.89072C19.9385 7.60465 19.5667 8.25672 19.0476 8.78134L10.9069 16.9063L2.76631 8.78134C2.50103 8.51418 2.27008 8.215 2.07881 7.89072C1.89882 7.5699 1.75722 7.22901 1.65693 6.87509C1.57687 6.52121 1.53497 6.15977 1.53193 5.79697C1.53405 5.42378 1.57596 5.05189 1.65693 4.68759C1.75428 4.33265 1.89602 3.99141 2.07881 3.67197C2.26631 3.34384 2.49756 3.04697 2.76631 2.78134C3.16771 2.38532 3.63927 2.06741 4.15693 1.84384C5.20008 1.42653 6.36379 1.42653 7.40693 1.84384C7.92256 2.0579 8.38818 2.37197 8.78193 2.76572L10.9069 4.90634L13.0319 2.76572C13.4254 2.37127 13.8926 2.05803 14.4069 1.84384C15.4501 1.42653 16.6138 1.42653 17.6569 1.84384C18.1741 2.06728 18.646 2.38603 19.0476 2.78134C19.3194 3.03915 19.5476 3.33915 19.7194 3.67197C20.0813 4.31019 20.2699 5.03203 20.2663 5.76572C20.2876 6.14325 20.256 6.52191 20.1726 6.89072H20.1257Z" fill="#574AE8"/>
</svg>
