<svg xmlns="http://www.w3.org/2000/svg" viewBox="0 0 500 500"><g id="freepik--background-complete--inject-74"><rect y="382.4" width="500" height="0.25" style="fill:#ebebeb"></rect><rect x="300.71" y="391.07" width="33.12" height="0.25" style="fill:#ebebeb"></rect><rect x="395.2" y="399.15" width="8.69" height="0.25" style="fill:#ebebeb"></rect><rect x="335.59" y="395.4" width="19.19" height="0.25" style="fill:#ebebeb"></rect><rect x="52.46" y="390.89" width="43.19" height="0.25" style="fill:#ebebeb"></rect><rect x="244.67" y="390.89" width="6.33" height="0.25" style="fill:#ebebeb"></rect><rect x="141.69" y="395.24" width="45.31" height="0.25" style="fill:#ebebeb"></rect><path d="M237,337.8H43.91a5.71,5.71,0,0,1-5.7-5.71V60.66A5.71,5.71,0,0,1,43.91,55H237a5.71,5.71,0,0,1,5.71,5.71V332.09A5.71,5.71,0,0,1,237,337.8ZM43.91,55.2a5.46,5.46,0,0,0-5.45,5.46V332.09a5.46,5.46,0,0,0,5.45,5.46H237a5.47,5.47,0,0,0,5.46-5.46V60.66A5.47,5.47,0,0,0,237,55.2Z" style="fill:#ebebeb"></path><path d="M453.31,337.8H260.21a5.72,5.72,0,0,1-5.71-5.71V60.66A5.72,5.72,0,0,1,260.21,55h193.1A5.71,5.71,0,0,1,459,60.66V332.09A5.71,5.71,0,0,1,453.31,337.8ZM260.21,55.2a5.47,5.47,0,0,0-5.46,5.46V332.09a5.47,5.47,0,0,0,5.46,5.46h193.1a5.47,5.47,0,0,0,5.46-5.46V60.66a5.47,5.47,0,0,0-5.46-5.46Z" style="fill:#ebebeb"></path><rect x="111.54" y="116.61" width="12.44" height="80.52" rx="3.48" style="fill:#e0e0e0"></rect><rect x="62.37" y="122.47" width="110.77" height="58.56" style="fill:#ebebeb"></rect><path d="M173.15,181c0,1.08-24.8,1.95-55.39,1.95s-55.39-.87-55.39-1.95,24.8-1.95,55.39-1.95S173.15,180,173.15,181Z" style="fill:#e0e0e0"></path><rect x="106.78" y="192.86" width="21.96" height="6.59" style="fill:#ebebeb"></rect><polygon points="116.02 382.4 114.47 199.45 121.05 199.45 119.5 382.4 116.02 382.4" style="fill:#ebebeb"></polygon><polygon points="68.9 382.4 106.78 199.45 113.37 199.45 72.38 382.4 68.9 382.4" style="fill:#ebebeb"></polygon><polygon points="166.62 382.4 128.74 199.45 122.15 199.45 163.14 382.4 166.62 382.4" style="fill:#ebebeb"></polygon><rect x="193.13" y="87.17" width="80" height="135.67" style="fill:#ebebeb"></rect><rect x="171.3" y="121" width="123.67" height="68" transform="translate(388.13 -78.13) rotate(90)" style="fill:#f5f5f5"></rect><rect x="279.35" y="160.52" width="51.98" height="88.16" style="fill:#ebebeb"></rect><rect x="265.16" y="182.51" width="80.36" height="44.19" transform="translate(509.95 -100.74) rotate(90)" style="fill:#f5f5f5"></rect><rect x="413.52" y="122" width="2.44" height="260.4" transform="translate(829.48 504.4) rotate(180)" style="fill:#e0e0e0"></rect><rect x="356.07" y="122" width="2.44" height="260.4" transform="translate(714.59 504.4) rotate(180)" style="fill:#e0e0e0"></rect><rect x="430.85" y="122" width="2.44" height="260.4" transform="translate(864.15 504.4) rotate(180)" style="fill:#ebebeb"></rect><rect x="373.41" y="122" width="2.44" height="260.4" transform="translate(749.26 504.4) rotate(180)" style="fill:#ebebeb"></rect><rect x="356.07" y="120.67" width="77.22" height="2.67" transform="translate(789.37 244) rotate(180)" style="fill:#ebebeb"></rect><rect x="356.07" y="182.6" width="77.22" height="2.67" transform="translate(789.37 367.87) rotate(180)" style="fill:#ebebeb"></rect><rect x="356.07" y="244.54" width="77.22" height="2.67" transform="translate(789.37 491.75) rotate(180)" style="fill:#ebebeb"></rect><rect x="356.07" y="306.48" width="77.22" height="2.67" transform="translate(789.37 615.62) rotate(180)" style="fill:#ebebeb"></rect><rect x="356.07" y="368.41" width="77.22" height="2.67" transform="translate(789.37 739.49) rotate(180)" style="fill:#ebebeb"></rect><path d="M407.8,220.11c0,10.12-2.11,19.06-5.32,24.43h-14c-3.21-5.37-5.32-14.31-5.32-24.43s2.13-19.16,5.37-24.51h13.93C405.67,201,407.8,209.93,407.8,220.11Z" style="fill:#ebebeb"></path><path d="M386.12,292a5.56,5.56,0,0,0-4.52,8.85,14.51,14.51,0,0,0,11.5,5.68h14a14.51,14.51,0,0,0,11.27-5.4A5.58,5.58,0,0,0,414,292Z" style="fill:#ebebeb"></path><path d="M419.14,297.47a2.24,2.24,0,0,0,2.21-2.62,14.59,14.59,0,0,0-14.29-11.91h-14a14.58,14.58,0,0,0-14.29,11.91,2.23,2.23,0,0,0,2.21,2.62Z" style="fill:#e6e6e6"></path><polygon points="426.62 149.25 396.6 149.25 400.53 182.6 422.69 182.6 426.62 149.25" style="fill:#f5f5f5"></polygon><polygon points="407.86 149.25 396.6 149.25 400.53 182.6 406.44 182.6 407.86 149.25" style="fill:#ebebeb"></polygon><polygon points="398.53 160.51 378.64 160.51 381.25 182.6 395.93 182.6 398.53 160.51" style="fill:#f5f5f5"></polygon><polygon points="386.1 160.51 378.64 160.51 381.25 182.6 385.17 182.6 386.1 160.51" style="fill:#ebebeb"></polygon></g><g id="freepik--Shadow--inject-74"><ellipse id="freepik--path--inject-74" cx="250" cy="416.24" rx="193.89" ry="11.32" style="fill:#f5f5f5"></ellipse></g><g id="freepik--character-2--inject-74"><polygon points="332.04 371.97 328.1 381.96 309.47 351.6 321.26 346.41 332.04 371.97" style="fill:#ff8b7b"></polygon><path d="M337.74,372.63c-2.21-1.29-5.53-1.28-8.73-4.33,0,0-6.61,4.41-4.62,7.14s3.1,10.33-.56,18.55c-.51,1.16,3,2.23,4.48-.3,2.42-4.18,4.13-7.28,6.19-10.84,1.76-3.05,2.88-3.44,4.45-5.76C340.25,375.15,340,373.93,337.74,372.63Z" style="fill:#ff8b7b"></path><path d="M308.18,236s-26.62,64.15-17.78,86.88c6.26,16.11,24.93,41.7,24.93,41.7l13-6.13s-11.92-29.6-17.14-43.43c6.64-29.12,37.93-68.37,23.58-85.89Z" style="fill:#263238"></path><path d="M299.66,191.75c-1.21,3-2.52,5.65-3.9,8.4s-2.91,5.37-4.49,8-3.26,5.21-5.11,7.7a73.89,73.89,0,0,1-5.94,7.24l-.8.87-.2.22-.26.27a8.42,8.42,0,0,1-.77.69,9.34,9.34,0,0,1-3.51,1.75,14.17,14.17,0,0,1-6.14.07,35.48,35.48,0,0,1-9.31-3.41A85.12,85.12,0,0,1,244,213.23a2.33,2.33,0,0,1,2.65-3.81l.07,0c2.48,1.4,5.07,2.81,7.64,4.09a78.81,78.81,0,0,0,7.79,3.49,31.35,31.35,0,0,0,7.55,2.06,6.2,6.2,0,0,0,2.68-.18.89.89,0,0,0,.41-.27s0,0,0-.06l.28-.34.66-.8a104,104,0,0,0,9.48-14c1.43-2.48,2.75-5,4.06-7.58s2.55-5.2,3.66-7.68l.05-.1a4.69,4.69,0,0,1,8.62,3.68Z" style="fill:#ff8b7b"></path><path d="M249.38,211.88l-4.2-8.18-3.66,8.62s3.65,4.57,7.42,3.85Z" style="fill:#ff8b7b"></path><polygon points="240.97 201.34 237.37 207.71 241.52 212.32 245.18 203.7 240.97 201.34" style="fill:#ff8b7b"></polygon><polygon points="398.42 395.88 391.94 400.53 380.02 376.44 392.19 372.61 398.42 395.88" style="fill:#ff8b7b"></polygon><path d="M404.39,398.48c-2-1.56-5.33-2-8.12-5.4,0,0-6,4.48-4.33,7.45s1.19,8.93-6.73,13.22c-1.1.6.82,2.49,3.74,2.49,5,0,5.95-1.48,8.44-4.76,2.13-2.8,5.78-6.32,7.63-8.42C406.55,401.3,406.43,400.05,404.39,398.48Z" style="fill:#ff8b7b"></path><path d="M399.67,160.44c-39,5.23-54.23-22.44-61-27.11s-14.57,2.27-14.57,2.27l2.18,4.9s9.57-6.5,12.79,7.59,11.89,35.09,25,41.87C374.11,190,402.56,177.33,399.67,160.44Z" style="fill:#263238"></path><path d="M388.23,159.7c-22.63,0-36-12.56-43.75-19.85a36.4,36.4,0,0,0-5.16-4.4l.26-.43a37.48,37.48,0,0,1,5.25,4.46c9.16,8.62,26.23,24.66,57.29,18.23l.11.49A68.93,68.93,0,0,1,388.23,159.7Z" style="fill:#263238"></path><path d="M362.35,171.88a2,2,0,0,0-1.61,1.63v.06c-.47,2.24-1,4.55-1.51,6.79s-1.12,4.48-1.79,6.63a60.38,60.38,0,0,1-1.84,6.38c-.39.92-1.22.36-2-.22a60,60,0,0,1-8.77-7.34c-1.53-1.61-3-3.34-4.37-5.09-.71-.87-1.39-1.76-2.06-2.66s-1.35-1.85-1.91-2.67l-.06-.08a4.21,4.21,0,0,0-6-1,4.37,4.37,0,0,0-1,5.88c.7,1.08,1.33,2,2,3s1.5,2,2.27,2.95a72.94,72.94,0,0,0,5,5.56,55.09,55.09,0,0,0,5.68,5.06c2.78,2.12,6.3,5.74,9.86,6.22a5.94,5.94,0,0,0,4.49-1.09c3.1-2.49,4.26-9.64,4.89-13.31a84.43,84.43,0,0,0,1.21-14.57A2.12,2.12,0,0,0,362.35,171.88Z" style="fill:#ff8b7b"></path><path d="M360.53,174.08l.24-8.92,6.28,5.58s-1.18,5.18-4.5,6.09Z" style="fill:#ff8b7b"></path><polygon points="364.24 161.37 370.14 165.21 366.65 172.03 360.77 165.16 364.24 161.37 364.24 161.37" style="fill:#ff8b7b"></polygon><path d="M289.7,188c1,5.7,4.72,18.74,17.15,48.38L342.93,227c-3.84-13.53-6-22.33-6.51-49.1a6.23,6.23,0,0,0-6.9-6.14c-2.66.3-5.83.74-9,1.39a117.61,117.61,0,0,0-16.38,4.25c-4.12,1.47-8.49,3.39-11.33,4.69A5.48,5.48,0,0,0,289.7,188Z" style="fill:#407BFF"></path><path d="M289.7,188c1,5.7,4.72,18.74,17.15,48.38L342.93,227c-3.84-13.53-6-22.33-6.51-49.1a6.23,6.23,0,0,0-6.9-6.14c-2.66.3-5.83.74-9,1.39a117.61,117.61,0,0,0-16.38,4.25c-4.12,1.47-8.49,3.39-11.33,4.69A5.48,5.48,0,0,0,289.7,188Z" style="fill:#fff;opacity:0.4"></path><path d="M314.46,155c.24,5.56,1.53,15.53,6.07,18.11A150.13,150.13,0,0,0,308,192.89a15,15,0,0,1-3.83-15.5c5.54-2.94,4.33-7.28,2.32-11.13Z" style="fill:#ff8b7b"></path><path d="M311.2,159.61l-4.72,6.65a17,17,0,0,1,1.2,2.79c2.32-.47,5.19-3.5,4.86-5.92A11.41,11.41,0,0,0,311.2,159.61Z" style="opacity:0.2"></path><path d="M307.77,143.78c1-1.59.09-7.76-8.43-7.64-2.17,2.41-2.92,8-2.36,11s3.95,5.6,3.95,5.6S310.93,150.39,307.77,143.78Z" style="fill:#263238"></path><path d="M322,148.94c-2.76,8.7-3.75,12.44-9.36,15.93-8.43,5.24-18.52.14-18.41-9.16.1-8.38,4.6-21.19,14.15-22.69A12.2,12.2,0,0,1,322,148.94Z" style="fill:#ff8b7b"></path><path d="M327.17,132.86c-1.31-.45-3.31.64-4.95,1.58l2.89,7.47s3.95.52,5.28-1.74A5.14,5.14,0,0,0,327.17,132.86Z" style="fill:#407BFF"></path><path d="M313.75,139.8c2.08,7.75,2.83,11.45,7.67,13.95,6.58-1.67,9.71-9.74,7-16.47-3.75-9.42-24.1-11.78-29.24-.2C305.28,142.83,313.75,139.8,313.75,139.8Z" style="fill:#263238"></path><path d="M309.52,130.56c-1.52-1.56-10.19-3.12-14.8,4.77,2,2.95,8.86,5.8,13.13,6.46s9.59-1.46,9.59-1.46S320,130.24,309.52,130.56Z" style="fill:#263238"></path><path d="M316.38,233.86s25.08,64.93,35.5,87c12.37,26.17,29.87,63.06,29.87,63.06l14.88-2.47s-16.45-44.91-22.41-59.53c-12.71-31.21-16.94-77.4-31.29-94.91Z" style="fill:#263238"></path><path d="M301.06,148.09a20.32,20.32,0,0,1-3.72,4,3.14,3.14,0,0,0,2.44,1.08Z" style="fill:#ff5652"></path><path d="M303.4,156.78a6.29,6.29,0,0,1-1.24-.18.21.21,0,0,1-.16-.26.24.24,0,0,1,.27-.16,6,6,0,0,0,5.21-1.14.22.22,0,0,1,.31,0,.22.22,0,0,1,0,.3A6.16,6.16,0,0,1,303.4,156.78Z" style="fill:#263238"></path><path d="M323.05,155.6a6.84,6.84,0,0,1-3.86,3.37c-2.23.75-3.44-1.19-2.89-3.33.48-1.94,2.23-4.65,4.51-4.47S324,153.65,323.05,155.6Z" style="fill:#ff8b7b"></path><path d="M312.22,145.52a.41.41,0,0,1-.28-.19,3.43,3.43,0,0,0-2.66-1.63.42.42,0,0,1-.43-.43.44.44,0,0,1,.44-.43,4.24,4.24,0,0,1,3.39,2,.45.45,0,0,1-.14.6A.45.45,0,0,1,312.22,145.52Z" style="fill:#263238"></path><path d="M306.8,147.79c-.19.74-.73,1.25-1.22,1.13s-.73-.83-.54-1.57.73-1.25,1.22-1.13S307,147.05,306.8,147.79Z" style="fill:#263238"></path><path d="M298.39,145.67c-.19.75-.73,1.25-1.22,1.13s-.73-.83-.54-1.57.73-1.25,1.22-1.13S298.58,144.93,298.39,145.67Z" style="fill:#263238"></path><path d="M297.1,141.78a.41.41,0,0,1-.29-.13.43.43,0,0,1,0-.61,4.39,4.39,0,0,1,3.82-1.17.42.42,0,0,1,.31.52.44.44,0,0,1-.53.32,3.49,3.49,0,0,0-3,1A.42.42,0,0,1,297.1,141.78Z" style="fill:#263238"></path><path d="M343,224.72l1.7,3c.19.22-.05.55-.47.66L307.06,238c-.33.09-.63,0-.7-.21l-1.11-3.16c-.08-.21.16-.48.52-.57l36.54-9.46A.66.66,0,0,1,343,224.72Z" style="fill:#fff"></path><path d="M339,230.1l1-.26c.2-.05.32-.19.28-.31l-1.47-4.09c0-.12-.24-.18-.43-.13l-1,.25c-.2.05-.32.19-.28.31l1.47,4.1A.37.37,0,0,0,339,230.1Z" style="fill:#263238"></path><path d="M309.89,237.64l1-.25c.2,0,.32-.19.28-.31l-1.47-4.1a.37.37,0,0,0-.44-.13l-1,.26c-.2,0-.32.19-.28.31l1.47,4.09C309.5,237.63,309.7,237.69,309.89,237.64Z" style="fill:#263238"></path><path d="M324.46,233.87l1-.25c.2-.06.32-.19.28-.31l-1.47-4.1c0-.12-.24-.18-.43-.13l-1,.26c-.2,0-.32.19-.28.31l1.47,4.09C324.07,233.86,324.27,233.92,324.46,233.87Z" style="fill:#263238"></path></g><g id="freepik--character-1--inject-74"><path d="M191.37,165.5l-.81,1.12-.76,1c-.51.68-1,1.32-1.56,2-1.06,1.28-2.13,2.55-3.23,3.79-2.23,2.45-4.55,4.83-7,7.07a97.85,97.85,0,0,1-7.77,6.37c-.67.51-1.38,1-2.07,1.46s-1.41.95-2.13,1.4l-1.09.68-.54.34-.28.18-.38.22a16.69,16.69,0,0,1-3.46,1.56,13.89,13.89,0,0,1-4.2.67,13.38,13.38,0,0,1-4.3-.72,15.91,15.91,0,0,1-6.2-4,26,26,0,0,1-3.6-4.76,38.75,38.75,0,0,1-2.44-4.8,64,64,0,0,1-3.16-9.59,74.59,74.59,0,0,1-1.75-9.74,3.59,3.59,0,0,1,6.92-1.66l.06.15a99.49,99.49,0,0,0,7.43,16,21.71,21.71,0,0,0,4.66,5.73,3.5,3.5,0,0,0,1.72.88c.31,0,.3-.1.71-.27a4.43,4.43,0,0,0,.75-.48l1.59-1.22c1.15-.84,2.22-1.82,3.34-2.72,2.19-1.87,4.28-3.89,6.36-6s4.05-4.24,6-6.45c1-1.09,1.93-2.21,2.86-3.34l1.37-1.7c.44-.54.92-1.15,1.26-1.59l.2-.25a7.21,7.21,0,0,1,11.54,8.63Z" style="fill:#ffc3bd"></path><path d="M143,163.29,141.36,153l-10.66,5.84a9.14,9.14,0,0,0,7.41,7.9Z" style="fill:#ffc3bd"></path><polygon points="139.22 146.8 130.19 145.86 130.7 158.85 141.36 153.01 139.22 146.8" style="fill:#ffc3bd"></polygon><path d="M177.66,162.6c-1.15,10.78-3,36.76-10.25,73.59l49.77,10.67c8.08-25.8,10.7-50.94,14.64-75.89,1.13-7.15-3.42-14.42-10.49-16.09a68.07,68.07,0,0,0-7.6-1.42A182.27,182.27,0,0,0,192.42,152c-1.56.05-3.09.14-4.54.27A11.28,11.28,0,0,0,177.66,162.6Z" style="fill:#ffc3bd"></path><path d="M226.76,166.27a113.34,113.34,0,0,0,2.92,18.84c.69-4.6,1.36-9.2,2.08-13.79Z" style="opacity:0.2"></path><path d="M168,232.71S123.8,267,107.77,291.15C91.09,316.3,63.65,360,63.65,360l7.15,4.92s44.87-51.38,53-61.61c20-25.34,67.76-37.91,78.08-60.59C187.52,236.2,168,232.71,168,232.71Z" style="fill:#ffc3bd"></path><path d="M184,238.49s-.83,59.09,5.63,86.2c7.08,29.68,51.07,81,51.07,81l3-7.51S225,351,208.81,326c1.05-22.81,5.53-55.5,8.37-79.15A225.87,225.87,0,0,0,184,238.49Z" style="fill:#ffc3bd"></path><path d="M249,398.48c-2-1.56-5.33-2-8.12-5.4,0,0-6,4.48-4.33,7.45s1.19,8.93-6.73,13.22c-1.1.6.82,2.49,3.74,2.49,5,0,5.95-1.48,8.44-4.76,2.13-2.8,5.78-6.32,7.63-8.42C251.18,401.3,251.06,400.05,249,398.48Z" style="fill:#ffc3bd"></path><path d="M67.71,371.5c1.39-2.15,1.52-5.47,4.71-8.54,0,0-4.12-6.79-6.94-4.92S55,360.69,47,356.68c-1.13-.56-2.35,2.93.11,4.5,4.07,2.59,7.09,4.43,10.56,6.65,3,1.89,3.31,3,5.57,4.68C65.09,373.9,66.32,373.67,67.71,371.5Z" style="fill:#ffc3bd"></path><path d="M216.56,132c-2.31,6.71-5.41,19.15-1.23,24.41,0,0-2.85,6.73-15.66,5-8.55-1.19-8.84-3.86-7.75-5.77a5.2,5.2,0,0,1,3.53-2.39c6.48-1.33,7-6.65,6.4-11.8Z" style="fill:#ffc3bd"></path><path d="M210.56,135.81l-8.7,5.56a23.18,23.18,0,0,1,.13,3.89c1.93.55,7.77-1.31,8.5-4.34A17,17,0,0,0,210.56,135.81Z" style="opacity:0.2"></path><path d="M237.12,221.31l-7.5,6.07,10.88,5.39s5.24-6.59,2.06-9.75Z" style="fill:#ffc3bd"></path><path d="M225.75,156.44l.69.37.6.33,1.15.66c.75.45,1.48.92,2.2,1.39,1.44.94,2.83,1.93,4.21,2.95a69.37,69.37,0,0,1,7.75,6.83c1.23,1.22,2.37,2.57,3.53,3.89s2.2,2.77,3.17,4.29a51.11,51.11,0,0,1,2.8,4.62c.41.82.79,1.66,1.18,2.49.19.44.37.79.58,1.29s.41,1.07.58,1.61a19.44,19.44,0,0,1,.92,6.85c0,.29,0,.59-.07.87l-.09.64-.17,1.28c-.13.85-.21,1.7-.39,2.54l-.5,2.53c-.18.84-.42,1.66-.63,2.49s-.45,1.66-.72,2.47-.48,1.64-.81,2.43a55.77,55.77,0,0,1-4.33,9.26,49.87,49.87,0,0,1-2.81,4.27c-.5.69-1,1.37-1.59,2-.29.34-.56.66-.87,1l-1,1.05a3.54,3.54,0,0,1-5.79-3.9l.31-.68c.08-.18.28-.53.42-.82l.47-.94c.31-.64.62-1.28.9-2,.59-1.3,1.09-2.66,1.58-4a60.55,60.55,0,0,0,2.26-8.29,65.42,65.42,0,0,0,1.1-8.44c.08-.7.06-1.42.09-2.12l0-1.06v-.53l0-.3a7.55,7.55,0,0,0-.61-2.36c-.09-.19-.18-.38-.28-.57l-.47-.81-1-1.68c-.77-1.07-1.43-2.2-2.3-3.23a48.85,48.85,0,0,0-5.54-6,76.83,76.83,0,0,0-6.46-5.39c-1.14-.84-2.29-1.67-3.46-2.44-.59-.39-1.18-.77-1.77-1.13l-.86-.55-.75-.45-.38-.22a7.2,7.2,0,0,1,7.1-12.53Z" style="fill:#ffc3bd"></path><path d="M220.49,155.06c-1.39,3.5-6,19.43,8.24,30.34a3.89,3.89,0,0,1,1.54,3.47c-.63,6.2-1.43,16.51-3,21.08-1.76,5.17-3.82,13.16-3.78,17.51s-1.95,12.75-4.63,14.7c-30.28-7-50.56-13.81-50.56-13.81s-1.74-5.34.49-10,4.39-19.87,4.51-22.38,1.71-14.28,2.07-16.94c.65-4.72,11.78-6.32,12.06-26.72a.52.52,0,0,1,.34-.5,8,8,0,0,1,2.64-.13.52.52,0,0,1,.45.7c-.95,2.68-3.66,13.06,10.56,14.41s16.19-9.43,16.47-12.3a.62.62,0,0,1,.74-.56l1.37.25A.63.63,0,0,1,220.49,155.06Z" style="fill:#263238"></path><path d="M141.92,290.08s-15.82-7.9-18.38-21.51c11.58-16.23,34.38-35.83,40.89-36.8a50.17,50.17,0,0,1,3.58-5.54L208,238C203,257.49,156.07,282,141.92,290.08Z" style="fill:#407BFF"></path><path d="M177.79,253.59c-5.95,1.76-13.36,14.83-16.57,25.53a267.61,267.61,0,0,0,26.48-17.5C183.68,257.41,179,253.25,177.79,253.59Z" style="opacity:0.2"></path><path d="M184.55,304.23s11.06,4.78,29-1.72c.12-19.2,9.05-46.8,5.86-56a9.65,9.65,0,0,0,1.4-6.12L171.4,227.22C166.4,232.9,180.86,285.76,184.55,304.23Z" style="fill:#407BFF"></path><path d="M217.67,246.86h-.07c-30.66-4.55-51.2-13.81-51.4-13.91a.49.49,0,0,1-.25-.66.5.5,0,0,1,.66-.25c.2.1,20.63,9.31,51.13,13.84a.48.48,0,0,1,.42.56A.5.5,0,0,1,217.67,246.86Z" style="fill:#fff;opacity:0.30000000000000004"></path><polygon points="226.63 237.25 235.79 241.19 240.5 232.77 229.62 227.38 226.63 237.25" style="fill:#ffc3bd"></polygon><path d="M220.28,132c-2.57,3.3-11.2-14.82-9.5-17.8s10.13-7,13.06-2.89S223.65,127.65,220.28,132Z" style="fill:#263238"></path><path d="M196.78,122.42c.59,9.42.46,15,5.22,19.79,7.17,7.26,18.79,2.94,21-6.47,2-8.46.71-22.45-8.52-26.18A12.87,12.87,0,0,0,196.78,122.42Z" style="fill:#ffc3bd"></path><path d="M197.29,129.62c3.59,2.14,10.38-14.79,7.71-17s-17.22-.59-18.22,4.33S192.58,126.81,197.29,129.62Z" style="fill:#263238"></path><path d="M215.72,103.6c-8.83,5-7.43-.65-18.28.74s-3.75,13-3.75,13l10.12-2.88c11.63,3.16,16.7-8,26.87-4.88C227.71,104.85,222.84,99.53,215.72,103.6Z" style="fill:#263238"></path><path d="M206.29,100.33c-6.68,5.53-7.77,1.88-14.18,3.39-9.67,2.28-.64,12-.64,12l8-4.25c18.67-.54,16.5-11.22,25.57-11.31A14.44,14.44,0,0,0,206.29,100.33Z" style="fill:#263238"></path><path d="M185.56,107.67c-.5,3.89,1.55,6.46,4.33,8.06l1.58-2.06S186,111.5,185.56,107.67Z" style="fill:#263238"></path><path d="M192.89,130.07a9,9,0,0,0,5,4.72c2.94,1.11,4.69-1.45,4.1-4.38-.53-2.63-2.7-6.37-5.76-6.23S191.74,127.4,192.89,130.07Z" style="fill:#ffc3bd"></path><path d="M211.08,125c0,.77.4,1.39.9,1.39s.91-.62.91-1.39-.41-1.39-.91-1.39S211.07,124.27,211.08,125Z" style="fill:#263238"></path><path d="M219.75,125c0,.77.4,1.39.9,1.39s.91-.62.91-1.39-.41-1.39-.91-1.39S219.74,124.26,219.75,125Z" style="fill:#263238"></path><path d="M217,125.41s1.75,4.42,3.67,6.56c-1.35,1.26-3.66.69-3.66.69Z" style="fill:#ed847e"></path><path d="M213.08,134.58a6.75,6.75,0,0,0,1.69.2.23.23,0,1,0,0-.45,6.07,6.07,0,0,1-4.95-2.37.22.22,0,1,0-.38.24A6.22,6.22,0,0,0,213.08,134.58Z" style="fill:#263238"></path><path d="M207.18,120.73a.46.46,0,0,0,.43-.24,3.63,3.63,0,0,1,2.63-1.93.45.45,0,1,0-.08-.89,4.43,4.43,0,0,0-3.34,2.39.45.45,0,0,0,.18.61A.64.64,0,0,0,207.18,120.73Z" style="fill:#263238"></path><path d="M224.87,119.87a.38.38,0,0,0,.28-.11.44.44,0,0,0,0-.63,4.45,4.45,0,0,0-3.77-1.64.45.45,0,1,0,.12.89,3.59,3.59,0,0,1,3,1.33A.42.42,0,0,0,224.87,119.87Z" style="fill:#263238"></path></g><g id="freepik--Photo--inject-74"><path d="M124.74,99.77l42.72,217.31,217.31-42.72L342.05,57ZM372.09,265,175.65,303.43,137.2,108.14,333.68,69.51Z" style="fill:#407BFF"></path><path d="M124.74,99.77l42.72,217.31,217.31-42.72L342.05,57ZM372.09,265,175.65,303.43,137.2,108.14,333.68,69.51Z" style="fill:#fff;opacity:0.8"></path></g></svg>