<svg xmlns="http://www.w3.org/2000/svg" viewBox="0 0 500 500"><g id="freepik--Floor--inject-76"><g id="freepik--Beach--inject-76"><ellipse id="freepik--floor--inject-76" cx="249.53" cy="348.04" rx="240.12" ry="138.63" style="fill:#f5f5f5"></ellipse><g id="freepik--Waves--inject-76"><path d="M419.32,446.07C354.84,483.29,262.81,494.92,181.11,481q-14-2.38-27.5-5.78c-9.53-2.4-18.85-5.16-27.89-8.31l-2.35-.82c8.5-12.89,23.25-22.65,36.52-29.16l.71-.36.94-.44.85-.39,1.76-.77c5.32-2.26,15.57-9.05,42.26-12h.12l1.94-.21c4.13-.42,8.3-.66,12.47-.83l1-.07c12.83-.59,25.76-.62,38.38-2.47,7.23-1.07,17.16-3.38,21.85-5.45,9.34-4.12,15.57-11.08,19.06-21.47s5-21.64,8.58-32.13a55.71,55.71,0,0,1,7.92-14.88l.08-.1,0,0c6.73-9.05,16-16.36,26-21.76,15-8.12,31.77-12.43,48.29-16.8l2-.52,1.26-.33.46-.11,2.5-.65.42-.12c16-4.07,34.27-8.8,46.5-19.06a108.59,108.59,0,0,0,9.92-9.5c.58.54,1.13,1.09,1.69,1.63a130.59,130.59,0,0,1,14.89,17.41q.52.74,1,1.47l1.23,1.83a98.18,98.18,0,0,1,11.36,23.26,0,0,0,0,1,0,0c.07.21.14.41.2.61C499.53,366.05,477.42,412.52,419.32,446.07Z" style="fill:#BA68C8;opacity:0.30000000000000004"></path><path d="M419.32,446.07C354.84,483.29,262.81,494.92,181.11,481q-14-2.38-27.5-5.78a50.06,50.06,0,0,1,8.77-12.76l0,0a59.86,59.86,0,0,1,10.15-8.62c15.29-10.28,34.82-14.68,52.93-16.35l6.42-.6h.2l.22,0,35.61-3.3c6.42-.59,12.9-1.19,19.1-3A50.25,50.25,0,0,0,308,418a41.31,41.31,0,0,0,2.94-3.18h0l0,0a38.82,38.82,0,0,0,8-16.58c4.6-19,8.73-33.08,15.46-44l.07-.13c4.35-8.53,12.26-15.34,21.3-20.3l.38-.22a83.58,83.58,0,0,1,26.35-9c14-2.18,28.11-5.3,41.87-8.38,3.59-.8,6.8-1.57,9.7-2.32,16.78-4.37,22.85-8.05,31.39-12.74,2.65-1.45,5.07-2.85,7.32-4.23l1.23,1.83a98.18,98.18,0,0,1,11.36,23.26,0,0,0,0,1,0,0c.07.21.14.41.2.61C499.53,366.05,477.42,412.52,419.32,446.07Z" style="fill:#BA68C8;opacity:0.5"></path><path d="M419.32,446.07C354.84,483.29,262.81,494.92,181.11,481c.22-.34.46-.67.7-1,7.19-9.8,16.84-16.45,27.6-20.88h0a109.9,109.9,0,0,1,30.66-7.18c12.77-1.29,26.19-1.1,39.21-1.44,14.51-.37,29.61-1,42.94-7.38a18.14,18.14,0,0,0,1.74-.92c9.78-5.7,16.59-19,20.06-33.26,2.76-11.29,4.13-24.25,11.09-33.95a102.39,102.39,0,0,1,10.58-12.76l0,0a55.89,55.89,0,0,1,18.06-12.58l1.42-.6,0,0q7.55-3.15,15.3-5.8l.2-.06q11.49-3.91,23.3-6.69c17.16-4,34.73-6.23,51.65-11.15,2.84-.82,5.68-1.74,8.49-2.74l.27-.1.92-.35a0,0,0,0,1,0,0c.07.21.14.41.2.61C499.53,366.05,477.42,412.52,419.32,446.07Z" style="fill:#BA68C8"></path><path d="M268.24,419.14C284.83,417,293,413.19,301,399.4c8.58-14.78,4.88-35.13,16.9-54.09-14.82,16.29-11.57,43.31-24.78,59.2C281.93,417.94,261.21,419,206.42,423,206.42,423,246.71,421.93,268.24,419.14Z" style="fill:#fafafa"></path><path d="M319.69,390.71c-2.2,12.4-8.78,24.15-8.78,24.15s6.93-6.21,10.45-20.5,5.63-23.74,12.71-37.82,16.86-19.79,22.27-23c-9.94,4.52-16.42,9.13-23.76,20.56S321.88,378.31,319.69,390.71Z" style="fill:#fafafa"></path><path d="M454.41,275.68c-9.08,9.55-23,20.49-55.61,29.33l-.42.12-2.5.65-.46.11-1.26.33s25.5-3.88,42.58-13.14c10-5.45,16-10.3,20.17-15-.56-.54-1.11-1.09-1.69-1.63Z" style="fill:#fafafa"></path><path d="M232.11,436.81a157,157,0,0,0-44.25,10.42c-14.24,5.66-26.47,15.91-28.48,17.64l-.24.22,0,0c.08-.09.14-.18.22-.26,10.62-12.19,22-18.12,36.64-22.91,14.24-4.66,31.16-4.78,35.93-5.12Z" style="fill:#fafafa"></path><path d="M485.62,322.69c-6,3-19.25,8.46-43,12.6-19.13,3.33-31.61,5-41.86,7.79l-.2.06a76.11,76.11,0,0,0-15.3,5.8l0,0a115.19,115.19,0,0,0-19.48,13.18l0,0s0,0-.05,0c.35-.43,11.85-14.24,35.68-22.67,21.68-7.66,62.16-10.23,82.87-17l.27-.1c.32-.1.62-.21.93-.32C485.49,322.29,485.56,322.49,485.62,322.69Z" style="fill:#fafafa"></path><path d="M472.82,297q-.49-.73-1-1.47a144,144,0,0,1-37.69,18.44c.8-.1,13.07-1.79,33.05-11.49,2.46-1.19,4.75-2.41,6.89-3.65Z" style="fill:#fafafa"></path><path d="M162.39,435.69l-.85.39-.94.44-.71.36c-7.67,4-26.08,16.85-34.17,30l-2.35-.82c-.35-.14-.7-.26-1.05-.38C135.87,448.53,152.65,439,162.39,435.69Z" style="fill:#fafafa"></path><path d="M293.81,450.89c24.39-2.6,30.18-8.74,30.18-8.74-17.36,8.54-58.08,6-79.45,7.77s-35.82,5.34-44.26,12.91c0,0,6-4.21,26.51-7.75C241.58,452.53,271.63,453.25,293.81,450.89Z" style="fill:#fafafa"></path></g></g></g><g id="freepik--Shadows--inject-76"><path id="freepik--Shadow--inject-76" d="M268.18,393.21c-1.4,0-3.43-1.84-4.31-2.82-2.08-2.3-4.19-4.83-4.86-5.65-1.14.21-5,.95-9.08,2l-1,.27a14.42,14.42,0,0,1-3.22.67,1.33,1.33,0,0,1-1.27-.6c-.32-.58-.1-1.42.74-2.79,1.77-2.87,5.52-5,7.37-6a48.68,48.68,0,0,0-5.56-2.51c-.86-.3-2-.82-2-1.75,0-.47.32-1.11,1.76-1.57a17.58,17.58,0,0,1,4.39-.49c.61,0,1.2,0,1.75.08a29.31,29.31,0,0,1,7.62,1.47,19,19,0,0,1,8.84-3.54c.71-.07,1.35-.1,1.91-.1,1.44,0,2.23.22,2.57.72a1,1,0,0,1,.08.94,5.66,5.66,0,0,1-1.92,2,18.33,18.33,0,0,0-3.19,2.93l.87.31a49.79,49.79,0,0,1,7.72,3.39c2,1.16,2.87,2.13,2.63,3.05-.3,1.13-2.09,1.36-3.53,1.36h-1.81c-2.25,0-5.2.06-6.56.09.26,1.06.77,3.23,1.28,6.15a2.38,2.38,0,0,1-.28,1.95A1.21,1.21,0,0,1,268.18,393.21Z" style="fill:#e6e6e6"></path><path id="freepik--shadow--inject-76" d="M73.24,422.45,41.28,404c-2.39-1.38-2.39-3.62,0-5L325.09,235.14a9.57,9.57,0,0,1,8.66,0l32,18.46c2.39,1.38,2.39,3.62,0,5L81.9,422.45A9.57,9.57,0,0,1,73.24,422.45Z" style="fill:#e6e6e6"></path></g><g id="freepik--Plants--inject-76"><g id="freepik--plants--inject-76"><path d="M359.83,241s-10.42-5.85-2.44-33.1c9.71-33.13,41.23-41.3,63-39.36,0,0-10.07,5.54-16.8,14.18l-21.71,6.15,18.83-.71a32.26,32.26,0,0,1-7.62,11.71s-12.82,1.65-20.71,5.28l16.24.32a17.79,17.79,0,0,1-3.71,8.45C381.51,218.42,373.14,232.47,359.83,241Z" style="fill:#BA68C8"></path><path d="M359.83,241s-10.42-5.85-2.44-33.1c9.71-33.13,41.23-41.3,63-39.36,0,0-10.07,5.54-16.8,14.18l-21.71,6.15,18.83-.71a32.26,32.26,0,0,1-7.62,11.71s-12.82,1.65-20.71,5.28l16.24.32a17.79,17.79,0,0,1-3.71,8.45C381.51,218.42,373.14,232.47,359.83,241Z" style="opacity:0.25"></path><path d="M356.77,251.43s-.41-18,17.56-31.32,50.41-7.32,63-.48c0,0-12.05,1.72-28.43,12.63l-17.24-4,10.64,8.19-11.52,6.66-17.33-5,11.17,8.4S370.5,255.88,356.77,251.43Z" style="fill:#BA68C8"></path><path d="M356.77,251.43s-.41-18,17.56-31.32,50.41-7.32,63-.48c0,0-10.54,4.22-28.44,14.43l-17.23-5.78,10.64,8.19-11.52,6.66-17.33-5,11.17,8.4S370.5,255.88,356.77,251.43Z" style="fill:#BA68C8"></path><path d="M374.33,220.11c-18,13.36-17.56,31.32-17.56,31.32s7.86-19.67,23.39-27.88,39.16-9.91,57.17-3.92C424.74,212.79,392.29,206.74,374.33,220.11Z" style="opacity:0.1"></path></g></g><g id="freepik--Album--inject-76"><g id="freepik--photo-album--inject-76"><g id="freepik--Notebook--inject-76"><path d="M206.59,331.18l3.24,1.88,138.66-83.8a7.46,7.46,0,0,0,3.37-5.83L354.09,17.5l-3.22-1.86a2.38,2.38,0,0,0-2.38.23L206.59,97.8Z" style="fill:#BA68C8"></path><path d="M350.87,15.64l3.22,1.86,0,2.76L209.83,99.67l-3.24-1.87,141.9-81.93A2.38,2.38,0,0,1,350.87,15.64Z" style="opacity:0.1"></path><path d="M209.83,333.06l141.9-81.93a7.45,7.45,0,0,0,3.37-5.83V19.69c0-2.15-1.51-3-3.37-1.94L209.83,99.67Z" style="fill:#BA68C8"></path><polygon points="206.59 97.8 209.83 99.67 209.83 333.06 206.59 331.19 206.59 97.8" style="opacity:0.2"></polygon><path d="M206.65,327.48,69.52,414l-5.5.24-3.23-1.87a5.4,5.4,0,0,1-2.54-4.87V189.13a10.5,10.5,0,0,1,4.92-8.52l140.25-81,3.23,1.86Z" style="fill:#BA68C8"></path><path d="M206.65,327.48,69.52,414l-5.5.24-3.23-1.87a5.4,5.4,0,0,1-2.54-4.87V189.13a10.5,10.5,0,0,1,4.92-8.52l140.25-81,3.23,1.86Z" style="opacity:0.1"></path><path d="M62.88,186.13a10,10,0,0,0-1.4,4.87V409.31a5.12,5.12,0,0,0,8,4.64l137.14-79.18V101.5l-140.25,81A10.05,10.05,0,0,0,62.88,186.13Z" style="fill:#BA68C8"></path><path d="M221.67,334.82l-14.27-8.23,3.78-224L345.84,24.83a3.77,3.77,0,0,1,3.43,0L354.79,28a3.8,3.8,0,0,1,1.72,3l2.14,220.84a6.73,6.73,0,0,1-3.37,5.83Z" style="fill:#37474f"></path><polygon points="221.62 334.8 221.63 108.6 211.18 102.54 207.4 326.59 221.62 334.8" style="fill:#263238"></polygon><path d="M358.65,31.65v220.2a6.73,6.73,0,0,1-3.37,5.83L222.15,334.55l-.53.25V108.6l135.15-78A1.25,1.25,0,0,1,358.65,31.65Z" style="fill:#455a64"></path><path d="M213.81,337.43,78.23,415.71l-2.38.24-8.95-5.19h0a2.38,2.38,0,0,1-1-2.18V190.26a7.45,7.45,0,0,1,3.36-5.83l135.59-78.28,8.95,5.19Z" style="fill:#37474f"></path><path d="M213.81,111.33l-1.7,1-22.06,12.74-4.11,2.37L78.23,189.62a7.46,7.46,0,0,0-3.37,5.83V413.78c0,2.14,1.52,3,3.37,1.94l1.8-1,133.78-77.25Z" style="fill:#455a64"></path><path d="M213.81,111.33l-1.7,1-22.06,12.74-4.11,2.37L78.23,189.62a7.46,7.46,0,0,0-3.37,5.83V413.78c0,2.14,1.52,3,3.37,1.94l1.8-1,133.78-77.25Z" style="opacity:0.2"></path><path d="M75.84,192.14l-9-5.19a6.72,6.72,0,0,0-1,3.31V408.58a2.34,2.34,0,0,0,1,2.17l9,5.2a2.41,2.41,0,0,1-1-2.17V195.45A6.83,6.83,0,0,1,75.84,192.14Z" style="fill:#263238"></path><path d="M215.49,112.31l-24.4,14.09-3.83,2.21-107.35,62a7.42,7.42,0,0,0-3.36,5.83V391.93c0,1.74,0,3.37,0,4.91.19,8.07,1.36,13.54,3.49,17.84.1.18.18.35.27.53a2.81,2.81,0,0,0,.67.87,3,3,0,0,0,4.14-.34,62.63,62.63,0,0,1,11-8.39l.17-.11,119.22-68.83Z" style="fill:#455a64"></path><path d="M227.14,135.76a2.87,2.87,0,0,0-.87.36,4.74,4.74,0,0,0-1.2,1A7.28,7.28,0,0,0,223,141.8c0,2.08,1.49,2.93,3.29,1.9a4.86,4.86,0,0,0,.95-.72h0a7.48,7.48,0,0,0,2.16-3.65,5.06,5.06,0,0,0,.19-1.31C229.57,136.27,228.54,135.38,227.14,135.76Z" style="fill:#37474f"></path><path d="M227.14,158.6a3.85,3.85,0,0,0-.86.36,5.45,5.45,0,0,0-1.24,1,7.39,7.39,0,0,0-2,4.69c0,2.09,1.49,3,3.3,1.91a5.07,5.07,0,0,0,1-.74,7.28,7.28,0,0,0,2.15-3.66,4.51,4.51,0,0,0,.18-1.29C229.58,159.11,228.54,158.22,227.14,158.6Z" style="fill:#37474f"></path><path d="M227.13,204.3a3.32,3.32,0,0,0-.85.36,5.69,5.69,0,0,0-1.23,1,7.17,7.17,0,0,0-2.05,4.7c0,2.08,1.47,2.93,3.29,1.9a5.53,5.53,0,0,0,1-.73,7.66,7.66,0,0,0,2.15-3.67,4.77,4.77,0,0,0,.17-1.29C229.57,204.8,228.54,203.92,227.13,204.3Z" style="fill:#37474f"></path><path d="M227.13,227.15a3.85,3.85,0,0,0-.86.36,5.49,5.49,0,0,0-1.21,1A7.41,7.41,0,0,0,223,233.2c0,2.09,1.49,2.94,3.31,1.91a5.28,5.28,0,0,0,.94-.71h0a7.67,7.67,0,0,0,2.16-3.68,4.87,4.87,0,0,0,.17-1.29C229.57,227.66,228.54,226.78,227.13,227.15Z" style="fill:#37474f"></path><path d="M227.12,272.85a3.71,3.71,0,0,0-.85.36,5.15,5.15,0,0,0-1.21,1,7.24,7.24,0,0,0-2.07,4.7c0,2.08,1.48,2.94,3.29,1.9a5,5,0,0,0,1-.73,7.42,7.42,0,0,0,2.15-3.67,4.75,4.75,0,0,0,.17-1.28C229.57,273.36,228.53,272.47,227.12,272.85Z" style="fill:#37474f"></path><path d="M227.13,295.69a3.38,3.38,0,0,0-.85.37,5.7,5.7,0,0,0-1.23,1,7.34,7.34,0,0,0-2.05,4.7c0,2.09,1.48,2.94,3.29,1.9a4.84,4.84,0,0,0,.94-.71v0a7.4,7.4,0,0,0,2.17-3.65s0,0,0,0a4.75,4.75,0,0,0,.17-1.28C229.58,296.21,228.54,295.31,227.13,295.69Z" style="fill:#37474f"></path><path d="M208.64,153.91c-1.82,1-3.29.18-3.3-1.9a7.23,7.23,0,0,1,3.28-5.69c1.82-1,3.3-.2,3.3,1.91A7.23,7.23,0,0,1,208.64,153.91Z" style="fill:#37474f"></path><path d="M227.14,135.76a2.87,2.87,0,0,0-.87.36,4.74,4.74,0,0,0-1.2,1,6.88,6.88,0,0,1,2.34,4.7,4.32,4.32,0,0,1-.17,1.18h0a4.25,4.25,0,0,1-.48,1.18,8.11,8.11,0,0,1-3.08,2.86c-3.13,1.81-7.46,2.56-11.88,2.3a27.44,27.44,0,0,1-5.33-.79,2.07,2.07,0,0,0-.22.35,6.38,6.38,0,0,0-.35.69c-.08.21-.17.42-.23.62a.24.24,0,0,0,0,.09,2.07,2.07,0,0,0-.1.33s0,0,0,0,0,.08,0,.12a29.91,29.91,0,0,0,5.34.88c5.18.45,10.37-.38,14.06-2.5,3.18-1.86,4.95-4.46,5-7.35a7.3,7.3,0,0,0-.46-2.47A10.32,10.32,0,0,0,227.14,135.76Z" style="fill:#ebebeb"></path><path d="M208.64,176.76c-1.82,1-3.29.19-3.3-1.9a7.23,7.23,0,0,1,3.28-5.69c1.82-1,3.3-.2,3.3,1.91A7.23,7.23,0,0,1,208.64,176.76Z" style="fill:#37474f"></path><path d="M227.14,158.6a3.85,3.85,0,0,0-.86.36,5.45,5.45,0,0,0-1.24,1,6.71,6.71,0,0,1,2.36,4.7,3.74,3.74,0,0,1-.16,1.16,4,4,0,0,1-.48,1.19,8.21,8.21,0,0,1-3.08,2.87,22.07,22.07,0,0,1-11.89,2.3,28.59,28.59,0,0,1-5.32-.8c-.16.24-.3.49-.43.73l-.08.15s0,0,0,.06a1.43,1.43,0,0,0-.14.34,7.54,7.54,0,0,0-.3,1,31.79,31.79,0,0,0,5.32.9c5.19.43,10.37-.4,14.07-2.53,3.19-1.85,5-4.44,5-7.34a7.8,7.8,0,0,0-.45-2.49A10.14,10.14,0,0,0,227.14,158.6Z" style="fill:#ebebeb"></path><path d="M208.63,222.46c-1.81,1-3.29.18-3.29-1.91a7.21,7.21,0,0,1,3.28-5.68c1.82-1.05,3.3-.2,3.3,1.9A7.23,7.23,0,0,1,208.63,222.46Z" style="fill:#37474f"></path><path d="M227.13,204.3a3.32,3.32,0,0,0-.85.36,5.69,5.69,0,0,0-1.23,1,6.71,6.71,0,0,1,2.36,4.7,5.15,5.15,0,0,1-.16,1.17,4.47,4.47,0,0,1-.49,1.18,8.28,8.28,0,0,1-3.08,2.87,22.07,22.07,0,0,1-11.9,2.3,28.28,28.28,0,0,1-5.32-.81l-.22.35a5.71,5.71,0,0,0-.35.7,4.82,4.82,0,0,0-.27.72l-.12.48a31.91,31.91,0,0,0,5.33.9c5.18.43,10.37-.4,14.07-2.53,3.19-1.85,4.94-4.45,4.95-7.34a7.44,7.44,0,0,0-.45-2.49A10.18,10.18,0,0,0,227.13,204.3Z" style="fill:#ebebeb"></path><path d="M208.63,245.31c-1.81,1-3.29.18-3.3-1.91a7.26,7.26,0,0,1,3.29-5.68c1.82-1.05,3.3-.2,3.3,1.9A7.22,7.22,0,0,1,208.63,245.31Z" style="fill:#37474f"></path><path d="M227.13,227.15a3.85,3.85,0,0,0-.86.36,5.49,5.49,0,0,0-1.21,1,6.89,6.89,0,0,1,2.36,4.71,4.91,4.91,0,0,1-.18,1.2h0a4.6,4.6,0,0,1-.48,1.15,8.35,8.35,0,0,1-3.07,2.88,22,22,0,0,1-11.9,2.28,28,28,0,0,1-5.33-.79c-.07.13-.14.23-.22.35a6.08,6.08,0,0,0-.33.68l0,0a6,6,0,0,0-.28.81c0,.12-.07.25-.1.38a31.66,31.66,0,0,0,5.31.89c5.19.42,10.39-.41,14.08-2.52,3.2-1.85,5-4.46,5-7.34a7.56,7.56,0,0,0-.44-2.49A10.21,10.21,0,0,0,227.13,227.15Z" style="fill:#ebebeb"></path><path d="M208.63,291c-1.81,1-3.29.18-3.3-1.91a7.22,7.22,0,0,1,3.29-5.68c1.82-1.05,3.29-.2,3.29,1.9A7.25,7.25,0,0,1,208.63,291Z" style="fill:#37474f"></path><path d="M227.12,272.85a3.71,3.71,0,0,0-.85.36,5.15,5.15,0,0,0-1.21,1,6.8,6.8,0,0,1,2.35,4.69,4.32,4.32,0,0,1-.17,1.18,4,4,0,0,1-.49,1.18,8.28,8.28,0,0,1-3.08,2.87,22,22,0,0,1-11.88,2.29,29.94,29.94,0,0,1-5.33-.79,7.63,7.63,0,0,0-.42.73l-.09.15a.14.14,0,0,0,0,.06,2,2,0,0,0-.14.34l-.16.48a3.9,3.9,0,0,0-.12.46l0,0a33,33,0,0,0,5.33.89c5.19.42,10.37-.41,14.07-2.53,3.19-1.85,5-4.46,4.94-7.33a7.2,7.2,0,0,0-.44-2.5A9.86,9.86,0,0,0,227.12,272.85Z" style="fill:#ebebeb"></path><path d="M208.64,313.85c-1.82,1-3.29.19-3.3-1.9a7.24,7.24,0,0,1,3.28-5.69c1.82-1.05,3.3-.19,3.3,1.91A7.21,7.21,0,0,1,208.64,313.85Z" style="fill:#37474f"></path><path d="M227.13,295.69a3.38,3.38,0,0,0-.85.37,5.7,5.7,0,0,0-1.23,1,6.73,6.73,0,0,1,2.36,4.7,4.14,4.14,0,0,1-.17,1.17v0a4,4,0,0,1-.47,1.17,8.45,8.45,0,0,1-3.08,2.87,21.94,21.94,0,0,1-11.91,2.29,27.92,27.92,0,0,1-5.3-.79,2.07,2.07,0,0,0-.22.35,6.38,6.38,0,0,0-.35.69,5.81,5.81,0,0,0-.27.72c0,.16-.09.32-.13.48a30.72,30.72,0,0,0,5.33.88c5.19.43,10.38-.39,14.06-2.51,3.19-1.86,5-4.45,5-7.34a6.86,6.86,0,0,0-.43-2.48s0,0,0,0A10.38,10.38,0,0,0,227.13,295.69Z" style="fill:#ebebeb"></path></g><g id="freepik--Photo--inject-76"><polygon points="241.63 115.39 348.13 53.9 348.13 210.71 241.64 272.19 241.63 115.39" style="fill:#f5f5f5"></polygon><polygon points="348.13 53.9 343.69 51.34 237.2 112.83 241.63 115.39 348.13 53.9" style="fill:#fafafa"></polygon><polygon points="237.2 112.83 237.2 269.63 241.64 272.19 241.63 115.39 237.2 112.83" style="fill:#e6e6e6"></polygon><polygon points="246.07 117.95 343.69 61.59 343.69 208.14 246.07 264.5 246.07 117.95" style="fill:#BA68C8"></polygon><polygon points="246.07 117.95 343.69 61.59 343.69 208.14 246.07 264.5 246.07 117.95" style="fill:#fff;opacity:0.8"></polygon><polygon points="246.07 223.51 343.69 167.15 343.69 208.14 246.07 264.5 246.07 223.51" style="fill:#ffbda7"></polygon><path d="M246.07,233.76a13.69,13.69,0,0,1,5.63-4.24c2.79-1.05,6-1.08,8.49-2.84a23.5,23.5,0,0,0,3.35-3.34c4.73-5,11.64-7.05,18.26-8.82,3.28-.88,6.63-1.76,9.47-3.62,6-3.91,9-11.73,15.71-14.2,3.48-1.29,7.38-.87,10.93-1.93,5.23-1.56,8.92-5.94,12.73-9.57a28.27,28.27,0,0,1,6.25-4.8c.55-.29,6.8-2.19,6.8-1.62V141.53l-97.62,56.36Z" style="fill:#BA68C8;opacity:0.5"></path><path d="M246.07,238.11a13.72,13.72,0,0,1,5.63-4.25c2.79-1.05,6-1.08,8.49-2.83a24.59,24.59,0,0,0,3.35-3.34c4.73-5,11.64-7.05,18.26-8.83,3.28-.88,6.63-1.76,9.47-3.62,6-3.91,9-11.73,15.71-14.2,3.48-1.28,7.38-.86,10.93-1.92,5.23-1.57,8.92-5.94,12.73-9.57a27.79,27.79,0,0,1,6.25-4.81,14.65,14.65,0,0,1,6.8-1.62V141.53l-97.62,56.36Z" style="fill:#BA68C8;opacity:0.30000000000000004"></path><path d="M246.07,233.76a13.69,13.69,0,0,1,5.63-4.24c2.79-1.05,6-1.08,8.49-2.84a23.5,23.5,0,0,0,3.35-3.34c4.73-5,11.64-7.05,18.26-8.82,3.28-.88,6.63-1.76,9.47-3.62,6-3.91,9-11.73,15.71-14.2,3.48-1.29,7.38-.87,10.93-1.93,5.23-1.56,8.92-5.94,12.73-9.57a28.27,28.27,0,0,1,6.25-4.8c.55-.29,6.8-2.19,6.8-1.62V141.53l-97.62,56.36Z" style="fill:#BA68C8;opacity:0.4"></path><path d="M246.07,228.64a13.72,13.72,0,0,1,5.63-4.25c2.79-1,6-1.08,8.49-2.83a24.59,24.59,0,0,0,3.35-3.34c4.73-5,11.64-7.05,18.26-8.83,3.28-.88,6.63-1.76,9.47-3.62,6-3.91,9-11.73,15.71-14.2,3.48-1.28,7.38-.86,10.93-1.92,5.23-1.57,8.92-5.94,12.73-9.57a28.27,28.27,0,0,1,6.25-4.8,14.63,14.63,0,0,1,6.8-1.63V141.53l-97.62,56.36Z" style="fill:#BA68C8"></path><polygon points="246.07 197.89 246.07 213.27 343.69 156.91 343.69 141.53 246.07 197.89" style="opacity:0.03"></polygon><polygon points="246.07 197.89 246.07 208.14 343.69 151.78 343.69 141.53 246.07 197.89" style="opacity:0.03"></polygon><path d="M269.59,213.75a34.16,34.16,0,0,1,7.68-3.27c3.36-.91,9.36-2.06,13-4.21a29.32,29.32,0,0,0,6.48-5.61,19.5,19.5,0,0,1-6.52,6c-3.91,2-7.71,2.88-12.18,4A40.23,40.23,0,0,0,269.59,213.75Z" style="fill:#fff"></path><path d="M305.57,192.2a12.08,12.08,0,0,1,4.34-1.57,55.1,55.1,0,0,0,8.15-1.26,25.77,25.77,0,0,0,7.77-4.63,17.22,17.22,0,0,1-7.66,5A60,60,0,0,1,309.8,191,13.71,13.71,0,0,0,305.57,192.2Z" style="fill:#fff"></path><path d="M251.48,229.6a24.8,24.8,0,0,1,5.31-1.65,8.48,8.48,0,0,0,4.22-2.29,30.55,30.55,0,0,1,4.62-4.22,21.23,21.23,0,0,0-3.74,4.08c-1.34,1.89-3.06,2.49-5.22,2.93A40.57,40.57,0,0,0,251.48,229.6Z" style="fill:#fff"></path><path d="M268.26,224a30,30,0,0,1,7.39-3.68c1.91-.55,7.85-2,10.12-2.76s7.71-3.22,10.45-6.83c-2.06,3.87-7.61,6.57-10.51,7.37S277,220.41,275,221.13A39.46,39.46,0,0,0,268.26,224Z" style="fill:#fff;opacity:0.6000000000000001"></path><path d="M297.82,204.49a33.65,33.65,0,0,1,5.09-5.87,14,14,0,0,1,6.21-2.82c2.21-.24,6-.43,6.58-.54-1.87.62-5.58.78-6.79.94a14.93,14.93,0,0,0-6.45,3.31A35.42,35.42,0,0,0,297.82,204.49Z" style="fill:#fff"></path><path d="M322.85,196.64a39,39,0,0,0,6.55-6.26,27.38,27.38,0,0,1,5.6-5,17.72,17.72,0,0,1,7.7-2.23c-1,.17-5.24.84-8.16,3.12a45.51,45.51,0,0,0-6.77,6.55A18.45,18.45,0,0,1,322.85,196.64Z" style="fill:#fff"></path><polygon points="246.07 197.89 246.07 203.02 343.69 146.66 343.69 141.53 246.07 197.89" style="opacity:0.03"></polygon><path d="M295.44,147.57c-.72,2.45-4.39,13.55-4.58,14.39-.28,1.28-2,4.1-1.05,4.54,1.63.79,2.94.41,3.47-.56.72-1.33,6.7-12.58,7.3-15.17s1.73-11.5,2.3-13.67c.77-2.95,2.09-12.5,2.09-12.5-2.49.81-5.78,1.6-6.8,3.74-1.18,2.46-1.3,4.33-1.92,10.77C295.87,143.2,295.44,147.57,295.44,147.57Z" style="fill:#f28f8f"></path><path d="M301.63,144.55l-.91-12.41a25.62,25.62,0,0,0-.37,6.23c.06,1.31.78,9.37.78,9.37Z" style="fill:#b16668"></path><path d="M273.82,151.62s4.8,5.13,6.6,7.12c1.07,1.18,6,3.52,7.06,4.59a2.15,2.15,0,0,1,.4,1.19c.13,1,.43,1.27.55,2.29.09.8.06,1.09.23,1.11s.68-.14.92-.88a9.86,9.86,0,0,0,.24-1.59,7.64,7.64,0,0,1,.84,2.43c.38,2,1.59,1.36,2.49.11,1-1.45.89-3.05-.91-6a11.47,11.47,0,0,0-2.64-2.72,61.82,61.82,0,0,1-6.37-5.12c-2.17-3-5.55-8.2-7.67-9.37-1.5-.83-3.92.2-5.78,1.32A42.7,42.7,0,0,0,273.82,151.62Z" style="fill:#b16668"></path><path d="M289.51,165.82c.31-.7,1.08-2.27,1.65-2a3.67,3.67,0,0,1,1.2,2.76c-.07.93-1.22,1.73-1,2.53C290.2,169.53,288.87,167.31,289.51,165.82Z" style="fill:#f28f8f"></path><path d="M284.59,178.37c-.26-.4-.62-.89-1.06-1.46h0l-8.76-11.33-.52-3.59a33.37,33.37,0,0,0,1-4.27c2.57-3.12,1.93-5.69,1.06-7.49-1.74-3.59-3.09-5.54-4.75-5.07l-4.92,1.56c-2.49.92-4.19,1.63-4.79,1.91-1.54.73-1.52,1.9-1.65,3.65a16.71,16.71,0,0,0,.23,4.73l1.8,4.86.41,2.55s-.49.81-1.2,2.14c-1.71,3-3.92,6.95-3.55,12a79.83,79.83,0,0,0,1.74,10.35c1.14,5.9,2.27,11.38,2.27,11.38a22.49,22.49,0,0,0-1.08,7.27c.14,4.61.44,9.68.37,12.37,0,.59-.05,1.81-.05,1.81v-.41c-.07,1.13-.14,1.76-.41,4.56a29.09,29.09,0,0,1-1.14,5.11,5.54,5.54,0,0,0,1.09,5c1.1,1.58,2.73.92,3.74-.47,1.73-2.37,1.42-4.62,1.13-6.73S265,225,265,223.57c-.08-2,0-2.3-.09-3.19.1-.61.27-1.46.36-2,1.1-6.22,2-8.46,2.84-17.26a28.35,28.35,0,0,0,.56-4.33c0-1.31.11-3.24.25-6,.23-4.47.25-9.36.21-13.29,2.49,2.86,5.59,4.76,8.45,7.53-2.61,4.19-2.66,10.35-3.16,14.41-.28,2.32-.29,2.83-.48,4.51a3.09,3.09,0,0,1-.57.58,5.78,5.78,0,0,0-1.72,1.61c-.66,1.08-.2,2.61.08,3.72a6.84,6.84,0,0,1-.11,3.54c-.41,1.8-.41,3.19.79,4.39.95,1,4,1.65,5.13.65,1.86-1.7-.76-3.81-.69-5.48a53.41,53.41,0,0,1,.82-7.47c1.06-3.38,2.06-5.85,3.4-10,.79-2.5,2.14-6.4,3.1-9.77C284.85,183.22,285.77,180.21,284.59,178.37Zm-19.76,42.18a.69.69,0,0,0,0-.13Zm-.05.4c0-.07,0-.16,0-.26Z" style="fill:#b16668"></path><path d="M269.08,177.58s-.17-5.38-10-6.27a10,10,0,0,1,.68-1.58c2.39,0,5.13,1.4,10.54-.27a8,8,0,0,0,4.51-3.88,2.66,2.66,0,0,1,.65.83s-.66,1.91-1.74,4.28a41.62,41.62,0,0,1-2.77,5.05C269.82,177.37,269.08,177.58,269.08,177.58Z" style="fill:#263238"></path><path d="M271.5,166.37a.41.41,0,0,1-.28.36.21.21,0,0,1-.27-.22.41.41,0,0,1,.28-.36A.21.21,0,0,1,271.5,166.37Z" style="fill:#9a4a4d"></path><path d="M276.2,150.05l-2-2.46s2.15,1.8,2.4,2,.05,2,.05,2Z" style="fill:#9a4a4d"></path><path d="M260.86,158.23s1.13-1.28,2.89-2.88c2.37-2.15,6.76-3.58,9.15-1.15,0,0,1.58-3.52,3.3-4.15.19,0,4,2.91-1,7.67a2.49,2.49,0,0,1-2.41-.22,8.55,8.55,0,0,1-3.46,3.19,9.53,9.53,0,0,1-4.82,1.08,11.25,11.25,0,0,1-2.54-.35A12.15,12.15,0,0,1,260.86,158.23Z" style="fill:#263238"></path><path d="M264.68,144.81c-.62.15-1.05-.69-1.52-1.45a32.66,32.66,0,0,1-1.85-4.9c-.41-1.27-.48-4.31,1.5-5.1a4.88,4.88,0,0,1,1.46-3.45c1.55-1.54,3.43-1.4,5-2.53s1.89-1.84,3.31-1.95a1.55,1.55,0,0,1,1.42,2.09s1.74-1.41,2.83,0a2.59,2.59,0,0,1-1,3.59,1.92,1.92,0,0,1,.17,2,2.37,2.37,0,0,1-2.22,1.42Z" style="fill:#263238"></path><path d="M262.42,132.41a1.38,1.38,0,0,0-1.35,1l1.94.26C263.22,133.05,263,132.48,262.42,132.41Z" style="fill:#263238"></path><path d="M272.85,130.22c.84.31,1.89,2.29,1.79,7.05-.09,4-1.32,5.37-1.94,5.82a6.82,6.82,0,0,1-3,.71v2.41s3.2,2.84.54,3.92a5.1,5.1,0,0,1-4.13-.55,3.5,3.5,0,0,1-1.47-2.13l0-5.26a1.29,1.29,0,0,1-1.83.13,2.14,2.14,0,0,1-.54-3c.75-1,2.12-1.15,2.65-.15,0,0,.68-.13,1.36-1.64a6.12,6.12,0,0,0,3.26-1.65A10.57,10.57,0,0,0,272.85,130.22Z" style="fill:#b16668"></path><path d="M269.74,137.33a.71.71,0,0,1-.46.67.38.38,0,0,1-.5-.37.72.72,0,0,1,.45-.67A.38.38,0,0,1,269.74,137.33Z" style="fill:#263238"></path><path d="M270.33,140.53l1.49.11a1,1,0,0,1-1,.82C270.44,141.43,270.2,141,270.33,140.53Z" style="fill:#9a4a4d"></path><path d="M274.05,134.6l-1-.45a.66.66,0,0,1,.81-.39A.6.6,0,0,1,274.05,134.6Z" style="fill:#263238"></path><path d="M269.07,135.73l-1.1.74a.77.77,0,0,1,.32-.88A.51.51,0,0,1,269.07,135.73Z" style="fill:#263238"></path><path d="M273.79,136.13a.71.71,0,0,1-.46.67.38.38,0,0,1-.5-.37.72.72,0,0,1,.45-.67A.38.38,0,0,1,273.79,136.13Z" style="fill:#263238"></path><polygon points="271.5 136.46 271.57 139.48 273.08 138.57 271.5 136.46" style="fill:#9a4a4d"></polygon><path d="M269.73,143.8c-1.22.16-3.73.07-4.12-.88a1.93,1.93,0,0,0,.88,1.11,10.52,10.52,0,0,0,3.24.57Z" style="fill:#9a4a4d"></path><path d="M252,143.18c2.65,6.63,6.23,9.7,8.4,13.83,3.87-.7,4.19-6.62,2.5-8.85,0,0-6.54-7-7.07-10.08-.46-2.7-1.53-6.92-1.38-9.32a2.16,2.16,0,0,1,.47-1.16,12.76,12.76,0,0,0,1.29-2.73c.39-.81.8-1.18.69-1.31s-.59-.35-1.19.18a7.38,7.38,0,0,0-.93,1.13,12.21,12.21,0,0,1,.8-2.74c.88-2.15.72-3.11-1.78-1.83-1.57.79-2.6,2.4-3,6.45a43.68,43.68,0,0,0-.19,5c.16,3,.36,5.88.62,8.35A11.94,11.94,0,0,0,252,143.18Z" style="fill:#b16668"></path><path d="M297.28,175.45c-.2.73-.18,2.72,4.23,3.55s5.48-.21,5.72-1.13a4.65,4.65,0,0,0-2.59-4.75C302.31,172.13,297.69,173,297.28,175.45Z" style="fill:#263238"></path><path d="M341.26,175.13a28.32,28.32,0,0,0-2.05-2.68,4.36,4.36,0,0,1-.35-.59,3.68,3.68,0,0,1-.42-1.09,8.18,8.18,0,0,0-.22-1.44,2.48,2.48,0,0,0-.84-1.38,1.81,1.81,0,0,0-2.08-.11,5.84,5.84,0,0,0-1.21,1c-.32.33-.57.75-.89,1.06a9.7,9.7,0,0,1-3.61,2L326.52,173l-5.39,2-.33.12s.31-11.63-.46-20.84c-.38-4.91-1.92-15.62-1.92-15.62l1.11-12.25c-.07-1.5-.9-7.23-2-6.34a26.39,26.39,0,0,1-4.69,2.19s-3.67.91-6.51,1.87c-2.68.9-4.36,1.71-5.47,7.44-.89,4.56,2.08,16.83,1,22.31a1.13,1.13,0,0,0,0,.18A287.88,287.88,0,0,0,297,184c-.27,2.74.06,3.34,2.22,6.42,3,4.32,8.23,9.72,11.83,13.92l.35.49a2.54,2.54,0,0,1,.4,1.34,16,16,0,0,1,.05,2.53,19.1,19.1,0,0,1-.25,2,18.79,18.79,0,0,1-2.32,5.86c-.32.57-.66,1.28-.41,1.76a1,1,0,0,0,1,.34,5.92,5.92,0,0,0,3.31-1.55,8.29,8.29,0,0,0,2.27-3.38c.67-1.91.61-3.94,1.5-5.77.38-.8.92-1.5,1.3-2.3a2.66,2.66,0,0,0,.19-2.37,1.71,1.71,0,0,0-.54-.5c-1-.66-2.31-.93-3-2.4l-.16-.36c-4.37-6.89-3.94-14.76-9.68-17.57,2-5.64,3.73-11.92,5.54-18,.38,3.3,1.73,14.09,3.19,18.19.92,2.58,2.5,3.74,5.3,2.18,2.09-1.16,4.16-2.47,6.22-3.76s4.26-2.69,6.38-4.05a16.74,16.74,0,0,1,2.13-1.26.91.91,0,0,1,.57-.1.72.72,0,0,1,.31.21,7.18,7.18,0,0,1,1.19,1.43,19.34,19.34,0,0,1,1.8,3.58c.24.61.4,1.27.63,1.88a.84.84,0,0,0,1.16.48,2.56,2.56,0,0,0,.91-.86,8.23,8.23,0,0,0,1.48-3.69A5.94,5.94,0,0,0,341.26,175.13Z" style="fill:#f28f8f"></path><path d="M308,148.32a.52.52,0,0,1-.31.52.27.27,0,0,1-.39-.25.52.52,0,0,1,.31-.52A.27.27,0,0,1,308,148.32Z" style="fill:#b16668"></path><path d="M301.91,153.21s-3.7,15-4.63,22.24a6.9,6.9,0,0,1,6.67-1c2.56,1,3.13,1.78,3.28,3.44l2.91-10.76,1.65,10.58s6.47-.5,9.74-5.08c0-.37-.38-12.56-.75-17.14a40.11,40.11,0,0,0-1-6.89s-5.63,3-9.95,3.79A54.66,54.66,0,0,1,301.91,153.21Z" style="fill:#37474f"></path><path d="M302,151.16a15,15,0,0,0-.13,2.05s2.34,1.3,6.68.4,11.15-5,11.15-5c-.05-.71-.15-1.47-.28-2.26,0,0-6.4,3.86-10.63,4.85A12.37,12.37,0,0,1,302,151.16Z" style="fill:#263238"></path><path d="M310.14,167.11l-.87-5a5.29,5.29,0,0,1-3.94-2.55,5.78,5.78,0,0,0,3,3.7l.84,3.93-1.46,8.8Z" style="fill:#263238"></path><path d="M331,114.73c-1.07,1.44-11.27,13-11.88,15.65-4.29-1.89-3.09-9.36-1.63-10.33a83.56,83.56,0,0,0,9-8.77,4.47,4.47,0,0,0,.59-1.21c.25-.77,2.47-10.16,2.61-13a1.59,1.59,0,0,0-.45-1.23,8.16,8.16,0,0,1-1.51-2.55c-.39-.77-.86-1-.71-1.21a1.21,1.21,0,0,1,1.46-.4,5.22,5.22,0,0,1,1.21,1,8.72,8.72,0,0,0-.62-3c-.84-2.11-.52-3.33,2.45-3.12,1.86.14,3.41,1.62,3.39,6.24a45.79,45.79,0,0,1-.61,5.09c-.58,3.95-1.08,10.11-1.55,13.17A7.56,7.56,0,0,1,331,114.73Z" style="fill:#f28f8f"></path><path d="M310.66,109.33a7.21,7.21,0,0,1-4.59,7c-2.69.85-5-.87-5.14-3.86a7.18,7.18,0,0,1,4.59-7C308.2,104.62,310.5,106.35,310.66,109.33Z" style="fill:#263238"></path><path d="M314.39,112.05s-.58,4.36-.86,5.14a2.5,2.5,0,0,1-.92,1.18l-.09-2.91Z" style="fill:#263238"></path><path d="M313.1,106.47a1.53,1.53,0,0,1,1.54.11c.69.53.45,3-.25,5.47l-1.47.66Z" style="fill:#263238"></path><path d="M312.47,112.85c.31.11.7-.66,1-1.21s1.51-1.51,2.18-.3-.36,3.48-1.28,4.11c-1.6,1.09-1.9,0-1.9,0l.22,6.75h0c-1.88,3.53-7.51,5.28-5.33,1.53l-.08-2.2a10.67,10.67,0,0,1-2.19.82c-1.2.18-2-.63-2.44-2-.7-2.13-1-3.92-.75-8.63a6.46,6.46,0,0,1,8.41-5.79C313.27,107.07,312.47,112.85,312.47,112.85Z" style="fill:#f28f8f"></path><path d="M312.5,113.41c.15,0,.67-1.28,1-1.77.49-.68-.42-5.17-.42-5.17a2.33,2.33,0,0,0-.48-2.43c-.74-.63-1.78-1.37-4.95.06-2.26,1-4.69,2.6-6.75,2.15-.23,1.48.09,2.94,1.39,3.64a5.58,5.58,0,0,0,2.67-.06,29.44,29.44,0,0,0,5.27-1.79c.55-.26.69.3,1.07,1.83C311.66,111.21,312,113.56,312.5,113.41Z" style="fill:#263238"></path><path d="M313.12,106.83l1.74-1.64a.85.85,0,0,0-1.38-.07A1.49,1.49,0,0,0,313.12,106.83Z" style="fill:#263238"></path><path d="M307.33,121.54a25.5,25.5,0,0,0,3.54-2.3,4.74,4.74,0,0,0,1.22-1.82,6.35,6.35,0,0,1-.65,1.9c-.63,1.19-4.08,3-4.08,3Z" style="fill:#b16668"></path><path d="M307.58,113.66a.43.43,0,0,0,.57.44.8.8,0,0,0,.5-.79.43.43,0,0,0-.57-.44A.81.81,0,0,0,307.58,113.66Z" style="fill:#263238"></path><path d="M308,111.23l1.18.34a.68.68,0,0,0-.31-.93A.8.8,0,0,0,308,111.23Z" style="fill:#263238"></path><path d="M307.39,117.89l-1.2.9a.54.54,0,0,0,.86.19A1,1,0,0,0,307.39,117.89Z" style="fill:#b16668"></path><path d="M302.72,113.43l1-1.23a.59.59,0,0,0-.91.14A.88.88,0,0,0,302.72,113.43Z" style="fill:#263238"></path><path d="M303.12,114.91a.43.43,0,0,0,.57.44.8.8,0,0,0,.5-.79.42.42,0,0,0-.56-.44A.81.81,0,0,0,303.12,114.91Z" style="fill:#263238"></path><polygon points="305.82 113.47 305.83 117.11 304.12 117 305.82 113.47" style="fill:#b16668"></polygon></g><path d="M235.35,255.27v18a2.94,2.94,0,0,0,4.41,2.55l15.56-9S245.84,258.2,235.35,255.27Z" style="fill:#263238"></path><path d="M346.57,47.14,328.72,57.53c7.6,6.59,13.35,10.61,22,13.16V49.53A2.76,2.76,0,0,0,346.57,47.14Z" style="fill:#263238"></path><g id="freepik--Heart--inject-76"><path d="M259.35,291.65a11.28,11.28,0,0,1,.18-5.74h0v-.05a14.19,14.19,0,0,1,3.47-6.25c2.76-2.76,6.05-1.35,7.28,1.55-.54-3.59.75-9.55,3.52-12.3,1.61-1.61,3.29-2.2,4.66-1.84h0a3.89,3.89,0,0,1,2.56,3c1.42,5.22-1.78,12.07-4.19,18.82l-2.75,6.73-4.29.29C265.54,295.79,260.77,296.87,259.35,291.65Z" style="opacity:0.2"></path><path d="M261,291a11.31,11.31,0,0,1,.18-5.75h0v0a14.13,14.13,0,0,1,3.47-6.25c2.76-2.76,6.05-1.36,7.28,1.54-.54-3.59.75-9.55,3.52-12.3,1.61-1.6,3.29-2.2,4.66-1.84h0a3.89,3.89,0,0,1,2.56,3c1.42,5.22-1.78,12.08-4.19,18.83l-2.75,6.72-4.29.29C267.21,295.08,262.44,296.17,261,291Z" style="fill:#BA68C8"></path></g><path id="freepik--Arrow--inject-76" d="M328.87,243.46a2.18,2.18,0,0,0-.58-.46,32.11,32.11,0,0,1-4.41-3.19c-1.33-1.14-2.45-2.51-3.78-3.65-.52-.44-1.6-.33-1.69.47a19.9,19.9,0,0,1-3.75,10c-.19.26-.39.63-.18.87a.55.55,0,0,0,.28.15c1.8.56,2.9-2.08,3.51-3.34a30.31,30.31,0,0,0,1.47-3.58,23.58,23.58,0,0,1,.06,3,39.22,39.22,0,0,1-.72,6.29,34.43,34.43,0,0,1-5.91,13.1,37.84,37.84,0,0,1-10,9.12c-4.18,2.71-8.93,4-13.62,4.87-1.08.21,0,1.73.84,1.65a34,34,0,0,0,11.73-3.46,34.46,34.46,0,0,0,9.11-6.9c5.49-5.68,9.75-13,10.47-21a21.28,21.28,0,0,0-.12-6.74,11.34,11.34,0,0,0,1.06,1.13,14,14,0,0,0,2.64,1.81c.82.44,2,1.28,3,1.1a.9.9,0,0,0,.77-.91A.71.71,0,0,0,328.87,243.46Z" style="fill:#fafafa"></path><g id="freepik--Text--inject-76"><path d="M89.79,248.55c-1.79-12.36-.16-24.36,4.34-28.86,3.32-3.32,5.63-.08,6.92,8.88,1.79,12.37.11,24.42-4.37,28.9C93.36,260.78,91.08,257.52,89.79,248.55Zm10.33-19c-1.14-7.88-3-10.78-5.8-8-3.88,3.89-5.22,14.77-3.58,26.11,1.13,7.82,2.94,10.67,5.72,7.89C100.35,251.68,101.74,240.8,100.12,229.57Z" style="fill:#fff"></path><path d="M94.33,259a2.05,2.05,0,0,1-.65-.1c-1.88-.63-3.24-4-4.16-10.31h0c-1.83-12.69,0-24.65,4.42-29.09,1.15-1.15,2.23-1.57,3.21-1.24,1.89.63,3.26,4,4.17,10.28,1.83,12.69,0,24.67-4.45,29.11A3.77,3.77,0,0,1,94.33,259Zm-4.28-10.48c1.08,7.47,2.66,9.49,3.8,9.87.76.25,1.65-.12,2.65-1.11,4.34-4.34,6.1-16.13,4.29-28.67-1.08-7.45-2.67-9.47-3.81-9.85-.77-.25-1.66.12-2.66,1.12C90,224.2,88.24,236,90.05,248.52Zm4.5,8.35a1.7,1.7,0,0,1-.54-.09c-1.59-.53-2.72-3.41-3.54-9.08-1.68-11.66-.18-22.49,3.66-26.33,1-.94,1.84-1.28,2.64-1,1.62.53,2.8,3.53,3.61,9.17h0c1.67,11.57.14,22.36-3.73,26.22A3.15,3.15,0,0,1,94.55,256.87Zm1.68-36.07a2.64,2.64,0,0,0-1.72.95c-3.73,3.73-5.17,14.37-3.51,25.88.77,5.29,1.84,8.2,3.18,8.64.59.2,1.3-.1,2.09-.9,3.76-3.75,5.23-14.35,3.58-25.76h0c-.77-5.35-1.86-8.29-3.24-8.75A1.21,1.21,0,0,0,96.23,220.8Z" style="fill:#fff"></path><path d="M118.35,229.45c-.53,4.36-1.58,7.94-2.85,9.21-1.11,1.11-1.76.11-2.12-2.89-1.07,4.31-2.33,7.34-3.84,8.85-2.14,2.14-3.28-.14-3.59-4.67l-1.13-16.79.83-1.18,1.12,16.68c.27,4.15,1.07,5.77,2.74,4.1,1.21-1.2,2.67-4.67,3.68-8.92L112,216l.82-1.18L114,232.15c.3,4.48.73,5.23,1.51,4.45,1-1,1.83-4.13,2.25-7.73Z" style="fill:#fff"></path><path d="M108.08,245.7a1.38,1.38,0,0,1-.45-.08c-1.06-.4-1.72-2.31-1.94-5.66l-1.14-16.88,1.31-1.87L107,238.65c.23,3.4.77,4.31,1.19,4.46s.79-.22,1.11-.54c1.18-1.19,2.63-4.7,3.59-8.75l-1.19-17.92,1.32-1.87,1.21,18.1c.25,3.73.59,4.4.77,4.47,0,0,.1,0,.28-.19.9-.9,1.73-3.8,2.18-7.57l.06-.54,1.08,1,0,.13c-.55,4.6-1.65,8.1-2.92,9.37-.45.45-.86.6-1.24.47s-.88-.88-1.14-2.23c-1,3.83-2.22,6.36-3.58,7.72A2.5,2.5,0,0,1,108.08,245.7Zm-3-22.47,1.13,16.7c.28,4.09,1.12,5,1.6,5.19s.92-.08,1.53-.69c1.42-1.41,2.69-4.35,3.77-8.73l.36-1.42.17,1.46c.29,2.49.74,3,1,3.08s.49-.15.69-.35c1.16-1.16,2.22-4.57,2.76-8.92l-.12-.11c-.48,3.67-1.31,6.4-2.26,7.35-.12.11-.46.46-.85.31s-.86-1.06-1.11-4.93l-1.11-16.6-.34.49,1.17,17.8v0c-1,4.22-2.47,7.77-3.75,9-.63.64-1.18.86-1.67.67-.85-.32-1.32-1.84-1.53-4.93l-1.07-15.93Z" style="fill:#fff"></path><path d="M130,217.81c-.55,4.73-1.83,8.19-3.74,10.1s-3.34.57-4-4c-.56-4-.37-9.47.46-16.38a10.75,10.75,0,0,1-4.43,3,55,55,0,0,1,1.2,17.79l-.6-.59a50.3,50.3,0,0,0-1.4-17,1.46,1.46,0,0,1-.62,0l-.14-1.74c1.83.17,4-1.15,6.86-4l.06,1.89a62.47,62.47,0,0,0-.54,16c.5,3.58,1.46,4.67,3,3.12s2.74-4.69,3.25-8.85Z" style="fill:#fff"></path><path d="M124.69,229a1.69,1.69,0,0,1-.45-.07c-1.07-.37-1.8-2-2.22-5-.52-3.83-.4-9,.38-15.71a10.35,10.35,0,0,1-3.76,2.42,55.72,55.72,0,0,1,1.15,17.64l-.07.54-1.07-1v-.13A50.28,50.28,0,0,0,117.32,211a1.22,1.22,0,0,1-.47,0l-.2,0-.19-2.26.32,0c1.69.17,3.74-1,6.66-3.89l.43-.43.08,2.5a61.94,61.94,0,0,0-.54,16c.37,2.68.93,3.41,1.34,3.55s.73-.09,1.22-.58c1.55-1.56,2.68-4.64,3.17-8.69l.07-.54,1.07,1.06v.13c-.56,4.77-1.88,8.32-3.82,10.26A2.68,2.68,0,0,1,124.69,229Zm-1.58-22.23-.1.76c-.85,7.06-1,12.4-.46,16.32.5,3.6,1.38,4.41,1.86,4.57s1-.09,1.66-.74c1.84-1.83,3.1-5.23,3.65-9.82l-.12-.11c-.54,4-1.66,6.87-3.25,8.47-.65.64-1.25.88-1.77.71-.82-.28-1.37-1.55-1.7-4a62.66,62.66,0,0,1,.54-16.11l0-1.24c-2.64,2.5-4.61,3.64-6.3,3.64h0l.1,1.22a1.25,1.25,0,0,0,.31,0l.25-.06.07.25a50.61,50.61,0,0,1,1.42,17l.11.11a55.19,55.19,0,0,0-1.25-17.15l-.06-.25.25-.07a10.49,10.49,0,0,0,4.31-2.88Z" style="fill:#fff"></path><path d="M96,295.73c-.85-4.76-1.49-11.43-1.92-16.3l.87-.87c.39,4.74,1,11.57,1.88,16.17.54,3,1,5.2,2,4.23s1.71-4.42,2.11-7.59a78.32,78.32,0,0,0,.52-19.33l.83-1.18a81.07,81.07,0,0,1-.42,20.05c-.55,4.34-1.5,8.41-2.94,9.84S96.61,299.44,96,295.73Z" style="fill:#fff"></path><path d="M98.14,301.42a.86.86,0,0,1-.28,0c-.89-.28-1.52-1.91-2.16-5.61h0c-.83-4.66-1.47-11.16-1.93-16.31v-.13L95.13,278l.05.57c.32,3.92,1,11.22,1.87,16.14.24,1.32.74,4.07,1.29,4.24.08,0,.19-.07.28-.15.76-.77,1.54-3.62,2-7.43a78.3,78.3,0,0,0,.52-19.27V272l1.29-1.84.08.7a82.17,82.17,0,0,1-.42,20.12c-.47,3.65-1.38,8.35-3,10A1.38,1.38,0,0,1,98.14,301.42Zm-3.83-21.88c.46,5.11,1.09,11.54,1.92,16.14h0c.21,1.21.85,4.89,1.79,5.19.19.06.43,0,.69-.31,1.2-1.19,2.22-4.63,2.87-9.68a82.24,82.24,0,0,0,.49-19.28l-.36.52a78.93,78.93,0,0,1-.53,19.29c-.24,1.91-1,6.5-2.19,7.74a.79.79,0,0,1-.81.28c-.73-.23-1.12-1.69-1.65-4.66-.85-4.71-1.5-11.58-1.84-15.61Z" style="fill:#fff"></path><path d="M106.18,283.63c-1.23-8.86.11-16.79,3.73-20.41a26,26,0,0,1,2.46-2l.84-1.26,1.14,17.38c.27,4.09.66,5.29,1.43,4.52,1-1,1.9-3.9,2.35-7.83l.57.61c-.51,4.46-1.64,8-2.89,9.25-1,1-1.72.07-2.09-3.09-.69,4.22-1.72,6.91-3.21,8.39C108.41,291.24,107,289.48,106.18,283.63Zm7.33-5.2-1-15.54a15.37,15.37,0,0,0-2.43,2c-3,3-4.11,10-3,17.75.66,4.76,1.75,6.33,3.37,4.7C111.8,286,112.85,283,113.51,278.43Z" style="fill:#fff"></path><path d="M109,290.26a1.35,1.35,0,0,1-.44-.07c-1.21-.4-2-2.48-2.6-6.52h0c-1.27-9.12.19-17,3.81-20.64a25.09,25.09,0,0,1,2.44-2l1.26-1.87,1.19,18.16c.24,3.75.58,4.42.76,4.49,0,0,.08,0,.22-.14,1-1,1.83-3.9,2.27-7.67l.06-.57,1,1.11v.13c-.52,4.49-1.66,8.1-3,9.41a1.14,1.14,0,0,1-1.17.44c-.5-.18-.86-.85-1.13-2.12-.69,3.39-1.65,5.63-3,7A2.62,2.62,0,0,1,109,290.26Zm-2.51-6.67c.64,4.63,1.58,5.87,2.24,6.1.45.15,1-.1,1.63-.73,1.44-1.44,2.47-4.14,3.13-8.25l.31-1.87.22,1.89c.32,2.62.78,3.16,1,3.24s.45-.13.62-.3c1.2-1.2,2.3-4.72,2.8-9l-.09-.11C117.85,278.24,117,281,116,282a.73.73,0,0,1-.78.27c-.51-.19-.85-1.07-1.11-5L113,260.72l-.47.67a26.73,26.73,0,0,0-2.43,2c-3.49,3.49-4.9,11.22-3.65,20.18Zm2.82,4.66a1.07,1.07,0,0,1-.35-.06c-1-.33-1.67-2.08-2.15-5.49-1.13-8.05,0-14.94,3.09-18a15.75,15.75,0,0,1,2.47-2.05l.39-.25,1.06,16v0c-.67,4.59-1.74,7.65-3.18,9.09A2,2,0,0,1,109.27,288.25Zm3-24.88a15.47,15.47,0,0,0-2,1.73c-2.88,2.87-4,9.75-2.94,17.52.54,3.87,1.27,4.89,1.79,5.06q.47.17,1.14-.51c1.35-1.35,2.37-4.3,3-8.75Z" style="fill:#fff"></path><path d="M118.52,269.06c-1-7.46.29-14.74,3.19-17.63,2.17-2.17,3.51-.15,3.27,5.28l-.87.34c.21-4-.76-5.49-2.31-3.88-2.3,2.35-3.33,8.81-2.42,15.15.83,5.71,2.48,7.61,5.14,4.95,2-2,3.18-4.89,3.76-9.42l.6.58c-.63,5-1.95,8.32-4.22,10.58C121.41,278.26,119.46,275.91,118.52,269.06Z" style="fill:#fff"></path><path d="M122.08,276.72a1.88,1.88,0,0,1-.62-.11c-1.54-.51-2.58-3-3.2-7.51-1-7.56.3-14.9,3.26-17.86.84-.83,1.58-1.11,2.23-.83,1.44.64,1.61,3.78,1.5,6.31v.18l-1.41.54,0-.41c.14-2.78-.31-4-.78-4.2s-.77.2-1.08.52c-2.23,2.29-3.24,8.71-2.34,14.93.51,3.52,1.31,5.49,2.38,5.85.62.2,1.4-.15,2.3-1.05,2-2,3.11-4.84,3.68-9.27l.07-.53,1.08,1.05,0,.14c-.63,5-2,8.43-4.29,10.73A4.23,4.23,0,0,1,122.08,276.72Zm1.17-25.88a2.23,2.23,0,0,0-1.35.78c-2.85,2.85-4.13,10-3.12,17.41h0c.59,4.26,1.54,6.64,2.85,7.08.77.26,1.73-.18,2.84-1.29,2.19-2.18,3.5-5.46,4.13-10.29l-.13-.12c-.61,4.26-1.78,7.06-3.76,9-1.06,1.06-2,1.46-2.85,1.18-1.3-.43-2.19-2.48-2.74-6.27-.94-6.48.11-12.94,2.49-15.38.76-.79,1.33-.78,1.67-.64,1,.44,1.18,2.5,1.12,4.31l.32-.13c.12-3.14-.32-5.24-1.18-5.62A.72.72,0,0,0,123.25,250.84Z" style="fill:#fff"></path><path d="M129.07,260.76c-1.23-8.86.11-16.79,3.73-20.41a26.16,26.16,0,0,1,2.46-2l.84-1.25,1.14,17.37c.27,4.1.66,5.3,1.43,4.52,1-1,1.9-3.89,2.35-7.82l.57.61c-.51,4.46-1.64,8-2.89,9.25-1,1-1.72.07-2.09-3.09-.69,4.21-1.73,6.91-3.21,8.39C131.3,268.37,129.89,266.6,129.07,260.76Zm7.33-5.21-1-15.53a15.37,15.37,0,0,0-2.43,2c-3,3-4.11,10-3,17.75.66,4.76,1.75,6.32,3.37,4.7C134.69,263.1,135.74,260.11,136.4,255.55Z" style="fill:#fff"></path><path d="M131.85,267.39a1.35,1.35,0,0,1-.44-.07c-1.21-.41-2-2.48-2.6-6.52h0c-1.27-9.12.19-17,3.8-20.64a25.86,25.86,0,0,1,2.45-2l1.26-1.87,1.19,18.16c.24,3.75.58,4.42.76,4.49,0,0,.08,0,.21-.15,1-1,1.84-3.9,2.28-7.66l.06-.57,1.05,1.11v.13c-.52,4.49-1.66,8.1-3,9.41a1.13,1.13,0,0,1-1.17.43c-.5-.17-.86-.84-1.13-2.12-.69,3.4-1.65,5.64-3,7A2.62,2.62,0,0,1,131.85,267.39Zm-2.52-6.67c.65,4.63,1.58,5.87,2.25,6.1.45.14,1-.1,1.63-.73,1.44-1.44,2.47-4.14,3.13-8.25l.31-1.87.22,1.88c.32,2.63.78,3.16,1,3.25s.44-.13.62-.31c1.2-1.2,2.3-4.71,2.8-9l-.09-.11c-.48,3.66-1.35,6.41-2.36,7.42a.73.73,0,0,1-.78.27c-.51-.19-.85-1.07-1.11-5l-1.08-16.59-.47.67a26.14,26.14,0,0,0-2.43,2c-3.5,3.5-4.9,11.24-3.66,20.19Zm2.83,4.66a1,1,0,0,1-.35-.06c-1-.33-1.67-2.08-2.15-5.5-1.13-8,.05-14.93,3.09-18a15.31,15.31,0,0,1,2.47-2l.39-.26,1.06,16v0c-.67,4.59-1.74,7.65-3.18,9.09A2,2,0,0,1,132.16,265.38Zm3-24.88a17.06,17.06,0,0,0-2,1.72c-2.88,2.88-4,9.76-2.94,17.53.54,3.87,1.27,4.89,1.79,5.06.3.1.69-.07,1.13-.51,1.36-1.35,2.37-4.3,3-8.76Z" style="fill:#fff"></path><path d="M148.35,245c-.53,4.36-1.62,8-3.11,9.47s-2.77.19-3.1-4.86l-1-15.4-1.77,1.76-.1-1.66,1.77-1.76-.57-8,.85-1.21.56,8.35,2.71-2.71.11,1.66L142,233.31l1,15.2c.32,4.58,1.26,4.93,2.25,4,1.22-1.23,2.11-4.41,2.52-8.07Z" style="fill:#fff"></path><path d="M144.14,255.31a1.1,1.1,0,0,1-.4-.08c-1-.38-1.65-2.28-1.86-5.63l-1-14.82-1.76,1.77-.16-2.37,1.77-1.77-.56-8,1.34-1.9.57,8.51,2.71-2.7.15,2.37-2.68,2.68,1,15.08c.24,3.46.82,4,1.06,4.13s.52-.15.73-.35c1.1-1.1,2-4.06,2.45-7.91l.06-.54,1.08,1.06V245c-.57,4.66-1.73,8.16-3.19,9.62A1.91,1.91,0,0,1,144.14,255.31Zm-2.81-21.74,1.08,16c.27,4.25,1.15,5,1.52,5.16s.69,0,1.13-.48c1.36-1.36,2.45-4.7,3-9.18L148,245c-.47,3.76-1.39,6.54-2.53,7.68-.47.47-.91.63-1.3.48s-1.15-.85-1.4-4.6l-1-15.32,2.68-2.68-.06-1-2.7,2.7-.55-8.18-.36.51.56,8-1.77,1.76.06,1Z" style="fill:#fff"></path><path d="M147,219.14a3.61,3.61,0,0,1,.6-2.73c.43-.43.81,0,.91.86a3.72,3.72,0,0,1-.58,2.7C147.49,220.42,147.11,220,147,219.14Zm7.86,19.32c-.53,4.36-1.59,8-3.06,9.42s-2.57-.08-2.91-5l-1.12-17.09.82-1.18,1.16,17.12c.3,4.53,1,5.25,2,4.23,1.25-1.24,2.08-4.43,2.51-8Z" style="fill:#fff"></path><path d="M150.79,248.7a1,1,0,0,1-.35-.06c-1-.37-1.56-2.26-1.81-5.79l-1.13-17.19,1.32-1.87L150,241.66c.24,3.58.71,4.28,1,4.38s.41-.14.58-.31c1.09-1.08,2-4,2.43-7.89l.06-.54,1.08,1.06v.13c-.57,4.66-1.71,8.15-3.14,9.58A1.77,1.77,0,0,1,150.79,248.7Zm-2.74-22.89,1.12,17c.29,4.27,1,5.17,1.45,5.33s.61,0,1-.45c1.34-1.33,2.42-4.66,3-9.14l-.12-.11c-.31,2.43-1,6.18-2.51,7.66-.15.16-.63.63-1.15.44s-1.05-.91-1.32-4.84l-1.1-16.37Zm-.47-5.38a.49.49,0,0,1-.19,0c-.34-.12-.57-.54-.64-1.22a3.78,3.78,0,0,1,.67-2.95.66.66,0,0,1,.7-.21c.35.12.59.57.66,1.23a4,4,0,0,1-.65,2.92A.78.78,0,0,1,147.58,220.43Zm.36-3.92a.23.23,0,0,0-.14.09,3.35,3.35,0,0,0-.53,2.5h0c.05.52.21.76.29.79s.1,0,.18-.11a3.49,3.49,0,0,0,.5-2.48c-.05-.52-.21-.76-.3-.79Z" style="fill:#fff"></path><path d="M167.52,225.82c-.46,3.93-1.49,7.21-3,8.69a1.55,1.55,0,0,1-2.13.36,11.89,11.89,0,0,1-2.59,5c-2.36,2.35-4,.28-4.83-5.66-1.14-8,.11-16.16,3.36-19.41,2.38-2.37,4-.43,4.81,5.46a37.47,37.47,0,0,1-.3,12.85c.54.36,1,.22,1.55-.3,1.29-1.3,2.07-3.9,2.51-7.58ZM162.3,221c-.67-4.82-2-6.28-3.74-4.59-2.67,2.61-3.69,9.89-2.71,17,.68,4.87,2.05,6.38,3.73,4.76C162.21,235.72,163.32,228.3,162.3,221Z" style="fill:#fff"></path><path d="M158.07,241.09a1.47,1.47,0,0,1-.51-.08c-1.33-.45-2.26-2.66-2.84-6.76-1.18-8.35.24-16.42,3.44-19.62.91-.91,1.75-1.24,2.5-1,1.3.43,2.2,2.59,2.76,6.59a37.88,37.88,0,0,1-.26,12.76c.27.12.59.11,1.06-.36,1.19-1.19,2-3.62,2.44-7.43l.06-.53,1.08,1.05,0,.13c-.48,4.17-1.59,7.39-3.05,8.85a1.83,1.83,0,0,1-2.16.56,11.82,11.82,0,0,1-2.56,4.81A2.92,2.92,0,0,1,158.07,241.09Zm2.09-27a2.55,2.55,0,0,0-1.62.91c-3.09,3.1-4.45,11-3.29,19.18.67,4.77,1.72,6.07,2.48,6.33.54.18,1.18-.1,1.9-.82a11.6,11.6,0,0,0,2.53-4.89l.1-.34.3.19a1.31,1.31,0,0,0,1.8-.33c1.35-1.36,2.4-4.41,2.88-8.4l-.12-.12c-.48,3.63-1.31,6-2.52,7.21a1.39,1.39,0,0,1-1.88.34l-.16-.1,0-.18a37.06,37.06,0,0,0,.29-12.76c-.65-4.65-1.66-5.92-2.4-6.16A.88.88,0,0,0,160.16,214.09Zm-1.8,25a1.29,1.29,0,0,1-.43-.07c-1.1-.38-1.89-2.24-2.35-5.54-1-7.43.16-14.69,2.79-17.27a1.91,1.91,0,0,1,1.92-.68c1.07.37,1.81,2.15,2.27,5.42,1.06,7.55-.11,14.88-2.79,17.44A2.1,2.1,0,0,1,158.36,239.12Zm1.5-23.09a1.71,1.71,0,0,0-1.11.6c-2.53,2.46-3.63,9.53-2.64,16.81.56,4,1.49,4.93,2,5.1s.81,0,1.3-.5c2.52-2.41,3.66-9.72,2.63-17h0c-.55-4-1.44-4.82-1.92-5A.69.69,0,0,0,159.86,216Z" style="fill:#fff"></path><path d="M180.49,212.85c-.53,4.49-1.55,7.92-2.79,9.17s-2.06-.25-2.37-5l-.64-10c-.26-4-1.08-5.58-2.68-4-1.13,1.13-2.64,4.34-3.78,9.08l1.19,17.79-.87.87-1.63-24.13.85-1.21.31,4.59c1.19-4.67,2.54-7.43,3.93-8.82,2.07-2.07,3.19.05,3.46,4.38l.67,10c.33,4.74.78,5.18,1.55,4.4.95-.94,1.78-3.95,2.21-7.68Z" style="fill:#fff"></path><path d="M168.32,231.35l-1.67-24.82,1.34-1.89.25,3.74c1-3.57,2.24-6.06,3.58-7.4.76-.76,1.46-1,2.07-.8,1,.39,1.65,2.19,1.85,5.35l.67,10c.26,3.73.59,4.4.77,4.46,0,0,.08,0,.33-.22.86-.87,1.7-3.82,2.12-7.53l.07-.54,1.07,1.06v.13c-.56,4.65-1.6,8.05-2.87,9.32-.46.45-.89.61-1.28.46-.56-.21-1.25-1-1.55-5.64l-.64-10c-.22-3.46-.83-4.19-1.17-4.32s-.75.21-1.05.51c-.94.93-2.47,3.83-3.71,8.92L169.7,230Zm-1.13-24.66,1.59,23.45.37-.37L168,212.06v0c1.05-4.36,2.53-7.89,3.85-9.21q.9-.9,1.62-.63c.84.32,1.32,1.84,1.51,4.79l.64,10c.28,4.21.88,5.05,1.21,5.17s.51-.14.71-.34c1.16-1.16,2.17-4.47,2.7-8.88l-.11-.11c-.47,3.66-1.29,6.37-2.22,7.3-.13.14-.49.5-.89.35s-.84-1-1.11-4.92l-.67-10c-.18-2.81-.73-4.59-1.51-4.88-.4-.15-.9.08-1.5.68-1.46,1.46-2.76,4.38-3.86,8.69l-.41,1.62-.37-5.5Z" style="fill:#fff"></path><path d="M183.4,214.72l-.1-1.84a2.84,2.84,0,0,0,2.74-1c1.6-1.6,2.48-4.42,1.94-8.18-.72-4.95-4-4.27-5.24-11.27l-.05,0c-1.13,6.73-.24,13.45-1,19.24l-.6-.58c.7-5.47-.21-13.41,1.21-20.37l.86-1.15c1.12,8.89,4.73,6.59,5.67,13.14a17.24,17.24,0,0,1,.05,5c1.63-1.21,2.79-3.61,3.28-7.65l.6.59c-.6,5-2.19,7.79-4.42,9.31a8.77,8.77,0,0,1-2.1,3.57A3.41,3.41,0,0,1,183.4,214.72Z" style="fill:#fff"></path><path d="M183.75,215a2.56,2.56,0,0,1-.39,0l-.21,0-.14-2.44.37.12a2.69,2.69,0,0,0,2.47-1c1.67-1.68,2.35-4.58,1.87-8a8.06,8.06,0,0,0-2.13-4.44,12.47,12.47,0,0,1-2.83-5.48,73.68,73.68,0,0,0-.45,9.55,64.44,64.44,0,0,1-.38,8.38l-.07.53-1.07-1.05,0-.13a66.92,66.92,0,0,0,.31-7.68,67,67,0,0,1,.9-12.7l0-.11,1.25-1.68.08.65c.6,4.74,1.89,6.22,3.13,7.65a9.06,9.06,0,0,1,2.55,5.49,18.41,18.41,0,0,1,.13,4.35c1.36-1.35,2.26-3.71,2.67-7l.07-.54,1.07,1.06,0,.13c-.55,4.64-2,7.73-4.46,9.45a8.92,8.92,0,0,1-2.13,3.59A4,4,0,0,1,183.75,215Zm-.09-.53a3.34,3.34,0,0,0,2.37-1.17,8.47,8.47,0,0,0,2-3.46l0-.09.08,0c2.34-1.6,3.74-4.54,4.29-9l-.12-.12c-.52,3.62-1.61,6-3.32,7.3l-.53.38.1-.64a16.75,16.75,0,0,0,0-4.89,8.55,8.55,0,0,0-2.42-5.21c-1.18-1.36-2.51-2.89-3.17-7.28l-.43.58a66.88,66.88,0,0,0-.87,12.55,71,71,0,0,1-.31,7.61l.12.11a69.37,69.37,0,0,0,.31-7.78,65.62,65.62,0,0,1,.65-10.93v-.09l.42-.42.14.46a12.43,12.43,0,0,0,3,6.57,8.53,8.53,0,0,1,2.24,4.71c.52,3.55-.22,6.62-2,8.41a3.3,3.3,0,0,1-2.63,1.17Z" style="fill:#fff"></path></g><g id="freepik--Star--inject-76"><path d="M130,318.58l11.36-10.75a3.51,3.51,0,0,0,1.15-2.47l.11-13.77c0-2.19,2.53-4.07,4.24-3.19l10.82,5.54a2.54,2.54,0,0,0,2.41-.21l13.07-7.65c2.07-1.22,4,.28,3.26,2.53l-4.67,14.17a2.39,2.39,0,0,0,.33,2.34l8,9c1.27,1.44,0,4.25-2.22,4.76l-13.7,3.22a3.61,3.61,0,0,0-2.2,1.66L153.79,337c-1.29,2.11-4,2.35-4.64.41l-3.8-12.18a1.84,1.84,0,0,0-1.69-1.32l-13-.86C128.59,323,128.21,320.28,130,318.58Z" style="opacity:0.2"></path><path d="M132.13,317.85l11.36-10.75a3.49,3.49,0,0,0,1.15-2.47l.11-13.76c0-2.19,2.53-4.08,4.24-3.2l10.82,5.54a2.54,2.54,0,0,0,2.41-.21l13.07-7.65c2.07-1.21,4,.28,3.26,2.53l-4.67,14.18a2.38,2.38,0,0,0,.33,2.33l8,9.05c1.27,1.43,0,4.25-2.22,4.76l-13.7,3.21a3.69,3.69,0,0,0-2.2,1.66l-8.15,13.24c-1.29,2.1-4,2.34-4.64.41l-3.8-12.19a1.82,1.82,0,0,0-1.69-1.31l-13-.86C130.71,322.22,130.33,319.56,132.13,317.85Z" style="fill:#BA68C8"></path></g></g></g><g id="freepik--sea-stars--inject-76"><g id="freepik--Starfish--inject-76"><path d="M253.89,376.62a52.69,52.69,0,0,0-6.67-3.1c-2.43-.86-1.76-1.73-.25-2.2a18.24,18.24,0,0,1,5.91-.39c5.67.51,7.76,1.56,7.76,1.56a18.53,18.53,0,0,1,8.81-3.63c1.88-.18,4.34-.21,3.95.75-.49,1.23-3.22,2.26-5.5,5.36a69.27,69.27,0,0,1,9.23,4c4.15,2.36,2.21,3.37-.86,3.31-2.83-.06-8.87.1-8.87.1s.72,2.59,1.46,6.82c.58,3.34-2.79,1-4.55-.93-2.52-2.8-5.07-5.89-5.07-5.89s-4.56.78-9.46,2.1c-3.52.95-6.29,2-4.07-1.57S253.89,376.62,253.89,376.62Z" style="fill:#f28f8f"></path><path d="M264.48,386.66c-1.31-1.5-4.62-6.29-4.62-6.29s-9.4,2.62-11.75,3.31-3,.41-2.77-.16c-1.47,2.81,1.16,1.81,4.44.92,4.9-1.32,9.46-2.1,9.46-2.1s2.55,3.09,5.07,5.89c1.31,1.46,3.5,3.1,4.3,2.48C267.23,390.63,265.79,388.16,264.48,386.66Z" style="fill:#b16668"></path><path d="M279.45,381.38c-.78.5-1.9.31-4.83,0s-7.67-1-7.67-1l.45,2s6-.16,8.87-.1C277.9,382.27,279.21,382,279.45,381.38Z" style="fill:#b16668"></path><path d="M246.35,371.55c-1,.46-1.19,1.24.87,2a52.69,52.69,0,0,1,6.67,3.1l1.93-1s-2.73-1.18-5.45-2C247.87,372.83,245.52,372.27,246.35,371.55Z" style="fill:#b16668"></path><path d="M267.9,375c2.28-3.1,5-4.13,5.5-5.36a.39.39,0,0,0-.17-.53h0s.4.5-1.8,1.45a17.06,17.06,0,0,0-4.48,3.35C266.41,374.56,267.9,375,267.9,375Z" style="fill:#b16668"></path></g><g id="freepik--starfish--inject-76"><path d="M192.68,393.12a39.69,39.69,0,0,0-5-2.34c-1.83-.65-1.32-1.3-.19-1.66a14.18,14.18,0,0,1,4.46-.29c4.27.39,5.85,1.18,5.85,1.18a14,14,0,0,1,6.65-2.74c1.41-.14,3.27-.16,3,.57-.37.92-2.43,1.7-4.15,4a52.92,52.92,0,0,1,7,3c3.13,1.78,1.67,2.55-.65,2.5-2.13,0-6.68.07-6.68.07s.53,2,1.09,5.15c.44,2.52-2.1.77-3.43-.71-1.9-2.11-3.82-4.44-3.82-4.44s-3.44.59-7.14,1.59c-2.65.71-4.74,1.53-3.06-1.19S192.68,393.12,192.68,393.12Z" style="fill:#f28f8f"></path><path d="M200.67,400.69c-1-1.13-3.49-4.74-3.49-4.74s-7.08,2-8.85,2.49-2.29.32-2.09-.12c-1.12,2.12.87,1.36,3.34.7,3.7-1,7.14-1.59,7.14-1.59s1.92,2.33,3.82,4.44c1,1.1,2.64,2.35,3.25,1.88C202.74,403.69,201.66,401.83,200.67,400.69Z" style="fill:#b16668"></path><path d="M212,396.71c-.59.38-1.44.24-3.64,0s-5.79-.74-5.79-.74l.35,1.48s4.55-.11,6.68-.07C210.79,397.38,211.78,397.18,212,396.71Z" style="fill:#b16668"></path><path d="M187,389.3c-.74.35-.9.93.65,1.48a39.69,39.69,0,0,1,5,2.34l1.46-.73s-2.06-.89-4.11-1.54C188.15,390.26,186.37,389.84,187,389.3Z" style="fill:#b16668"></path><path d="M203.25,391.87c1.72-2.33,3.78-3.11,4.15-4a.32.32,0,0,0-.13-.41h0s.3.38-1.36,1.09a13.11,13.11,0,0,0-3.38,2.54C202.13,391.57,203.25,391.87,203.25,391.87Z" style="fill:#b16668"></path></g></g><g id="freepik--Clouds--inject-76"><g id="freepik--clouds--inject-76"><path d="M149,74.22l-6,3.47a7.16,7.16,0,0,0,.05-.8V75.16c0-3.1-2.17-4.35-4.85-2.81a9.44,9.44,0,0,0-2.89,2.79c-.44-3.9-3.49-5.34-7.2-3.2a16,16,0,0,0-7.26,12.57v2.6a6.71,6.71,0,0,0,.62,3l-5,2.88a6,6,0,0,0-2.69,4.66c0,1.72,1.21,2.42,2.69,1.56L149,80.44a6,6,0,0,0,2.69-4.66C151.64,74.06,150.43,73.37,149,74.22Z" style="fill:#ebebeb"></path><path d="M109.27,58.28,106,59.56v-7.3c0-5.78-4.61-7.17-9.62-4.28h0c-5,2.9-9.06,9.93-9.06,15.71v1.06a4.83,4.83,0,0,0-4.21.65h0a14.41,14.41,0,0,0-6.53,11.3v.48l-4.61,2.66a9.48,9.48,0,0,0-4.3,7.44c0,2.74,1.92,3.85,4.3,2.48L109.27,68.2a9.5,9.5,0,0,0,4.3-7.44C113.57,58,111.64,56.91,109.27,58.28Z" style="fill:#ebebeb"></path></g></g></svg>