<svg xmlns="http://www.w3.org/2000/svg" xmlns:xlink="http://www.w3.org/1999/xlink" viewBox="0 0 500 500"><defs><clipPath id="freepik--clip-path--inject-75"><path d="M344.78,364.67l9.6-116c3.11-37.64-24.87-68.15-62.51-68.15h-4.82c-37.64,0-70.68,30.51-73.79,68.15l-9.6,116Z" style="fill:#fff"></path></clipPath></defs><g id="freepik--background-simple--inject-75"><path d="M393.63,89s-37-35.59-91.65-25.75-81.84,52.13-115.7,80c-17.73,14.56-41.9,18.45-62.2,29.11-64.91,34.06-66,122.76-23.23,159.85C137.91,364.24,188,371.46,256,355.76S372.44,331.27,420.08,274,438.8,136.86,393.63,89Z" style="fill:#92E3A9"></path><path d="M393.63,89s-37-35.59-91.65-25.75-81.84,52.13-115.7,80c-17.73,14.56-41.9,18.45-62.2,29.11-64.91,34.06-66,122.76-23.23,159.85C137.91,364.24,188,371.46,256,355.76S372.44,331.27,420.08,274,438.8,136.86,393.63,89Z" style="fill:#fff;opacity:0.75"></path></g><g id="freepik--Floor--inject-75"><ellipse cx="259.19" cy="404.33" rx="204.67" ry="37.87" style="fill:#92E3A9"></ellipse><ellipse cx="259.19" cy="404.33" rx="204.67" ry="37.87" style="fill:#fff;opacity:0.5"></ellipse><line x1="438.43" y1="360.8" x2="59.21" y2="360.8" style="fill:none;stroke:#263238;stroke-miterlimit:10"></line><line x1="455.38" y1="360.8" x2="449.13" y2="360.8" style="fill:none;stroke:#263238;stroke-miterlimit:10"></line></g><g id="freepik--Plant--inject-75"><path d="M140.85,101.54s0-7.84-11-18.83-18-17.26-18-17.26-5.49,18,4.7,29,24.33,21.18,24.33,21.18Z" style="fill:#92E3A9"></path><path d="M124.91,150.54s0-7.85-11-18.83-18-17.26-18-17.26-5.5,18,4.7,29,24.33,21.18,24.33,21.18Z" style="fill:#92E3A9"></path><path d="M140.16,114.9s.82-7.8,12.91-17.56,19.77-15.26,19.77-15.26,3.55,18.53-7.75,28.37S138.66,129,138.66,129Z" style="fill:#92E3A9"></path><path d="M120.9,172.77s1.64-7.67,14.68-16.11,21.26-13.1,21.26-13.1,1.59,18.8-10.68,27.4-28.22,15.62-28.22,15.62Z" style="fill:#92E3A9"></path><path d="M124.52,235.86s0-7.84,11-18.83,18.05-17.26,18.05-17.26,5.49,18-4.71,29S124.52,250,124.52,250Z" style="fill:#92E3A9"></path><path d="M124.34,251.26s1.11-7.77-8.2-20.2-15.41-19.65-15.41-19.65-8,17.08.53,29.4,21.07,24.43,21.07,24.43Z" style="fill:#92E3A9"></path><path d="M113.5,296.9s0-7.85,11-18.83,18-17.26,18-17.26,5.5,18-4.7,29S113.5,311,113.5,311Z" style="fill:#92E3A9"></path><path d="M120.84,338.28s-2-7.59,5.86-21S139.78,296,139.78,296s9.88,16.07,2.8,29.28-18.16,26.65-18.16,26.65Z" style="fill:#92E3A9"></path><path d="M141.84,99.53a221.19,221.19,0,0,1-3,24.36c-4.34,22.43-15.19,36.91-19.54,57.17s8.13,46.37,4.79,72.39S110.61,294,113.5,311.32s18.1,64.4,18.1,64.4" style="fill:none;stroke:#263238;stroke-linecap:round;stroke-linejoin:round"></path><line x1="140.05" y1="120.12" x2="151.88" y2="111.04" style="fill:none;stroke:#263238;stroke-linecap:round;stroke-linejoin:round"></line><line x1="140.6" y1="109.66" x2="135.64" y2="100.85" style="fill:none;stroke:#263238;stroke-linecap:round;stroke-linejoin:round"></line><path d="M120,180.13s9.91-7.43,20.1-14.87" style="fill:none;stroke:#263238;stroke-linecap:round;stroke-linejoin:round"></path><path d="M124.91,164.66s-8.26-16.19-17.62-26.92" style="fill:none;stroke:#263238;stroke-linecap:round;stroke-linejoin:round"></path><path d="M124.91,247a122.37,122.37,0,0,1,21.19-28.35" style="fill:none;stroke:#263238;stroke-linecap:round;stroke-linejoin:round"></path><path d="M123,258s-5-11.83-10.74-20.37-6.6-9.63-6.6-9.63" style="fill:none;stroke:#263238;stroke-linecap:round;stroke-linejoin:round"></path><path d="M113.5,311.32a131.17,131.17,0,0,1,8.93-18.05A115.33,115.33,0,0,1,134,278.13" style="fill:none;stroke:#263238;stroke-linecap:round;stroke-linejoin:round"></path><path d="M124.42,351.94s-1.16-9.4,3-17.38,8.81-18.44,10.74-22.57" style="fill:none;stroke:#263238;stroke-linecap:round;stroke-linejoin:round"></path><path d="M68.92,206.36s-.85-4.92,4.84-13,9.44-12.79,9.44-12.79,5.41,10.72.2,18.72a122.79,122.79,0,0,1-13,15.92Z" style="fill:#92E3A9"></path><path d="M84.23,235.35s-.85-4.92,4.85-13,9.44-12.78,9.44-12.78,5.4,10.72.2,18.71a122.46,122.46,0,0,1-13,15.93Z" style="fill:#92E3A9"></path><path d="M70.8,214.66s-1.36-4.8-10-9.61-14-7.42-14-7.42-.22,12,7.94,16.94a122.24,122.24,0,0,0,18.57,8.73Z" style="fill:#92E3A9"></path><path d="M89.16,248.86s-1.86-4.64-11-8.51-14.75-5.91-14.75-5.91,1,12,9.67,16a121.88,121.88,0,0,0,19.4,6.73Z" style="fill:#92E3A9"></path><path d="M93.74,288.81s-.85-4.92-8.93-10.61-13.19-8.87-13.19-8.87-1.49,11.91,6.1,17.69a123.38,123.38,0,0,0,17.55,10.65Z" style="fill:#92E3A9"></path><path d="M95.53,298.45S94,293.7,98.47,284.89s7.53-14,7.53-14,6.87,9.84,2.86,18.49A122.12,122.12,0,0,1,98.3,307Z" style="fill:#92E3A9"></path><path d="M109.31,338.13s.57-5,8.31-11.1,12.67-9.61,12.67-9.61,2.16,11.81-5.09,18a122.08,122.08,0,0,1-16.91,11.63Z" style="fill:#92E3A9"></path><path d="M107.27,325.89s-.85-4.92-8.93-10.61-13.19-8.87-13.19-8.87-1.48,11.91,6.1,17.69a123.2,123.2,0,0,0,17.56,10.65Z" style="fill:#92E3A9"></path><path d="M107.17,352.64s.42-5-6-12.54S90.7,328.19,90.7,328.19s-4.45,11.14,1.42,18.66a123.16,123.16,0,0,0,14.29,14.74Z" style="fill:#92E3A9"></path><path d="M68.08,205.2a140.86,140.86,0,0,0,4.53,15c5.16,13.6,13.53,21.5,18.46,33.73s-.06,30,4.85,45.91,12.85,23.94,12.92,35.14-4.36,42.35-4.36,42.35" style="fill:none;stroke:#263238;stroke-linecap:round;stroke-linejoin:round"></path><line x1="71.44" y1="217.92" x2="63.03" y2="213.51" style="fill:none;stroke:#263238;stroke-linecap:round;stroke-linejoin:round"></line><line x1="69.96" y1="211.42" x2="72.11" y2="205.36" style="fill:none;stroke:#263238;stroke-linecap:round;stroke-linejoin:round"></line><path d="M90.55,253.37s-7-3.59-14.21-7.14" style="fill:none;stroke:#263238;stroke-linecap:round;stroke-linejoin:round"></path><path d="M85.77,244.21s3.42-11.05,8.12-18.8" style="fill:none;stroke:#263238;stroke-linecap:round;stroke-linejoin:round"></path><path d="M94.71,295.85a78.36,78.36,0,0,0-16.37-15.48" style="fill:none;stroke:#263238;stroke-linecap:round;stroke-linejoin:round"></path><path d="M97.11,302.55a88,88,0,0,1,4.52-13.94c2.7-6,3.1-6.76,3.1-6.76" style="fill:none;stroke:#263238;stroke-linecap:round;stroke-linejoin:round"></path><path d="M108.46,343.43s5.57-6.83,9-9.39a47.69,47.69,0,0,0,5.87-5.1" style="fill:none;stroke:#263238;stroke-linecap:round;stroke-linejoin:round"></path><path d="M108.84,334.93a83.46,83.46,0,0,0-7.56-10.35,73.6,73.6,0,0,0-8.89-8.23" style="fill:none;stroke:#263238;stroke-linecap:round;stroke-linejoin:round"></path><path d="M106.41,361.59A21.45,21.45,0,0,0,102.66,351c-3.46-4.56-7.53-10.61-9.19-13" style="fill:none;stroke:#263238;stroke-linecap:round;stroke-linejoin:round"></path><path d="M82,371.85H153.9a0,0,0,0,1,0,0v26.49a3.5,3.5,0,0,1-3.5,3.5H85.55a3.5,3.5,0,0,1-3.5-3.5V371.85A0,0,0,0,1,82,371.85Z" style="fill:#263238;stroke:#263238;stroke-linecap:round;stroke-linejoin:round"></path><path d="M153.27,381.22H82.05a5.62,5.62,0,0,1-5.63-5.62h0A5.63,5.63,0,0,1,82.05,370h71.22a5.62,5.62,0,0,1,5.62,5.62h0A5.61,5.61,0,0,1,153.27,381.22Z" style="fill:#263238;stroke:#263238;stroke-linecap:round;stroke-linejoin:round"></path><line x1="84.87" y1="381.47" x2="136.59" y2="381.47" style="fill:none;stroke:#fff;stroke-linecap:round;stroke-linejoin:round"></line><line x1="141.46" y1="381.47" x2="149.98" y2="381.47" style="fill:none;stroke:#fff;stroke-linecap:round;stroke-linejoin:round"></line></g><g id="freepik--Picture--inject-75"><polygon points="388.53 242.1 435.75 406.77 372.59 406.77 388.53 242.1" style="fill:#263238;stroke:#263238;stroke-linecap:round;stroke-linejoin:round"></polygon><polygon points="385.21 242.1 432.43 406.77 369.28 406.77 385.21 242.1" style="fill:#263238;stroke:#263238;stroke-linecap:round;stroke-linejoin:round"></polygon><polygon points="384.89 426.43 166.79 426.43 189.99 146.09 408.1 146.09 384.89 426.43" style="fill:#263238;stroke:#263238;stroke-linecap:round;stroke-linejoin:round"></polygon><polygon points="376.61 426.43 158.5 426.43 181.7 146.09 399.81 146.09 376.61 426.43" style="fill:#fff;stroke:#263238;stroke-linecap:round;stroke-linejoin:round"></polygon><polygon points="369.37 416.02 167.46 416.02 188.94 156.5 390.85 156.5 369.37 416.02" style="fill:#fff;stroke:#263238;stroke-linecap:round;stroke-linejoin:round"></polygon><polygon points="192.02 161.44 390.44 161.44 390.85 156.5 188.94 156.5 167.46 416.02 170.95 416.02 192.02 161.44" style="fill:#263238;stroke:#263238;stroke-linecap:round;stroke-linejoin:round"></polygon><polygon points="367.77 387.64 176.8 387.64 194.74 363.24 353.88 363.24 367.77 387.64" style="fill:#92E3A9;stroke:#263238;stroke-linecap:round;stroke-linejoin:round"></polygon><path d="M344.78,364.67l9.6-116c3.11-37.64-24.87-68.15-62.51-68.15h-4.82c-37.64,0-70.68,30.51-73.79,68.15l-9.6,116Z" style="fill:#fff"></path><g style="clip-path:url(#freepik--clip-path--inject-75)"><path d="M344.78,364.67l9.6-116c3.11-37.64-24.87-68.15-62.51-68.15h-4.82c-37.64,0-70.68,30.51-73.79,68.15l-9.6,116Z" style="opacity:0.5"></path></g><path d="M294.07,167.42h-7c-43.42,0-81.52,35.19-85.12,78.61l-9.82,118.64H356.35L366.17,246C369.76,202.61,337.48,167.42,294.07,167.42Zm50.71,197.25H203.66l9.6-116c3.11-37.64,36.15-68.15,73.79-68.15h4.82c37.64,0,65.62,30.51,62.51,68.15Z" style="fill:#fff;stroke:#263238;stroke-linecap:round;stroke-linejoin:round"></path><path d="M241.52,191.81a75.42,75.42,0,0,1,45-15.28h6.55a64.89,64.89,0,0,1,43.07,15.8l3.79-4.23a69.87,69.87,0,0,0-46.41-17H287a81.22,81.22,0,0,0-48.75,16.67Z" style="fill:#92E3A9;stroke:#263238;stroke-linecap:round;stroke-linejoin:round"></path><path d="M232.51,192.43c-15.39,13.79-25.86,33.1-27.63,54.45l-.23,2.75a2.48,2.48,0,0,0,2.51,2.73,3,3,0,0,0,3-2.73l.23-2.75c1.63-19.73,11.28-37.59,25.47-50.38Z" style="fill:#92E3A9;stroke:#263238;stroke-linecap:round;stroke-linejoin:round"></path><path d="M344.83,192.84,341,197.08c11.73,12.75,18.19,30.37,16.58,49.8a2.48,2.48,0,0,0,2.51,2.73,3,3,0,0,0,2.95-2.73C364.81,225.74,357.69,206.6,344.83,192.84Z" style="fill:#92E3A9;stroke:#263238;stroke-linecap:round;stroke-linejoin:round"></path><path d="M214.42,241.19a5.62,5.62,0,0,0-5.69-6.21,6.88,6.88,0,0,0-6.73,6.21,5.63,5.63,0,0,0,5.7,6.21A6.87,6.87,0,0,0,214.42,241.19Z" style="fill:#fff;stroke:#263238;stroke-linecap:round;stroke-linejoin:round"></path><path d="M212.45,241.19a3.85,3.85,0,0,0-3.89-4.24,4.68,4.68,0,0,0-4.58,4.24,3.84,3.84,0,0,0,3.88,4.24A4.7,4.7,0,0,0,212.45,241.19Z" style="fill:#fff;stroke:#263238;stroke-linecap:round;stroke-linejoin:round"></path><path d="M367.17,241.41a5.57,5.57,0,0,0-5.63-6.14,6.8,6.8,0,0,0-6.65,6.14,5.57,5.57,0,0,0,5.63,6.14A6.8,6.8,0,0,0,367.17,241.41Z" style="fill:#fff;stroke:#263238;stroke-linecap:round;stroke-linejoin:round"></path><path d="M365.22,241.41a3.8,3.8,0,0,0-3.84-4.19,4.65,4.65,0,0,0-4.54,4.19,3.8,3.8,0,0,0,3.84,4.19A4.64,4.64,0,0,0,365.22,241.41Z" style="fill:#fff;stroke:#263238;stroke-linecap:round;stroke-linejoin:round"></path><path d="M314,232.72a10.87,10.87,0,0,1,4.33-.12c1.76.48,1.89,3.24,4.41,9s3.44,15,8.79,25.8,4.7,49.08,4.7,49.08-1.74-2.28-3.72-1.56-2.47,2.4-4.38,2.28-3-1.32-4.32-1.44-2.07,1.8-4.11,1.8a10.41,10.41,0,0,1-4-1s-5.8-2.4-8.88-1.44-4.19,1.32-5,1-1.5-.72-1.5-.72,5.15-39.12,9.57-51.84,5.61-15.6,6-19.92-2.73-10.44-2.73-10.44Z" style="fill:#fff;stroke:#263238;stroke-linecap:round;stroke-linejoin:round"></path><line x1="316.42" y1="250.52" x2="314.26" y2="273.79" style="fill:none;stroke:#263238;stroke-linecap:round;stroke-linejoin:round"></line><path d="M314.32,233.56s3.59-.08,4.32,1.4,4.72,15.41,6.27,21.09a108.5,108.5,0,0,1,2.43,12" style="fill:#fff;stroke:#263238;stroke-linecap:round;stroke-linejoin:round"></path><path d="M314.47,234.65a6.94,6.94,0,0,1,3.3,4.28c.62,2.87.72,21.32.67,21.94" style="fill:#fff;stroke:#263238;stroke-linecap:round;stroke-linejoin:round"></path><path d="M319.17,242.74s3,17.66,3,21.32" style="fill:none;stroke:#263238;stroke-linecap:round;stroke-linejoin:round"></path><path d="M301.33,256.91a15.43,15.43,0,0,1,.4,3.89,5.82,5.82,0,0,1-2.34,4.63c-2,1.37-9.7.84-12.76,5.59s-1.93,13.86-2.41,15.81-1.4,9.83-1.92,11.32-1.67,7.68-3.68,12.23-3.33,8-4.37,10.41a9.5,9.5,0,0,0-1,3.58s2.92-.71,3.15-1.17,9.7-15,11.14-19,2.65-9.23,3.32-11.84a38.46,38.46,0,0,0,.84-3.84l2.14,4-.08,4.17s5.54,3.77,20.63-.07l.78-4.81s3.2-4.82,3.73-6.51,1-3.45,1-3.45-.11,16.33,1.64,17.89,5.72,1.63,6.11-3.83,1.05-21.34-1.77-25.7-8.49-4.31-11.63-4.9-4.15-3.36-4.75-6.36a19.36,19.36,0,0,1,.46-7.09s-.05-2.53-2.85-1.69S301.15,255.22,301.33,256.91Z" style="fill:#fff;stroke:#263238;stroke-linecap:round;stroke-linejoin:round"></path><path d="M228.59,325.41a13.55,13.55,0,0,0,1.48,3.34c.72.85,2,2,1.77,2.54a.78.78,0,0,1-.67.57s.19,1.07,0,1.36-.41.22-.41.22.2,1-.35,1.42-.26-.91-1.27-3-3.12-6.73-2.66-7.52S227.39,323.6,228.59,325.41Z" style="fill:#fff;stroke:#263238;stroke-linecap:round;stroke-linejoin:round"></path><path d="M227.84,321.31s2.31,2.08,2.35,2.48,1.57,3.36,1.31,3.6-.44.4-.82.24a26.79,26.79,0,0,1-2.53-2.32s.95,4,1.26,5a30,30,0,0,1,1.21,3.76c0,.48.07,2-.4,1.92s-.94-1.2-1.84-2.88a24.25,24.25,0,0,1-2.2-4.88c-.36-1.44-1.72-5.76-1.72-5.76Z" style="fill:#fff;stroke:#263238;stroke-linecap:round;stroke-linejoin:round"></path><path d="M223.35,320.43l1.11,2.08s3.36-1,3.38-1.2-.65-2.72-.65-2.72Z" style="fill:#fff;stroke:#263238;stroke-linecap:round;stroke-linejoin:round"></path><path d="M229.38,260.32a14.77,14.77,0,0,0-3,7.28c-.43,4.24-4.62,21.8-5.11,27.8s1.08,23.75,1.4,24.71.45,1.28.45,1.28l4.4-1.84s2.57-20.55,2.87-24.23,2-15.32,2-15.32Z" style="fill:#263238;stroke:#263238;stroke-linecap:round;stroke-linejoin:round"></path><path d="M278.56,323.08a5.59,5.59,0,0,1,.32,2.1c-.08,1,.85,2.36.15,2.18s-1.2-1.48-1.43-2.38S278.56,323.08,278.56,323.08Z" style="fill:#fff;stroke:#263238;stroke-linecap:round;stroke-linejoin:round"></path><path d="M279.83,317.68a24.82,24.82,0,0,1-.22,4.56,28.5,28.5,0,0,1-2.65,4l-1.69-2.8a13.65,13.65,0,0,0-1.69,1.12c-.43.4-1.19,1.84-1.57,1.6s.45-2.56.84-3.44,3.2-2.88,3.2-2.88l.48-1Z" style="fill:#fff;stroke:#263238;stroke-linecap:round;stroke-linejoin:round"></path><polygon points="279.85 316.4 279.88 318 276.53 318.88 276.35 317.2 279.85 316.4" style="fill:#fff;stroke:#263238;stroke-linecap:round;stroke-linejoin:round"></polygon><path d="M275.33,259s1.56,17.84,3,29.52,1.53,27.92,1.53,27.92l-4.32,1s-2-15-4.24-22.24-3.73-13-3.73-13S273.83,261.6,275.33,259Z" style="fill:#263238;stroke:#263238;stroke-linecap:round;stroke-linejoin:round"></path><path d="M256.59,402.1c-2.17-1.57-4.67-3.11-4.51-3.44s.24-1.78.48-2.68-.88-1.67-.33-4.59,6.1-24.67,9.06-41.07,5-36.24,5-36.24l-17.08.4-17-.4s-1.24,19.84-1,36.24,2.18,38.15,2.25,41.07-1.18,3.7-1.09,4.59-.07,2.34,0,2.68-2.64,1.87-5.07,3.44-2.82,4.86-2.78,5.59,1.66,1.11,1.66,1.11,4.14-1.26,5.53-2.36,2.8-4.29,3.19-4.66a3.65,3.65,0,0,0,.62-.84l-.11,1.61,3.78-2.42a7.84,7.84,0,0,0,.5-2.55,11.67,11.67,0,0,0-.23-1.47s1.83-4.21,1.37-6.27S240,386,240.23,385s3.11-20.85,3.66-26.53,3.86-33,3.86-33l.66-1.26.46,1.26s-1.23,27.36-1.62,33-.81,25.58-.73,26.53-.64,2.77-1.44,4.83.34,6.27.34,6.27a12.41,12.41,0,0,0-.48,1.47,7.59,7.59,0,0,0,.08,2.55l3.38,2.42.16-1.61a2.87,2.87,0,0,0,.48.84c.32.37,1.21,3.57,2.42,4.66s5.14,2.36,5.14,2.36,1.68-.38,1.84-1.11S258.76,403.68,256.59,402.1Z" style="fill:#263238;stroke:#263238;stroke-linecap:round;stroke-linejoin:round"></path><path d="M246.37,254.16s-16.06,5.52-17,6.16-.35,7,.74,10.32,4.52,21.76,4.35,26.72-3.63,20.72-3.63,20.72,6.25,5.6,8.78,7a49.35,49.35,0,0,0,5.63,2.48l3.75-10.4,2.58,10.32s12.36-5.36,15.08-7.2l2.43-1.36s-4.38-27.28-4.36-27.52,10.71-30.8,10.6-32.4-16.78-5-20.6-5.28S248.83,253.44,246.37,254.16Z" style="fill:#263238;stroke:#263238;stroke-linecap:round;stroke-linejoin:round"></path><path d="M266.89,268.08s-.81-1.76-1.12-1,.08,1,.08,1-1.86-.8-1.92-.08.75.64.75.64-.95-.16-.83.4.7.16.7.16-1.3,1.28-.58,1.28a1.38,1.38,0,0,0,1.1-.72s-.76,1.44-.12,1.44,1-1,1-1,.86,2.24,1.16,1.52a2.69,2.69,0,0,0,.19-1.36s1.08.56,1.19.08a.84.84,0,0,0-.25-.8s1.05-.08,1.11-.8-.68-.48-.68-.48.78-.8.49-1.12-1.32.48-1.32.48.6-1.44,0-1.12S266.89,268.08,266.89,268.08Z" style="fill:#92E3A9;stroke:#263238;stroke-linecap:round;stroke-linejoin:round;stroke-width:0.5px"></path><path d="M267,269.2a.44.44,0,0,0-.44-.48.54.54,0,0,0-.52.48.44.44,0,0,0,.44.48A.52.52,0,0,0,267,269.2Z" style="fill:#fff;stroke:#263238;stroke-linecap:round;stroke-linejoin:round"></path><polygon points="234.51 301.68 243.61 304.88 242.36 308.32 234.01 304.88 234.51 301.68" style="fill:#263238;stroke:#fff;stroke-linecap:round;stroke-linejoin:round"></polygon><polygon points="257.85 303.92 258.42 307.68 266.31 303.2 265.92 300.16 257.85 303.92" style="fill:#263238;stroke:#fff;stroke-linecap:round;stroke-linejoin:round"></polygon><path d="M250.08,252s-4.54,1.2-5.48,2.4-4.29,6.18-3,16.92,8.56,22,8.56,22a78.11,78.11,0,0,0,10.19-13.68c4-7.2,4-19.08,3.2-22a7.49,7.49,0,0,0-3.55-4.86C258.62,251.86,250.08,252,250.08,252Z" style="fill:#263238;stroke:#fff;stroke-linecap:round;stroke-linejoin:round"></path><path d="M252,250.12a9.66,9.66,0,0,0-2.14,2,56.14,56.14,0,0,0-3.91,18.24c-.11,8.52,4.19,22.5,4.19,22.5s8.92-17.16,9.72-24.6-.07-13.68-1.17-15.6S254,249.34,252,250.12Z" style="fill:#fff;stroke:#263238;stroke-linecap:round;stroke-linejoin:round"></path><path d="M252,242.62s-.3,5.76-.46,7.8a14,14,0,0,0,1.62,6.48c.73,1.26,5.6-4.56,5.76-5.1s-4.23-6.12-4.76-7S252.42,241.9,252,242.62Z" style="fill:#fff;stroke:#263238;stroke-linecap:round;stroke-linejoin:round"></path><path d="M253.7,259.06s-4-3.6-4.27-2.76-.84,7.26-.21,6.84L254,260s4.3,3.9,4.64,2.7.72-7.32-.29-6.72S253.7,259.06,253.7,259.06Z" style="fill:#263238;stroke:#263238;stroke-linecap:round;stroke-linejoin:round"></path><path d="M273.65,325.68s1.53,2.72,2.18,3.6,2.56-.08,2.86-.72-.29-.4-1-.4-2.57-1.84-3.07-2.56S273.65,325.68,273.65,325.68Z" style="fill:#fff;stroke:#263238;stroke-linecap:round;stroke-linejoin:round"></path><path d="M273.11,325.36a30,30,0,0,0,3.48,3.36c.62.24,2.8-.88,2.44-1.36s-1.12-.08-1.12-.08l-1-1-1.69-2.8A3,3,0,0,0,273.11,325.36Z" style="fill:#fff;stroke:#263238;stroke-linecap:round;stroke-linejoin:round"></path><path d="M293.83,295.68s-8.89,15.76-19.5,42.52-14,53-13.32,53.59,3,2,3,2.88-1.25,6.48.13,7.2,6.38,1.2,7.75,2,7.33,2.76,9.39,2.52,8.17-.12,9.44.48,7.33,2.76,11.34,2.16,7.15-2.28,8.59-2.28,7.32,1.44,9.68.48,4.62-3.6,5.61-4,5.33-2.16,6.4-3.48,1-10.08,1-10.08,2.15-1.32,2.34-2.16a107.42,107.42,0,0,0-2.72-33.43c-4.16-16.44-14.91-50.4-16.45-53.52s-2.06-4.05-2.06-4.05-.72-1.59-6-1.71S297.17,293.24,293.83,295.68Z" style="fill:#fff;stroke:#263238;stroke-linecap:round;stroke-linejoin:round"></path><line x1="312.51" y1="339.98" x2="312.67" y2="341.76" style="fill:none;stroke:#263238;stroke-linecap:round;stroke-linejoin:round"></line><line x1="302.97" y1="315.49" x2="302.87" y2="316.94" style="fill:none;stroke:#263238;stroke-linecap:round;stroke-linejoin:round"></line><line x1="304.18" y1="298.43" x2="303.17" y2="312.72" style="fill:none;stroke:#263238;stroke-linecap:round;stroke-linejoin:round"></line><line x1="298.66" y1="298.1" x2="297.25" y2="303.08" style="fill:none;stroke:#263238;stroke-linecap:round;stroke-linejoin:round"></line><line x1="308.76" y1="299.32" x2="312.29" y2="337.67" style="fill:none;stroke:#263238;stroke-linecap:round;stroke-linejoin:round"></line><line x1="312.22" y1="298.98" x2="313.2" y2="304.52" style="fill:none;stroke:#263238;stroke-linecap:round;stroke-linejoin:round"></line><path d="M264,394.67c0-.91,4.07-19.75,4.07-19.75" style="fill:none;stroke:#263238;stroke-linecap:round;stroke-linejoin:round"></path><line x1="333.27" y1="389.75" x2="332.8" y2="375.52" style="fill:none;stroke:#263238;stroke-linecap:round;stroke-linejoin:round"></line><path d="M320.56,292.84s-.58,4.14-.25,5.28a4,4,0,0,0,3.85,2.76c2.33.12,3.51-1.8,3.74-4.68a9,9,0,0,0-1.35-6.06C325.69,288.94,321.79,290.38,320.56,292.84Z" style="fill:#fff;stroke:#263238;stroke-linecap:round;stroke-linejoin:round"></path><path d="M323.89,233.84a2.15,2.15,0,0,0-3.2-.58,2.91,2.91,0,0,0-.95-1.36,2,2,0,0,0-.2-1.58c-.7-1.2-2.56-.08-2.56-.08v0c-.91-.69-3.51-.92-4.55,0-1.2,1,.15,2.08.15,2.08s1.37,1.84,2.82,3.6.85,5.2,2.35,6.4c1,.77,2.13.19,3.1-.59a3,3,0,0,0,2.71-.93C325.18,239.44,325.4,235.84,323.89,233.84Z" style="fill:#263238;stroke:#263238;stroke-linecap:round;stroke-linejoin:round"></path><path d="M319.85,245a3.81,3.81,0,0,0-.09-.89,12.81,12.81,0,0,0-7.05-11.43c-8.78-4.18-13.8,0-14.1,2.84s2.26,5.81,2.26,5.81,1.21.9,1.19,1.09,1.67,1.32,1.52,3.08,2.34,3.9,3.18,4-.1,1.3.72,2.34a1.93,1.93,0,0,0,.48.4l-.13.17s0,2.16,3.81,1.92S319.76,249.64,319.85,245Z" style="fill:#263238;stroke:#263238;stroke-linecap:round;stroke-linejoin:round"></path><path d="M305.62,245.07c.19-2.65.25-4.63-1.45-4.78a6.74,6.74,0,0,0-2.4,0s2.43-2.46,4.18-1.86.38,5.58.93,8.34a4.7,4.7,0,0,0,.12.51" style="fill:none;stroke:#fff;stroke-linecap:round;stroke-linejoin:round;stroke-width:0.5px"></path><path d="M301.77,240.29s1.31-4.45,5.31-4.45,8,3.2,9.59,3,1.64-.56,1.64-.56" style="fill:none;stroke:#fff;stroke-linecap:round;stroke-linejoin:round;stroke-width:0.5px"></path><path d="M301.44,240.16a4.09,4.09,0,0,1-.19-4.48c1.35-2.72,3.78-3,5.77-3" style="fill:none;stroke:#fff;stroke-linecap:round;stroke-linejoin:round;stroke-width:0.5px"></path><path d="M323,236.57s0-2.19.86-1.28.5,3-.51,3.47-2.33-2-2.24-4,2.11-.9,2.11-.9" style="fill:none;stroke:#fff;stroke-linecap:round;stroke-linejoin:round;stroke-width:0.5px"></path><path d="M320.45,240.87s-1.36-.83-1.22.15a1.23,1.23,0,0,0,2.34.08c.63-1.28-.6-3.7-1.88-2.87s-1.12,1.66-1.12,1.66" style="fill:none;stroke:#fff;stroke-linecap:round;stroke-linejoin:round;stroke-width:0.5px"></path><path d="M318.42,233.48s.17-2-1.61-2.42-.31,2.87,1.3,3.47,1.54-1.28.95-2.33" style="fill:none;stroke:#fff;stroke-linecap:round;stroke-linejoin:round;stroke-width:0.5px"></path><path d="M308.31,246.43c-.92.91-1.62,1.56-1.62,1.56a1.48,1.48,0,0,1-1.17-.66.59.59,0,0,1-.2-.09c-.91-.6-1.7-5.64-2.23-6.42s-2.28-.06-2.28-.06l.14-.21-.36.16s-1.73,2-1.88,3.06-.62,2.79-1.71,3.38-1.48.58-1.51,1,1.23,1.57,1.23,1.57a27.58,27.58,0,0,0,.42,6c.57,2.54,1.22,2.6,2.61,2.28s6.85-3.39,7.75-4.82a8.31,8.31,0,0,0,1.12-2.6s2.49-1.69,2.5-3.38S309.23,245.52,308.31,246.43Z" style="fill:#fff;stroke:#263238;stroke-linecap:round;stroke-linejoin:round"></path><path d="M300.5,246.45c-.1.41-.33.72-.52.69s-.27-.39-.18-.79.33-.72.53-.69S300.6,246.05,300.5,246.45Z" style="fill:#263238"></path><path d="M297.63,251.38a2.31,2.31,0,0,0,1.58-.26" style="fill:#fff;stroke:#263238;stroke-linecap:round;stroke-linejoin:round;stroke-width:0.75px"></path><line x1="299.03" y1="245.2" x2="300.93" y2="246.04" style="fill:none;stroke:#263238;stroke-linecap:round;stroke-linejoin:round;stroke-width:0.5px"></line><line x1="299.81" y1="245.44" x2="300.35" y2="244.72" style="fill:none;stroke:#263238;stroke-linecap:round;stroke-linejoin:round;stroke-width:0.5px"></line><path d="M299.63,243.76A1.62,1.62,0,0,1,302,244" style="fill:none;stroke:#263238;stroke-linecap:round;stroke-linejoin:round;stroke-width:0.75px"></path><line x1="299.98" y1="247.14" x2="300.97" y2="246.8" style="fill:none;stroke:#263238;stroke-linecap:round;stroke-linejoin:round;stroke-width:0.5px"></line><path d="M293.37,296.43s5.92,4,21,.16l.78-4.81s3.2-4.82,3.73-6.51,1-3.45,1-3.45c0-5.4-3.14-10-5.41-10.8s-9.33,7.29-9.33,7.29-5.3-5.92-7.15-6.31-6.74,5.14-7.94,9.5a7.19,7.19,0,0,0,1.63,7l2.14,4Z" style="fill:#fff;stroke:#263238;stroke-linecap:round;stroke-linejoin:round"></path><path d="M293.83,292.49a45.27,45.27,0,0,0,21.33-.71" style="fill:#fff;stroke:#263238;stroke-linecap:round;stroke-linejoin:round"></path><path d="M320.16,279.58s.45,6.9.26,8.4a29.67,29.67,0,0,1-.64,4.86c-.38,1-4.83,9.12-4.75,9.54s2.75,1.62,3.09,1.14,4-9.12,4.74-10.2,11.54-9.66,11.62-9.9-1.79-2.94-4.94-4.08S321.64,278.38,320.16,279.58Z" style="fill:#fff;stroke:#263238;stroke-linecap:round;stroke-linejoin:round"></path><path d="M325.56,295.21c0-.19.81-5,.7-5.49s-5-1.27-5.88-1.18-1.44,1.38-1.36,1.62.64-.1.64-.1-.6.79-.58,1.18a.84.84,0,0,0,.24.59.8.8,0,0,0-.34.71,3.81,3.81,0,0,0,.17.7s-1.28.53-.73,1.36c.15.23,1.71,0,1.85-.09.35-.16,2.23.67,1.89.95a1.52,1.52,0,0,0,1,1.32" style="fill:#fff;stroke:#263238;stroke-linecap:round;stroke-linejoin:round"></path><path d="M319.66,290.06a8,8,0,0,1,1.45-.34c.4,0,3.58.59,3.58.59" style="fill:none;stroke:#263238;stroke-linecap:round;stroke-linejoin:round"></path><path d="M319.32,291.83s.19-.44,1.26-.39a23.59,23.59,0,0,1,3.24.59" style="fill:none;stroke:#263238;stroke-linecap:round;stroke-linejoin:round"></path><path d="M319.14,293.32a5.69,5.69,0,0,1,1.79-.29c.53.09,1.93.29,1.93.29" style="fill:none;stroke:#263238;stroke-linecap:round;stroke-linejoin:round"></path><path d="M326,273.1s-1.41-.36-1.35.36a1.71,1.71,0,0,0,.28,1s-1.46.18-1.25.6a1.86,1.86,0,0,0,.54.66s-.72.72-.43.9.79-.12.79-.12-.81.3-.68.9.87.36.87.36-.39,1.08.11.9a1.4,1.4,0,0,0,.71-.6s.11.84.44.48a1.86,1.86,0,0,0,.42-.78s.26.48.64.3.42-.78.42-.78.83.84,1,.54a2.7,2.7,0,0,0,.1-1.2s.33.3.54-.06a.58.58,0,0,0-.06-.66s.57-.36.59-.66-1-.48-1-.48.69-1,.09-1.08a1.36,1.36,0,0,0-.91.18s.17-1.38-.13-1.32-.83-.18-.81.3S326,273.1,326,273.1Z" style="fill:#fff;stroke:#263238;stroke-linecap:round;stroke-linejoin:round;stroke-width:0.5px"></path><path d="M320.56,274.06s-1.41-.36-1.35.36a1.71,1.71,0,0,0,.28,1s-1.46.18-1.25.6a1.86,1.86,0,0,0,.54.66s-.72.72-.43.9.79-.12.79-.12-.81.3-.68.9.87.36.87.36-.38,1.08.11.9a1.4,1.4,0,0,0,.71-.6s.11.84.44.48a1.86,1.86,0,0,0,.42-.78s.26.48.64.3.42-.78.42-.78.83.84,1,.54a2.7,2.7,0,0,0,.1-1.2s.33.3.54-.06a.58.58,0,0,0-.06-.66s.57-.36.59-.66-1-.48-1-.48.69-1,.09-1.08a1.36,1.36,0,0,0-.91.18s.17-1.38-.13-1.32-.83-.18-.81.3S320.56,274.06,320.56,274.06Z" style="fill:#92E3A9;stroke:#263238;stroke-linecap:round;stroke-linejoin:round;stroke-width:0.5px"></path><path d="M322.94,277.12s-1.41-.36-1.35.36a1.71,1.71,0,0,0,.28,1s-1.45.18-1.25.6a2,2,0,0,0,.55.66s-.72.72-.43.9.79-.12.79-.12-.81.3-.68.9.87.36.87.36-.39,1.08.11.9a1.4,1.4,0,0,0,.71-.6s.11.84.44.48a1.86,1.86,0,0,0,.42-.78s.26.48.64.3.42-.78.42-.78.83.84,1,.54a2.7,2.7,0,0,0,.1-1.2s.33.3.54-.06a.58.58,0,0,0-.06-.66s.56-.36.59-.66-1-.48-1-.48.68-1,.09-1.08a1.37,1.37,0,0,0-.92.18s.18-1.38-.13-1.32-.82-.18-.8.3S322.94,277.12,322.94,277.12Z" style="fill:#92E3A9;stroke:#263238;stroke-linecap:round;stroke-linejoin:round;stroke-width:0.5px"></path><path d="M328.41,278.5s-1.41-.36-1.35.36a1.71,1.71,0,0,0,.28,1s-1.45.18-1.25.6a2,2,0,0,0,.55.66s-.72.72-.44.9.79-.12.79-.12-.8.3-.67.9.87.36.87.36-.39,1.08.1.9a1.35,1.35,0,0,0,.71-.6s.11.84.44.48a2,2,0,0,0,.43-.78s.26.48.63.3.43-.78.43-.78.83.84,1,.54a2.56,2.56,0,0,0,.1-1.2s.34.3.55-.06a.57.57,0,0,0-.07-.66s.57-.36.6-.66-1-.48-1-.48.68-1,.08-1.08a1.36,1.36,0,0,0-.91.18s.17-1.38-.13-1.32-.83-.18-.81.3S328.41,278.5,328.41,278.5Z" style="fill:#92E3A9;stroke:#263238;stroke-linecap:round;stroke-linejoin:round;stroke-width:0.5px"></path><path d="M333.7,274.06s-1.41-.36-1.35.36a1.71,1.71,0,0,0,.28,1s-1.46.18-1.25.6a1.86,1.86,0,0,0,.54.66s-.72.72-.43.9.79-.12.79-.12-.81.3-.68.9.87.36.87.36-.39,1.08.11.9a1.4,1.4,0,0,0,.71-.6s.11.84.44.48a1.86,1.86,0,0,0,.42-.78s.26.48.64.3.42-.78.42-.78.83.84,1,.54a2.7,2.7,0,0,0,.1-1.2s.33.3.54-.06a.58.58,0,0,0-.06-.66s.57-.36.59-.66-1-.48-1-.48.69-1,.09-1.08a1.36,1.36,0,0,0-.91.18s.17-1.38-.13-1.32-.83-.18-.81.3S333.7,274.06,333.7,274.06Z" style="fill:#92E3A9;stroke:#263238;stroke-linecap:round;stroke-linejoin:round;stroke-width:0.5px"></path><path d="M334.19,283.81s0,1.48.65,1.15a2,2,0,0,0,.85-.64s.51,1.31.86,1a2.36,2.36,0,0,0,.51-.78s.86.41,1,.07-.29-.71-.29-.71.47.65,1,.3.14-1,.14-1,1.13,0,.84-.45a1.12,1.12,0,0,0-.74-.44s.78-.43.36-.6a1.67,1.67,0,0,0-.84-.11s.4-.43.14-.72-.84-.1-.84-.1.61-1.12.28-1.19-1.17.36-1.17.36.21-.43-.19-.49a.65.65,0,0,0-.61.31s-.48-.4-.77-.31-.24,1.12-.24,1.12-1.13-.26-1.05.33a1.17,1.17,0,0,0,.38.8s-1.36.37-1.24.64,0,.85.47.65S334.19,283.81,334.19,283.81Z" style="fill:#92E3A9;stroke:#263238;stroke-linecap:round;stroke-linejoin:round;stroke-width:0.5px"></path><path d="M331.66,283.14s0,1.48.65,1.14a2.07,2.07,0,0,0,.86-.63s.5,1.31.86,1a2.33,2.33,0,0,0,.5-.77s.86.41,1,.07-.3-.71-.3-.71.47.65,1,.3.14-1,.14-1,1.13,0,.84-.45a1.08,1.08,0,0,0-.73-.44s.77-.43.35-.61a1.73,1.73,0,0,0-.84-.1s.4-.43.14-.72-.84-.1-.84-.1.61-1.12.28-1.2-1.17.37-1.17.37.21-.43-.18-.49a.66.66,0,0,0-.62.31s-.48-.4-.77-.31-.24,1.12-.24,1.12-1.13-.26-1.05.33a1.17,1.17,0,0,0,.38.8s-1.36.37-1.24.64,0,.85.48.65S331.66,283.14,331.66,283.14Z" style="fill:#92E3A9;stroke:#263238;stroke-linecap:round;stroke-linejoin:round;stroke-width:0.5px"></path><path d="M330.76,279.48s0,1.48.65,1.14a2.07,2.07,0,0,0,.86-.63s.5,1.31.86.95a2.46,2.46,0,0,0,.51-.77s.85.41,1,.07-.3-.71-.3-.71.47.65,1,.3a.7.7,0,0,0,.15-1s1.12-.05.83-.45a1.08,1.08,0,0,0-.73-.44s.78-.43.36-.61a1.77,1.77,0,0,0-.85-.1s.4-.43.15-.72-.85-.1-.85-.1.62-1.12.28-1.2-1.17.37-1.17.37.21-.43-.18-.49a.67.67,0,0,0-.62.31s-.47-.4-.77-.31-.23,1.12-.23,1.12-1.14-.26-1.06.33a1.17,1.17,0,0,0,.38.8s-1.36.37-1.23.64,0,.85.47.65S330.76,279.48,330.76,279.48Z" style="fill:#92E3A9;stroke:#263238;stroke-linecap:round;stroke-linejoin:round;stroke-width:0.5px"></path><path d="M327.88,276.5s0,1.48.66,1.14a2.08,2.08,0,0,0,.85-.63s.51,1.31.86.95a2.27,2.27,0,0,0,.51-.77s.85.41,1,.07-.29-.71-.29-.71.47.65,1,.3a.69.69,0,0,0,.15-1s1.12-.05.84-.45a1.12,1.12,0,0,0-.74-.44s.78-.43.36-.61a1.73,1.73,0,0,0-.84-.1s.4-.43.14-.72-.84-.1-.84-.1.61-1.12.28-1.2-1.18.37-1.18.37.21-.43-.18-.49a.65.65,0,0,0-.62.31s-.47-.4-.76-.31-.24,1.12-.24,1.12-1.13-.26-1.06.33a1.15,1.15,0,0,0,.39.8s-1.37.37-1.24.63,0,.86.47.65S327.88,276.5,327.88,276.5Z" style="fill:#92E3A9;stroke:#263238;stroke-linecap:round;stroke-linejoin:round;stroke-width:0.5px"></path><path d="M324.93,275.29s0,1.48.65,1.15a2.13,2.13,0,0,0,.86-.64s.5,1.31.86,1a2.36,2.36,0,0,0,.51-.78s.85.41,1,.07-.3-.71-.3-.71.48.65,1,.3a.69.69,0,0,0,.15-1s1.12,0,.84-.45a1.12,1.12,0,0,0-.74-.44s.78-.43.36-.6a1.71,1.71,0,0,0-.85-.11s.4-.43.15-.72-.85-.1-.85-.1.62-1.11.28-1.19-1.17.36-1.17.36.21-.43-.18-.49a.67.67,0,0,0-.62.32s-.47-.41-.77-.32-.23,1.12-.23,1.12-1.14-.26-1.06.33a1.17,1.17,0,0,0,.38.8s-1.36.37-1.23.64,0,.85.47.65S324.93,275.29,324.93,275.29Z" style="fill:#92E3A9;stroke:#263238;stroke-linecap:round;stroke-linejoin:round;stroke-width:0.5px"></path><path d="M328.89,275.56s-1.41-.36-1.35.36a1.71,1.71,0,0,0,.28,1s-1.45.18-1.25.6a2,2,0,0,0,.55.66s-.72.72-.44.9.79-.12.79-.12-.8.3-.67.9.87.36.87.36-.39,1.08.11.9a1.4,1.4,0,0,0,.71-.6s.11.84.44.48a1.86,1.86,0,0,0,.42-.78s.26.48.64.3.42-.78.42-.78.83.84,1,.54a2.56,2.56,0,0,0,.1-1.2s.34.3.55-.06a.57.57,0,0,0-.07-.66s.57-.36.6-.66-1-.48-1-.48.68-1,.09-1.08a1.37,1.37,0,0,0-.92.18s.18-1.38-.13-1.32-.82-.18-.8.3S328.89,275.56,328.89,275.56Z" style="fill:#92E3A9;stroke:#263238;stroke-linecap:round;stroke-linejoin:round;stroke-width:0.5px"></path><path d="M323.31,272.68s-.78-1.38-.9-.72a1.61,1.61,0,0,0,.1,1s-1.36-1-1.3-.3a2.21,2.21,0,0,0,.33,1.08s-.91-.54-1-.12.16.3,0,.42-.77-.18-.86.18.92.54.92.54-.37.06-.16.48,1.1-.3,1.1-.3.65,1.62,1,1.08a2,2,0,0,0,.33-1.08s.72.78,1.1.54a1.07,1.07,0,0,0,.37-.84.47.47,0,0,0,.56-.3c.22-.42-.36-.66-.36-.66a1,1,0,0,0,.13-.9c-.2-.42-.65-.06-.65-.06s.38-1.74-.07-1.38A2.79,2.79,0,0,0,323.31,272.68Z" style="fill:#92E3A9;stroke:#263238;stroke-linecap:round;stroke-linejoin:round;stroke-width:0.5px"></path><path d="M332.23,281s-.79-1.38-.9-.72a1.58,1.58,0,0,0,.09,1s-1.35-1-1.29-.3a2.21,2.21,0,0,0,.33,1.08s-.92-.54-.95-.12.15.3,0,.42-.76-.18-.85.18.91.54.91.54-.36.06-.16.48,1.11-.3,1.11-.3.64,1.62,1,1.08a2.16,2.16,0,0,0,.33-1.08s.71.78,1.09.54a1.07,1.07,0,0,0,.37-.84.48.48,0,0,0,.57-.3c.21-.42-.37-.66-.37-.66a1,1,0,0,0,.14-.9c-.21-.42-.66-.06-.66-.06s.38-1.74-.07-1.38A2.74,2.74,0,0,0,332.23,281Z" style="fill:#92E3A9;stroke:#263238;stroke-linecap:round;stroke-linejoin:round;stroke-width:0.5px"></path><path d="M337.27,278.74s-.79-1.38-.9-.72a1.58,1.58,0,0,0,.09,1s-1.35-1-1.29-.3a2.21,2.21,0,0,0,.33,1.08s-.92-.54-.95-.12.15.3,0,.42-.76-.18-.85.18.92.54.92.54-.37.06-.16.48,1.1-.3,1.1-.3.65,1.62,1,1.08a2,2,0,0,0,.33-1.08s.72.78,1.1.54a1.07,1.07,0,0,0,.37-.84.47.47,0,0,0,.56-.3c.21-.42-.37-.66-.37-.66a1,1,0,0,0,.14-.9c-.21-.42-.66-.06-.66-.06s.39-1.74-.06-1.38A2.79,2.79,0,0,0,337.27,278.74Z" style="fill:#92E3A9;stroke:#263238;stroke-linecap:round;stroke-linejoin:round;stroke-width:0.5px"></path><path d="M326.44,278.38s-.52-1.74-.84-1.5a1,1,0,0,0-.3.78s-1.31-.9-1.25-.18a1.17,1.17,0,0,0,.52,1s-1.89-.36-1.46.3a1.37,1.37,0,0,0,1.08.66s-1.12,1.26-.72,1.5,1.07-.54,1.07-.54.24,2.16.69,1.8a2.11,2.11,0,0,0,.52-1.26s.81,1.14,1,.72a2.2,2.2,0,0,0,.2-1s1.36.3,1.28-.18-.74-.54-.74-.54,1-.42.85-.9-.75-.3-.75-.3.37-.9,0-1.08S326.44,278.38,326.44,278.38Z" style="fill:#92E3A9;stroke:#263238;stroke-linecap:round;stroke-linejoin:round;stroke-width:0.5px"></path><path d="M329.57,274.6s-.51-1.74-.83-1.5a1.07,1.07,0,0,0-.31.78s-1.3-.9-1.24-.18a1.17,1.17,0,0,0,.52,1s-1.89-.36-1.47.3a1.4,1.4,0,0,0,1.09.66s-1.13,1.26-.73,1.5,1.07-.54,1.07-.54.24,2.16.69,1.8a2.11,2.11,0,0,0,.52-1.26s.81,1.14,1,.72a2.2,2.2,0,0,0,.2-1s1.36.3,1.28-.18-.74-.54-.74-.54,1-.42.86-.9-.76-.3-.76-.3.38-.9,0-1.08S329.57,274.6,329.57,274.6Z" style="fill:#92E3A9;stroke:#263238;stroke-linecap:round;stroke-linejoin:round;stroke-width:0.5px"></path><path d="M333.6,278.14s-.52-1.74-.84-1.5a1,1,0,0,0-.3.78s-1.31-.9-1.25-.18a1.17,1.17,0,0,0,.52,1s-1.89-.36-1.46.3a1.37,1.37,0,0,0,1.08.66s-1.12,1.26-.72,1.5,1.06-.54,1.06-.54.25,2.16.7,1.8a2.11,2.11,0,0,0,.52-1.26s.81,1.14,1,.72a2.2,2.2,0,0,0,.2-1s1.36.3,1.27-.18-.73-.54-.73-.54,1-.42.85-.9-.75-.3-.75-.3.37-.9,0-1.08S333.6,278.14,333.6,278.14Z" style="fill:#92E3A9;stroke:#263238;stroke-linecap:round;stroke-linejoin:round;stroke-width:0.5px"></path><path d="M319.8,278.14s-.52-1.74-.84-1.5a1,1,0,0,0-.3.78s-1.31-.9-1.25-.18a1.17,1.17,0,0,0,.52,1s-1.89-.36-1.46.3a1.37,1.37,0,0,0,1.08.66s-1.12,1.26-.72,1.5,1.07-.54,1.07-.54.24,2.16.69,1.8a2.11,2.11,0,0,0,.52-1.26s.81,1.14,1,.72a2.2,2.2,0,0,0,.2-1s1.36.3,1.28-.18-.74-.54-.74-.54,1-.42.85-.9-.75-.3-.75-.3.37-.9,0-1.08S319.8,278.14,319.8,278.14Z" style="fill:#92E3A9;stroke:#263238;stroke-linecap:round;stroke-linejoin:round;stroke-width:0.5px"></path><path d="M301.77,240.29s2.43-2.46,4.18-1.86.38,5.58.93,8.34,2.95,6.42,2.4,8.64-1,5.16-.13,5.94a2.47,2.47,0,0,0,1.5.78s-1.65,1-2.62-1.68.64-4.14,0-7-2.75-3.72-2.54-7,.61-5.94-1.36-6.12A6.74,6.74,0,0,0,301.77,240.29Z" style="fill:#263238"></path><path d="M258,224.73a8,8,0,0,0-6.7,4.8c-.06.14-.12.29-.17.43a19.6,19.6,0,0,0-.42,9.81c.43,1.86,1.17,6,2.54,8.33s5,5.1,6.26,5,2.45-1.18,4.61-4.8,2.9-6.57,2.68-7.55,1.24-5.49,1.3-8.53a7.55,7.55,0,0,0-4.34-6.86C262.33,224.59,259.91,224.59,258,224.73Z" style="fill:#fff;stroke:#263238;stroke-linecap:round;stroke-linejoin:round"></path><path d="M264.48,238.24a12.91,12.91,0,0,0-.93,2.58c-.06.72.34,3.84,0,4.08s-1.48,1.2-2.42.24" style="fill:none;stroke:#263238;stroke-linecap:round;stroke-linejoin:round"></path><path d="M257.8,246.52s1.88,1.2,3.49.54" style="fill:none;stroke:#263238;stroke-linecap:round;stroke-linejoin:round"></path><line x1="259.51" y1="240.34" x2="261.45" y2="240.1" style="fill:none;stroke:#263238;stroke-linecap:round;stroke-linejoin:round;stroke-width:0.5px"></line><path d="M261.21,240.85c0,.35-.22.63-.41.63s-.34-.28-.31-.63.21-.63.41-.63S261.24,240.5,261.21,240.85Z" style="fill:#263238"></path><line x1="264.02" y1="240.25" x2="265.96" y2="240.01" style="fill:none;stroke:#263238;stroke-linecap:round;stroke-linejoin:round;stroke-width:0.5px"></line><path d="M265.71,240.76c0,.35-.21.63-.41.63s-.33-.28-.31-.63.22-.63.42-.63S265.74,240.41,265.71,240.76Z" style="fill:#263238"></path><path d="M262.05,237.94a3.68,3.68,0,0,0-3.6.66" style="fill:none;stroke:#263238;stroke-linecap:round;stroke-linejoin:round"></path><path d="M266.87,237.7a1.74,1.74,0,0,0-2.34.66" style="fill:none;stroke:#263238;stroke-linecap:round;stroke-linejoin:round"></path><line x1="260.31" y1="241.36" x2="261.18" y2="241.44" style="fill:none;stroke:#263238;stroke-linecap:round;stroke-linejoin:round;stroke-width:0.5px"></line><path d="M264.86,241.36a10.41,10.41,0,0,1,1.06-.16" style="fill:none;stroke:#263238;stroke-linecap:round;stroke-linejoin:round;stroke-width:0.5px"></path><path d="M263.79,225.36c-1.46-.77-3.88-.77-5.76-.63a8,8,0,0,0-6.7,4.8c-.06.14-.12.29-.17.43a19.6,19.6,0,0,0-.42,9.81c0,.12.06.26.09.41a1.24,1.24,0,0,0,.31-.26l1.81-1.56s.83.84,1-.12-.43-1.32,1.12-1.86,3.12-.78,2.67-1.8-.82-3.64.56-4.42c1.15-.64,6.46-.34,9.53-.23A7.82,7.82,0,0,0,263.79,225.36Z" style="fill:#263238;stroke:#263238;stroke-linecap:round;stroke-linejoin:round"></path><path d="M253.45,240.16s.29-2.26-1.15-2.65-2.94,1.18-2.45,3.53,2.06,3.53,3.11,2.65" style="fill:#fff;stroke:#263238;stroke-linecap:round;stroke-linejoin:round"></path><path d="M250.42,240s.65-2.08,1.4-1.52a2.47,2.47,0,0,1,.82,1.68s-.88.08-.68.56a.7.7,0,0,0,.6.48s.08,1-.41,1.12" style="fill:none;stroke:#263238;stroke-linecap:round;stroke-linejoin:round;stroke-width:0.5px"></path><path d="M252.64,240.16s-1-.72-1.54.24" style="fill:none;stroke:#263238;stroke-linecap:round;stroke-linejoin:round;stroke-width:0.5px"></path><polygon points="213.44 253.59 200.38 253.59 201.46 240.53 214.52 240.53 213.44 253.59" style="fill:#92E3A9;stroke:#263238;stroke-linecap:round;stroke-linejoin:round"></polygon><polygon points="366.73 253.59 353.67 253.59 354.75 240.53 367.81 240.53 366.73 253.59" style="fill:#92E3A9;stroke:#263238;stroke-linecap:round;stroke-linejoin:round"></polygon><polygon points="204.05 367.02 190.99 367.02 192.07 353.96 205.13 353.96 204.05 367.02" style="fill:#92E3A9;stroke:#263238;stroke-linecap:round;stroke-linejoin:round"></polygon><polygon points="357.34 367.02 344.28 367.02 345.36 353.96 358.43 353.96 357.34 367.02" style="fill:#92E3A9;stroke:#263238;stroke-linecap:round;stroke-linejoin:round"></polygon><path d="M295.71,174a5.31,5.31,0,0,0-5.37-5.85A6.48,6.48,0,0,0,284,174a5.3,5.3,0,0,0,5.37,5.84A6.46,6.46,0,0,0,295.71,174Z" style="fill:#fff;stroke:#263238;stroke-linecap:round;stroke-linejoin:round"></path><path d="M293.85,174a3.62,3.62,0,0,0-3.66-4,4.43,4.43,0,0,0-4.32,4,3.61,3.61,0,0,0,3.66,4A4.41,4.41,0,0,0,293.85,174Z" style="fill:#fff;stroke:#263238;stroke-linecap:round;stroke-linejoin:round"></path></g></svg>