<svg xmlns="http://www.w3.org/2000/svg" viewBox="0 0 469 453.44"><g id="freepik--background-simple--inject-7"><path d="M450.4,225.32c-14.94-11.54-32-20.89-36.71-39.62-6.68-26.67-3.89-55.27-15-81.23a132.37,132.37,0,0,0-47.51-57.38C290.5,6.45,183.45,5,140.85,53.91,130.19,66.13,127,81.66,128.36,98.61c1.12,14.29,11.57,37.44,3.64,49.72-8.64,13.38-29.63,15-44.44,19.65-18.85,6-37.3,14.5-48.27,30.4-24.24,35.11,15.9,85.46,19.16,111.69S29.74,342.29,35,374.34c9.77,60.06,79.65,83.3,132.17,90.69,61.38,8.63,133.52,10.11,181.92-21.95,12.37-8.2,23.6-17.89,36.43-25.51,19.32-11.48,43.95-13.47,63.63-24.25,21.18-11.61,32.07-32.41,35.32-56.15a173.85,173.85,0,0,0-2.63-61.5c-3.75-16.14-11.49-32.48-24.48-44.54C455.1,229.08,452.78,227.16,450.4,225.32Z" transform="translate(-17 -16.9)" style="fill:#FF81AE"></path><path d="M450.4,225.32c-14.94-11.54-32-20.89-36.71-39.62-6.68-26.67-3.89-55.27-15-81.23a132.37,132.37,0,0,0-47.51-57.38C290.5,6.45,183.45,5,140.85,53.91,130.19,66.13,127,81.66,128.36,98.61c1.12,14.29,11.57,37.44,3.64,49.72-8.64,13.38-29.63,15-44.44,19.65-18.85,6-37.3,14.5-48.27,30.4-24.24,35.11,15.9,85.46,19.16,111.69S29.74,342.29,35,374.34c9.77,60.06,79.65,83.3,132.17,90.69,61.38,8.63,133.52,10.11,181.92-21.95,12.37-8.2,23.6-17.89,36.43-25.51,19.32-11.48,43.95-13.47,63.63-24.25,21.18-11.61,32.07-32.41,35.32-56.15a173.85,173.85,0,0,0-2.63-61.5c-3.75-16.14-11.49-32.48-24.48-44.54C455.1,229.08,452.78,227.16,450.4,225.32Z" transform="translate(-17 -16.9)" style="fill:#fff;opacity:0.7000000000000001"></path></g><g id="freepik--Buildings--inject-7"><g style="opacity:0.30000000000000004"><rect x="79.6" y="274.06" width="8.16" height="8.22" style="fill:none;stroke:#000;stroke-miterlimit:10"></rect><rect x="70.79" y="279.04" width="3.31" height="3.24" style="fill:none;stroke:#000;stroke-miterlimit:10"></rect><polyline points="449 378.1 433 378.1 433 359.1 405.86 359.1 405.86 325.96 374.94 325.96 374.94 260.74 377.01 260.74 377.01 253.99 304.58 253.99 304.58 260.74 307.09 260.74 307.09 357.74 288.09 357.74 288.09 149.64 222.94 149.64 222.94 307.01 199.13 307.01 199.13 289.59 205.36 289.59 205.36 282.22 153.28 282.22 153.28 176.65 156.65 176.65 156.65 171.12 93.42 171.12 93.42 176.65 97.96 176.65 97.96 282.4 47.99 282.4 47.99 358.04 21.75 358.04 21.75 382.1 0 382.1" style="fill:none;stroke:#000;stroke-miterlimit:10"></polyline><rect x="220.04" y="147.36" width="70.64" height="2.26" style="fill:none;stroke:#000;stroke-miterlimit:10"></rect><rect x="103.61" y="182.79" width="7.96" height="8.52" style="fill:none;stroke:#000;stroke-miterlimit:10"></rect><rect x="115.28" y="182.79" width="7.96" height="8.52" style="fill:none;stroke:#000;stroke-miterlimit:10"></rect><rect x="126.95" y="182.79" width="7.96" height="8.52" style="fill:none;stroke:#000;stroke-miterlimit:10"></rect><rect x="138.63" y="182.79" width="7.96" height="8.52" style="fill:none;stroke:#000;stroke-miterlimit:10"></rect><rect x="103.61" y="196.29" width="7.96" height="8.52" style="fill:none;stroke:#000;stroke-miterlimit:10"></rect><rect x="115.28" y="196.29" width="7.96" height="8.52" style="fill:none;stroke:#000;stroke-miterlimit:10"></rect><rect x="126.95" y="196.29" width="7.96" height="8.52" style="fill:none;stroke:#000;stroke-miterlimit:10"></rect><rect x="138.63" y="196.29" width="7.96" height="8.52" style="fill:none;stroke:#000;stroke-miterlimit:10"></rect><rect x="103.61" y="209.79" width="7.96" height="8.52" style="fill:none;stroke:#000;stroke-miterlimit:10"></rect><rect x="115.28" y="209.79" width="7.96" height="8.52" style="fill:none;stroke:#000;stroke-miterlimit:10"></rect><rect x="126.95" y="209.79" width="7.96" height="8.52" style="fill:none;stroke:#000;stroke-miterlimit:10"></rect><rect x="138.63" y="209.79" width="7.96" height="8.52" style="fill:none;stroke:#000;stroke-miterlimit:10"></rect><rect x="103.61" y="223.3" width="7.96" height="8.52" style="fill:none;stroke:#000;stroke-miterlimit:10"></rect><rect x="115.28" y="223.3" width="7.96" height="8.52" style="fill:none;stroke:#000;stroke-miterlimit:10"></rect><rect x="126.95" y="223.3" width="7.96" height="8.52" style="fill:none;stroke:#000;stroke-miterlimit:10"></rect><rect x="138.63" y="223.3" width="7.96" height="8.52" style="fill:none;stroke:#000;stroke-miterlimit:10"></rect><rect x="103.61" y="236.8" width="7.96" height="8.52" style="fill:none;stroke:#000;stroke-miterlimit:10"></rect><rect x="115.28" y="236.8" width="7.96" height="8.52" style="fill:none;stroke:#000;stroke-miterlimit:10"></rect><rect x="126.95" y="236.8" width="7.96" height="8.52" style="fill:none;stroke:#000;stroke-miterlimit:10"></rect><rect x="138.63" y="236.8" width="7.96" height="8.52" style="fill:none;stroke:#000;stroke-miterlimit:10"></rect><rect x="103.61" y="250.31" width="7.96" height="8.52" style="fill:none;stroke:#000;stroke-miterlimit:10"></rect><rect x="115.28" y="250.31" width="7.96" height="8.52" style="fill:none;stroke:#000;stroke-miterlimit:10"></rect><rect x="126.95" y="250.31" width="7.96" height="8.52" style="fill:none;stroke:#000;stroke-miterlimit:10"></rect><rect x="138.63" y="250.31" width="7.96" height="8.52" style="fill:none;stroke:#000;stroke-miterlimit:10"></rect><rect x="103.61" y="263.81" width="7.96" height="8.52" style="fill:none;stroke:#000;stroke-miterlimit:10"></rect><rect x="115.28" y="263.81" width="7.96" height="8.52" style="fill:none;stroke:#000;stroke-miterlimit:10"></rect><rect x="126.95" y="263.81" width="7.96" height="8.52" style="fill:none;stroke:#000;stroke-miterlimit:10"></rect><rect x="138.63" y="263.81" width="7.96" height="8.52" style="fill:none;stroke:#000;stroke-miterlimit:10"></rect><rect x="103.61" y="277.31" width="7.96" height="8.52" style="fill:none;stroke:#000;stroke-miterlimit:10"></rect><rect x="115.28" y="277.31" width="7.96" height="8.52" style="fill:none;stroke:#000;stroke-miterlimit:10"></rect><rect x="126.95" y="277.31" width="7.96" height="8.52" style="fill:none;stroke:#000;stroke-miterlimit:10"></rect><rect x="138.63" y="277.31" width="7.96" height="8.52" style="fill:none;stroke:#000;stroke-miterlimit:10"></rect><rect x="103.61" y="289.67" width="7.96" height="8.52" style="fill:none;stroke:#000;stroke-miterlimit:10"></rect><rect x="115.28" y="289.67" width="7.96" height="8.52" style="fill:none;stroke:#000;stroke-miterlimit:10"></rect><rect x="126.95" y="289.67" width="7.96" height="8.52" style="fill:none;stroke:#000;stroke-miterlimit:10"></rect><rect x="138.63" y="289.67" width="7.96" height="8.52" style="fill:none;stroke:#000;stroke-miterlimit:10"></rect><rect x="103.61" y="303.17" width="7.96" height="8.52" style="fill:none;stroke:#000;stroke-miterlimit:10"></rect><rect x="115.28" y="303.17" width="7.96" height="8.52" style="fill:none;stroke:#000;stroke-miterlimit:10"></rect><rect x="126.95" y="303.17" width="7.96" height="8.52" style="fill:none;stroke:#000;stroke-miterlimit:10"></rect><rect x="138.63" y="303.17" width="7.96" height="8.52" style="fill:none;stroke:#000;stroke-miterlimit:10"></rect><rect x="103.61" y="316.67" width="7.96" height="8.52" style="fill:none;stroke:#000;stroke-miterlimit:10"></rect><rect x="115.28" y="316.67" width="7.96" height="8.52" style="fill:none;stroke:#000;stroke-miterlimit:10"></rect><rect x="126.95" y="316.67" width="7.96" height="8.52" style="fill:none;stroke:#000;stroke-miterlimit:10"></rect><rect x="138.63" y="316.67" width="7.96" height="8.52" style="fill:none;stroke:#000;stroke-miterlimit:10"></rect><rect x="103.61" y="330.18" width="7.96" height="8.52" style="fill:none;stroke:#000;stroke-miterlimit:10"></rect><rect x="115.28" y="330.18" width="7.96" height="8.52" style="fill:none;stroke:#000;stroke-miterlimit:10"></rect><rect x="126.95" y="330.18" width="7.96" height="8.52" style="fill:none;stroke:#000;stroke-miterlimit:10"></rect><rect x="138.63" y="330.18" width="7.96" height="8.52" style="fill:none;stroke:#000;stroke-miterlimit:10"></rect><rect x="103.61" y="343.68" width="7.96" height="8.52" style="fill:none;stroke:#000;stroke-miterlimit:10"></rect><rect x="115.28" y="343.68" width="7.96" height="8.52" style="fill:none;stroke:#000;stroke-miterlimit:10"></rect><rect x="126.95" y="343.68" width="7.96" height="8.52" style="fill:none;stroke:#000;stroke-miterlimit:10"></rect><rect x="138.63" y="343.68" width="7.96" height="8.52" style="fill:none;stroke:#000;stroke-miterlimit:10"></rect><rect x="103.61" y="357.18" width="7.96" height="8.52" style="fill:none;stroke:#000;stroke-miterlimit:10"></rect><rect x="115.28" y="357.18" width="7.96" height="8.52" style="fill:none;stroke:#000;stroke-miterlimit:10"></rect><rect x="126.95" y="357.18" width="7.96" height="8.52" style="fill:none;stroke:#000;stroke-miterlimit:10"></rect><rect x="138.63" y="357.18" width="7.96" height="8.52" style="fill:none;stroke:#000;stroke-miterlimit:10"></rect><rect x="103.61" y="370.69" width="7.96" height="8.52" style="fill:none;stroke:#000;stroke-miterlimit:10"></rect><rect x="115.28" y="370.69" width="7.96" height="8.52" style="fill:none;stroke:#000;stroke-miterlimit:10"></rect><rect x="126.95" y="370.69" width="7.96" height="8.52" style="fill:none;stroke:#000;stroke-miterlimit:10"></rect><rect x="138.63" y="370.69" width="7.96" height="8.52" style="fill:none;stroke:#000;stroke-miterlimit:10"></rect><rect x="103.61" y="384.19" width="7.96" height="8.52" style="fill:none;stroke:#000;stroke-miterlimit:10"></rect><rect x="115.28" y="384.19" width="7.96" height="8.52" style="fill:none;stroke:#000;stroke-miterlimit:10"></rect><rect x="126.95" y="384.19" width="7.96" height="8.52" style="fill:none;stroke:#000;stroke-miterlimit:10"></rect><rect x="138.63" y="384.19" width="7.96" height="8.52" style="fill:none;stroke:#000;stroke-miterlimit:10"></rect><rect x="149.2" y="289.67" width="7.96" height="8.52" style="fill:none;stroke:#000;stroke-miterlimit:10"></rect><rect x="160.87" y="289.67" width="7.96" height="8.52" style="fill:none;stroke:#000;stroke-miterlimit:10"></rect><rect x="172.54" y="289.67" width="7.96" height="8.52" style="fill:none;stroke:#000;stroke-miterlimit:10"></rect><rect x="184.21" y="289.67" width="7.96" height="8.52" style="fill:none;stroke:#000;stroke-miterlimit:10"></rect><rect x="149.2" y="303.17" width="7.96" height="8.52" style="fill:none;stroke:#000;stroke-miterlimit:10"></rect><rect x="160.87" y="303.17" width="7.96" height="8.52" style="fill:none;stroke:#000;stroke-miterlimit:10"></rect><rect x="172.54" y="303.17" width="7.96" height="8.52" style="fill:none;stroke:#000;stroke-miterlimit:10"></rect><rect x="184.21" y="303.17" width="7.96" height="8.52" style="fill:none;stroke:#000;stroke-miterlimit:10"></rect><rect x="149.2" y="316.67" width="7.96" height="8.52" style="fill:none;stroke:#000;stroke-miterlimit:10"></rect><rect x="160.87" y="316.67" width="7.96" height="8.52" style="fill:none;stroke:#000;stroke-miterlimit:10"></rect><rect x="172.54" y="316.67" width="7.96" height="8.52" style="fill:none;stroke:#000;stroke-miterlimit:10"></rect><rect x="184.21" y="316.67" width="7.96" height="8.52" style="fill:none;stroke:#000;stroke-miterlimit:10"></rect><rect x="149.2" y="330.18" width="7.96" height="8.52" style="fill:none;stroke:#000;stroke-miterlimit:10"></rect><rect x="160.87" y="330.18" width="7.96" height="8.52" style="fill:none;stroke:#000;stroke-miterlimit:10"></rect><rect x="172.54" y="330.18" width="7.96" height="8.52" style="fill:none;stroke:#000;stroke-miterlimit:10"></rect><rect x="184.21" y="330.18" width="7.96" height="8.52" style="fill:none;stroke:#000;stroke-miterlimit:10"></rect><rect x="149.2" y="343.68" width="7.96" height="8.52" style="fill:none;stroke:#000;stroke-miterlimit:10"></rect><rect x="160.87" y="343.68" width="7.96" height="8.52" style="fill:none;stroke:#000;stroke-miterlimit:10"></rect><rect x="172.54" y="343.68" width="7.96" height="8.52" style="fill:none;stroke:#000;stroke-miterlimit:10"></rect><rect x="184.21" y="343.68" width="7.96" height="8.52" style="fill:none;stroke:#000;stroke-miterlimit:10"></rect><rect x="149.2" y="357.18" width="7.96" height="8.52" style="fill:none;stroke:#000;stroke-miterlimit:10"></rect><rect x="160.87" y="357.18" width="7.96" height="8.52" style="fill:none;stroke:#000;stroke-miterlimit:10"></rect><rect x="172.54" y="357.18" width="7.96" height="8.52" style="fill:none;stroke:#000;stroke-miterlimit:10"></rect><rect x="184.21" y="357.18" width="7.96" height="8.52" style="fill:none;stroke:#000;stroke-miterlimit:10"></rect><rect x="149.2" y="370.69" width="7.96" height="8.52" style="fill:none;stroke:#000;stroke-miterlimit:10"></rect><rect x="160.87" y="370.69" width="7.96" height="8.52" style="fill:none;stroke:#000;stroke-miterlimit:10"></rect><rect x="172.54" y="370.69" width="7.96" height="8.52" style="fill:none;stroke:#000;stroke-miterlimit:10"></rect><rect x="184.21" y="370.69" width="7.96" height="8.52" style="fill:none;stroke:#000;stroke-miterlimit:10"></rect><rect x="149.2" y="384.19" width="7.96" height="8.52" style="fill:none;stroke:#000;stroke-miterlimit:10"></rect><rect x="160.87" y="384.19" width="7.96" height="8.52" style="fill:none;stroke:#000;stroke-miterlimit:10"></rect><rect x="172.54" y="384.19" width="7.96" height="8.52" style="fill:none;stroke:#000;stroke-miterlimit:10"></rect><rect x="184.21" y="384.19" width="7.96" height="8.52" style="fill:none;stroke:#000;stroke-miterlimit:10"></rect><rect x="57.39" y="289.67" width="7.96" height="8.52" style="fill:none;stroke:#000;stroke-miterlimit:10"></rect><rect x="69.06" y="289.67" width="7.96" height="8.52" style="fill:none;stroke:#000;stroke-miterlimit:10"></rect><rect x="80.73" y="289.67" width="7.96" height="8.52" style="fill:none;stroke:#000;stroke-miterlimit:10"></rect><rect x="92.4" y="289.67" width="7.96" height="8.52" style="fill:none;stroke:#000;stroke-miterlimit:10"></rect><rect x="57.39" y="303.17" width="7.96" height="8.52" style="fill:none;stroke:#000;stroke-miterlimit:10"></rect><rect x="69.06" y="303.17" width="7.96" height="8.52" style="fill:none;stroke:#000;stroke-miterlimit:10"></rect><rect x="80.73" y="303.17" width="7.96" height="8.52" style="fill:none;stroke:#000;stroke-miterlimit:10"></rect><rect x="92.4" y="303.17" width="7.96" height="8.52" style="fill:none;stroke:#000;stroke-miterlimit:10"></rect><rect x="57.39" y="316.67" width="7.96" height="8.52" style="fill:none;stroke:#000;stroke-miterlimit:10"></rect><rect x="69.06" y="316.67" width="7.96" height="8.52" style="fill:none;stroke:#000;stroke-miterlimit:10"></rect><rect x="80.73" y="316.67" width="7.96" height="8.52" style="fill:none;stroke:#000;stroke-miterlimit:10"></rect><rect x="92.4" y="316.67" width="7.96" height="8.52" style="fill:none;stroke:#000;stroke-miterlimit:10"></rect><rect x="57.39" y="330.18" width="7.96" height="8.52" style="fill:none;stroke:#000;stroke-miterlimit:10"></rect><rect x="69.06" y="330.18" width="7.96" height="8.52" style="fill:none;stroke:#000;stroke-miterlimit:10"></rect><rect x="80.73" y="330.18" width="7.96" height="8.52" style="fill:none;stroke:#000;stroke-miterlimit:10"></rect><rect x="92.4" y="330.18" width="7.96" height="8.52" style="fill:none;stroke:#000;stroke-miterlimit:10"></rect><rect x="57.39" y="343.68" width="7.96" height="8.52" style="fill:none;stroke:#000;stroke-miterlimit:10"></rect><rect x="69.06" y="343.68" width="7.96" height="8.52" style="fill:none;stroke:#000;stroke-miterlimit:10"></rect><rect x="80.73" y="343.68" width="7.96" height="8.52" style="fill:none;stroke:#000;stroke-miterlimit:10"></rect><rect x="92.4" y="343.68" width="7.96" height="8.52" style="fill:none;stroke:#000;stroke-miterlimit:10"></rect><rect x="57.39" y="357.18" width="7.96" height="8.52" style="fill:none;stroke:#000;stroke-miterlimit:10"></rect><rect x="69.06" y="357.18" width="7.96" height="8.52" style="fill:none;stroke:#000;stroke-miterlimit:10"></rect><rect x="80.73" y="357.18" width="7.96" height="8.52" style="fill:none;stroke:#000;stroke-miterlimit:10"></rect><rect x="92.4" y="357.18" width="7.96" height="8.52" style="fill:none;stroke:#000;stroke-miterlimit:10"></rect><rect x="57.39" y="370.69" width="7.96" height="8.52" style="fill:none;stroke:#000;stroke-miterlimit:10"></rect><rect x="69.06" y="370.69" width="7.96" height="8.52" style="fill:none;stroke:#000;stroke-miterlimit:10"></rect><rect x="80.73" y="370.69" width="7.96" height="8.52" style="fill:none;stroke:#000;stroke-miterlimit:10"></rect><rect x="92.4" y="370.69" width="7.96" height="8.52" style="fill:none;stroke:#000;stroke-miterlimit:10"></rect><rect x="57.39" y="384.19" width="7.96" height="8.52" style="fill:none;stroke:#000;stroke-miterlimit:10"></rect><rect x="69.06" y="384.19" width="7.96" height="8.52" style="fill:none;stroke:#000;stroke-miterlimit:10"></rect><rect x="80.73" y="384.19" width="7.96" height="8.52" style="fill:none;stroke:#000;stroke-miterlimit:10"></rect><rect x="92.4" y="384.19" width="7.96" height="8.52" style="fill:none;stroke:#000;stroke-miterlimit:10"></rect><rect x="318.08" y="263.2" width="7.96" height="8.52" style="fill:none;stroke:#000;stroke-miterlimit:10"></rect><rect x="329.75" y="263.2" width="7.96" height="8.52" style="fill:none;stroke:#000;stroke-miterlimit:10"></rect><rect x="341.42" y="263.2" width="7.96" height="8.52" style="fill:none;stroke:#000;stroke-miterlimit:10"></rect><rect x="353.09" y="263.2" width="7.96" height="8.52" style="fill:none;stroke:#000;stroke-miterlimit:10"></rect><rect x="318.08" y="276.7" width="7.96" height="8.52" style="fill:none;stroke:#000;stroke-miterlimit:10"></rect><rect x="329.75" y="276.7" width="7.96" height="8.52" style="fill:none;stroke:#000;stroke-miterlimit:10"></rect><rect x="341.42" y="276.7" width="7.96" height="8.52" style="fill:none;stroke:#000;stroke-miterlimit:10"></rect><rect x="353.09" y="276.7" width="7.96" height="8.52" style="fill:none;stroke:#000;stroke-miterlimit:10"></rect><rect x="318.08" y="290.2" width="7.96" height="8.52" style="fill:none;stroke:#000;stroke-miterlimit:10"></rect><rect x="329.75" y="290.2" width="7.96" height="8.52" style="fill:none;stroke:#000;stroke-miterlimit:10"></rect><rect x="341.42" y="290.2" width="7.96" height="8.52" style="fill:none;stroke:#000;stroke-miterlimit:10"></rect><rect x="353.09" y="290.2" width="7.96" height="8.52" style="fill:none;stroke:#000;stroke-miterlimit:10"></rect><rect x="318.08" y="303.71" width="7.96" height="8.52" style="fill:none;stroke:#000;stroke-miterlimit:10"></rect><rect x="329.75" y="303.71" width="7.96" height="8.52" style="fill:none;stroke:#000;stroke-miterlimit:10"></rect><rect x="341.42" y="303.71" width="7.96" height="8.52" style="fill:none;stroke:#000;stroke-miterlimit:10"></rect><rect x="353.09" y="303.71" width="7.96" height="8.52" style="fill:none;stroke:#000;stroke-miterlimit:10"></rect><rect x="318.08" y="317.21" width="7.96" height="8.52" style="fill:none;stroke:#000;stroke-miterlimit:10"></rect><rect x="329.75" y="317.21" width="7.96" height="8.52" style="fill:none;stroke:#000;stroke-miterlimit:10"></rect><rect x="341.42" y="317.21" width="7.96" height="8.52" style="fill:none;stroke:#000;stroke-miterlimit:10"></rect><rect x="353.09" y="317.21" width="7.96" height="8.52" style="fill:none;stroke:#000;stroke-miterlimit:10"></rect><rect x="318.08" y="330.71" width="7.96" height="8.52" style="fill:none;stroke:#000;stroke-miterlimit:10"></rect><rect x="329.75" y="330.71" width="7.96" height="8.52" style="fill:none;stroke:#000;stroke-miterlimit:10"></rect><rect x="341.42" y="330.71" width="7.96" height="8.52" style="fill:none;stroke:#000;stroke-miterlimit:10"></rect><rect x="353.09" y="330.71" width="7.96" height="8.52" style="fill:none;stroke:#000;stroke-miterlimit:10"></rect><rect x="318.08" y="344.22" width="7.96" height="8.52" style="fill:none;stroke:#000;stroke-miterlimit:10"></rect><rect x="329.75" y="344.22" width="7.96" height="8.52" style="fill:none;stroke:#000;stroke-miterlimit:10"></rect><rect x="341.42" y="344.22" width="7.96" height="8.52" style="fill:none;stroke:#000;stroke-miterlimit:10"></rect><rect x="353.09" y="344.22" width="7.96" height="8.52" style="fill:none;stroke:#000;stroke-miterlimit:10"></rect><rect x="318.08" y="357.72" width="7.96" height="8.52" style="fill:none;stroke:#000;stroke-miterlimit:10"></rect><rect x="329.75" y="357.72" width="7.96" height="8.52" style="fill:none;stroke:#000;stroke-miterlimit:10"></rect><rect x="341.42" y="357.72" width="7.96" height="8.52" style="fill:none;stroke:#000;stroke-miterlimit:10"></rect><rect x="353.09" y="357.72" width="7.96" height="8.52" style="fill:none;stroke:#000;stroke-miterlimit:10"></rect><line x1="229.08" y1="154.55" x2="229.08" y2="401.3" style="fill:none;stroke:#000;stroke-miterlimit:10"></line><line x1="236.97" y1="154.55" x2="236.97" y2="401.3" style="fill:none;stroke:#000;stroke-miterlimit:10"></line><line x1="244.86" y1="154.55" x2="244.86" y2="393.3" style="fill:none;stroke:#000;stroke-miterlimit:10"></line><line x1="252.75" y1="154.55" x2="252.75" y2="393.3" style="fill:none;stroke:#000;stroke-miterlimit:10"></line><line x1="260.65" y1="154.55" x2="260.65" y2="393.3" style="fill:none;stroke:#000;stroke-miterlimit:10"></line><line x1="268.54" y1="154.55" x2="268.54" y2="393.3" style="fill:none;stroke:#000;stroke-miterlimit:10"></line><line x1="276.43" y1="154.55" x2="276.43" y2="393.3" style="fill:none;stroke:#000;stroke-miterlimit:10"></line><line x1="284.32" y1="154.55" x2="284.32" y2="393.3" style="fill:none;stroke:#000;stroke-miterlimit:10"></line></g></g><g id="freepik--Floor--inject-7"><line x1="4" y1="436.33" x2="465" y2="436.33" style="fill:none;stroke:#263238;stroke-miterlimit:10"></line></g><g id="freepik--Character--inject-7"><path d="M249.94,243.81s9.62-16.63,11-17.5,6.66-.7,7.18,0,.18,9.8-.35,10.32-9.8,3.85-9.8,3.85l-6.83,18.38Z" transform="translate(-17 -16.9)" style="fill:#fff;stroke:#263238;stroke-linecap:round;stroke-linejoin:round"></path><path d="M266.33,238l.17,3.72a3.57,3.57,0,0,0,3.75,3.41h0a3.59,3.59,0,0,0,3.42-3.58v-9.91" transform="translate(-17 -16.9)" style="fill:none;stroke:#263238;stroke-linecap:round;stroke-linejoin:round;stroke-width:3px"></path><line x1="242.33" y1="71.44" x2="249.33" y2="221.13" style="fill:none;stroke:#263238;stroke-linecap:round;stroke-linejoin:round;stroke-width:2px"></line><path d="M255.36,237.51s.18-8,.88-9.63,4.55-3.5,5.6-5.25,3-2.45,3-.7-1.57,3.33-1.92,3.85-.88,5.95-1.93,7.53a16.36,16.36,0,0,1-1.75,2.27" transform="translate(-17 -16.9)" style="fill:#fff;stroke:#263238;stroke-linecap:round;stroke-linejoin:round"></path><path d="M264.64,223.68,265,226s5.6.7,5.95-.53.88-2.28.18-2.63S265,223,265,223Z" transform="translate(-17 -16.9)" style="fill:#fff;stroke:#263238;stroke-linecap:round;stroke-linejoin:round"></path><path d="M269.72,226.31s-5.43-.18-5.78.52a6.4,6.4,0,0,0,0,2.63s5.43.17,6.3-.35S270.42,226.31,269.72,226.31Z" transform="translate(-17 -16.9)" style="fill:#fff;stroke:#263238;stroke-linecap:round;stroke-linejoin:round"></path><path d="M270.24,229.11a22.41,22.41,0,0,1-.87,2.45c-.35.7-4.91,1.05-5.43.7s-.88-2.63,0-2.8S270.24,229.11,270.24,229.11Z" transform="translate(-17 -16.9)" style="fill:#fff;stroke:#263238;stroke-linecap:round;stroke-linejoin:round"></path><path d="M269.37,231.56s.87,1.92-.35,3-5.43,1.4-5.43.18.52-2.28,1.4-2.28A38,38,0,0,0,269.37,231.56Z" transform="translate(-17 -16.9)" style="fill:#fff;stroke:#263238;stroke-linecap:round;stroke-linejoin:round"></path><path d="M192.12,145.7a87.8,87.8,0,0,1,26,2.17c12.33-5.31,28.44-8.54,46.09-8.54a125.74,125.74,0,0,1,39.1,5.88c7.79-4.17,19.12-7.14,31.85-7.85a93.38,93.38,0,0,1,20.89,1.1C342.74,107.86,307.6,86,266.33,86c-45.7,0-83.89,26.83-93.17,62.63A93.84,93.84,0,0,1,192.12,145.7Z" transform="translate(-17 -16.9)" style="fill:#FF81AE;stroke:#263238;stroke-linecap:round;stroke-linejoin:round"></path><line x1="186.91" y1="83.71" x2="190.27" y2="85.15" style="fill:none;stroke:#263238;stroke-linecap:round;stroke-linejoin:round"></line><line x1="193.64" y1="78.43" x2="193.64" y2="81.31" style="fill:none;stroke:#263238;stroke-linecap:round;stroke-linejoin:round"></line><line x1="182.1" y1="87.07" x2="184.99" y2="87.07" style="fill:none;stroke:#263238;stroke-linecap:round;stroke-linejoin:round"></line><line x1="248.41" y1="64.01" x2="249.85" y2="66.41" style="fill:none;stroke:#263238;stroke-linecap:round;stroke-linejoin:round"></line><line x1="254.66" y1="68.34" x2="257.54" y2="63.05" style="fill:none;stroke:#263238;stroke-linecap:round;stroke-linejoin:round"></line><line x1="289.73" y1="73.62" x2="290.21" y2="76.5" style="fill:none;stroke:#263238;stroke-linecap:round;stroke-linejoin:round"></line><line x1="294.53" y1="76.5" x2="299.82" y2="72.18" style="fill:none;stroke:#263238;stroke-linecap:round;stroke-linejoin:round"></line><line x1="310.39" y1="83.71" x2="310.87" y2="86.11" style="fill:none;stroke:#263238;stroke-linecap:round;stroke-linejoin:round"></line><line x1="314.23" y1="87.55" x2="318.56" y2="85.63" style="fill:none;stroke:#263238;stroke-linecap:round;stroke-linejoin:round"></line><line x1="312.79" y1="84.19" x2="312.79" y2="80.83" style="fill:none;stroke:#263238;stroke-linecap:round;stroke-linejoin:round"></line><line x1="323.84" y1="98.61" x2="324.32" y2="94.28" style="fill:none;stroke:#263238;stroke-linecap:round;stroke-linejoin:round"></line><line x1="326.73" y1="100.05" x2="332.49" y2="99.09" style="fill:none;stroke:#263238;stroke-linecap:round;stroke-linejoin:round"></line><line x1="326.73" y1="97.16" x2="329.13" y2="95.72" style="fill:none;stroke:#263238;stroke-linecap:round;stroke-linejoin:round"></line><line x1="163.37" y1="101.01" x2="167.21" y2="102.93" style="fill:none;stroke:#263238;stroke-linecap:round;stroke-linejoin:round"></line><line x1="169.61" y1="97.16" x2="170.09" y2="100.53" style="fill:none;stroke:#263238;stroke-linecap:round;stroke-linejoin:round"></line><line x1="166.25" y1="104.85" x2="163.37" y2="105.33" style="fill:none;stroke:#263238;stroke-linecap:round;stroke-linejoin:round"></line><path d="M220.53,133.39c4.13-13.54,13.88-34.07,36.14-43.06" transform="translate(-17 -16.9)" style="fill:none;stroke:#263238;stroke-linecap:round;stroke-linejoin:round"></path><path d="M217.67,146.33a66.38,66.38,0,0,1,1.69-8.74" transform="translate(-17 -16.9)" style="fill:none;stroke:#263238;stroke-linecap:round;stroke-linejoin:round"></path><path d="M302.05,139.48c.33,1.36.65,2.75.95,4.19" transform="translate(-17 -16.9)" style="fill:none;stroke:#263238;stroke-linecap:round;stroke-linejoin:round"></path><path d="M267,91.33s23.14,3,34.32,45.25" transform="translate(-17 -16.9)" style="fill:none;stroke:#263238;stroke-linecap:round;stroke-linejoin:round"></path><line x1="242.13" y1="69.15" x2="241.96" y2="64.46" style="fill:none;stroke:#263238;stroke-linecap:round;stroke-linejoin:round;stroke-width:2px"></line><path d="M266.87,396.82s2.24,4-.22,5.59-21-.23-22.58-.67,9.84-6.71,15-7.38A9,9,0,0,1,266.87,396.82Z" transform="translate(-17 -16.9)" style="fill:#263238;stroke:#263238;stroke-linecap:round;stroke-linejoin:round"></path><path d="M273.7,394.31s-16.22,5.41-23.15,7.43a54.49,54.49,0,0,1-17.43,2c-3.81-.22-8.72-9.17-3.36-13s29.07-4,32.64-4S272.25,390,273.7,394.31Z" transform="translate(-17 -16.9)" style="fill:#737373;stroke:#263238;stroke-linecap:round;stroke-linejoin:round"></path><path d="M239.82,393.46s3.13,13,5.37,21.24,3.58,16.55,3.58,16.55-4.48,8.94-4.25,11.4,1.34,9.84,1.34,9.84h2.23s-.22-3.58-.22-5.59a13.81,13.81,0,0,1,.22-2.91s4.7,5.59,5.59,7.16a3,3,0,0,0,2.69,1.78c.67,0,10.61.67,11.73,0s1.12-1.11,0-2-7.26-6.26-7.26-6.26-2.24-9.39-3.36-12.07a20.07,20.07,0,0,1-1.34-4.25l-.22-35.77Z" transform="translate(-17 -16.9)" style="fill:#fff;stroke:#263238;stroke-linecap:round;stroke-linejoin:round"></path><path d="M248.09,452.49s-.22-3.58-.22-5.59a13.81,13.81,0,0,1,.22-2.91s4.7,5.59,5.59,7.16a3,3,0,0,0,2.69,1.78c.67,0,10.61.67,11.73,0s1.12-1.11,0-2c-.39-.31-1.26-1.16-2.24-2.13-2,.37-5,.83-6.14.34-1.36-.58-11.2-9.47-13.72-11.76-.86,2.14-1.58,4.26-1.48,5.28.22,2.46,1.34,9.84,1.34,9.84Z" transform="translate(-17 -16.9)" style="fill:#263238;stroke:#263238;stroke-linecap:round;stroke-linejoin:round"></path><path d="M199.8,397.94l-12.07,17.21s-5.81-2-7.38-1.79-12.52,4.47-12.52,4.47l.23,1.35L179,416.94a22.79,22.79,0,0,1-3.13,9.39c-2.68,4-4.69,5.14-4.69,8.5s.22,10.5,2.23,10.5,3.13-3.8,4.25-5.81,9.17-9.84,11-13.19a66,66,0,0,1,4-6.48l22.8-18.78Z" transform="translate(-17 -16.9)" style="fill:#fff;stroke:#263238;stroke-linecap:round;stroke-linejoin:round"></path><path d="M176.55,438.63c-3.13-1.12-3.13-2.69-1.56-5.59s5.59-7.6,6.7-11.41c.79-2.65,2-5.85,2.66-7.53a13.82,13.82,0,0,0-4-.74c-1.56.23-12.52,4.47-12.52,4.47l.23,1.35L179,416.94a22.79,22.79,0,0,1-3.13,9.39c-2.68,4-4.69,5.14-4.69,8.5s.22,10.5,2.23,10.5,3.13-3.8,4.25-5.81a4.66,4.66,0,0,1,.29-.45C177.52,439,177.06,438.81,176.55,438.63Z" transform="translate(-17 -16.9)" style="fill:#263238;stroke:#263238;stroke-linecap:round;stroke-linejoin:round"></path><path d="M251.09,279.23s2.77,26.3,2.77,30.91a73.8,73.8,0,0,0,.92,10.15s6,17.3,10.15,32.29,8.77,41.73,8.77,41.73-29.07,1.84-37.37,3-5.53,1.84-3.23,2.3,9.46,3,7.84,3.93-15,2.07-27,.46-22.38-8.08-22.38-8.08L192,392l-8.53-4.61s16.38-55.57,17.3-60.18,1.44-15.7,1.9-20.54,3.95-21,6.48-28.62C209.19,278.05,234.72,282,251.09,279.23Z" transform="translate(-17 -16.9)" style="fill:#263238;stroke:#263238;stroke-linecap:round;stroke-linejoin:round"></path><path d="M229.76,387c-.06-12.15-.32-32.11-1.34-46.12" transform="translate(-17 -16.9)" style="fill:none;stroke:#878787;stroke-linecap:round;stroke-linejoin:round"></path><path d="M229.76,397.71s0-2.64,0-6.93" transform="translate(-17 -16.9)" style="fill:none;stroke:#878787;stroke-linecap:round;stroke-linejoin:round"></path><path d="M200.86,343.3c.1-.6.19-1.18.28-1.75" transform="translate(-17 -16.9)" style="fill:none;stroke:#878787;stroke-linecap:round;stroke-linejoin:round"></path><path d="M192.43,388.77s4.9-24.74,7.95-42.63" transform="translate(-17 -16.9)" style="fill:none;stroke:#878787;stroke-linecap:round;stroke-linejoin:round"></path><path d="M237.48,224.34c.7.46,13.15,16.14,14.77,22.37s.92,13.84.69,19.38,0,12.45-.92,13.37-11.08,3.69-20.76,2.77-26.3-1.61-28.61-4.84,1.39-21.68,1.39-30-.23-10.84,2.54-15.91,10.61-9.92,16.6-10.38S237.48,224.34,237.48,224.34Z" transform="translate(-17 -16.9)" style="fill:#FF81AE;stroke:#263238;stroke-linecap:round;stroke-linejoin:round"></path><path d="M247.86,183.05s-.46,5.76.7,8.07a16.64,16.64,0,0,0,2.76,3.92l-3,3.69s-1.62,6.92-3.23,7.85-8.77.92-8.77.92-.23,14.07-.23,14.76S222.49,216,222.49,216s2.54-9.92,1.39-13.14-5.08-5.77-6.92-9,2.53-13.61,10.38-18,11.07-4.62,15.68-2.54S247.86,183.05,247.86,183.05Z" transform="translate(-17 -16.9)" style="fill:#fff;stroke:#263238;stroke-linecap:round;stroke-linejoin:round"></path><path d="M242.79,189.74s2.08-1.39,3.23,0" transform="translate(-17 -16.9)" style="fill:none;stroke:#263238;stroke-linecap:round;stroke-linejoin:round"></path><path d="M246.25,198.73a2.48,2.48,0,0,1-3-.46" transform="translate(-17 -16.9)" style="fill:none;stroke:#263238;stroke-linecap:round;stroke-linejoin:round"></path><path d="M225.26,192.51a21.84,21.84,0,0,0,7.61-3.23c3.69-2.54,5.08-5.77,5.31-7.38a20.12,20.12,0,0,0,.23-2.54l2.3,6.23s.93.46,5.08-.93a42.92,42.92,0,0,0,7.61-3.46s-.46-7.61-5.31-11.07a31.05,31.05,0,0,0-10.61-4.61,21.72,21.72,0,0,0-15.68-.23c-8.07,3.23-12,12.45-11.53,19.83s5.3,11.08,8.53,12S225.26,192.51,225.26,192.51Z" transform="translate(-17 -16.9)" style="fill:#263238;stroke:#263238;stroke-linecap:round;stroke-linejoin:round"></path><path d="M227.8,194.35s-2.08-6.69-6.46-3.92-2.08,8.07,1.38,10.15,5.54-.23,5.54-.23" transform="translate(-17 -16.9)" style="fill:#fff;stroke:#263238;stroke-miterlimit:10"></path><path d="M213,173.82s-7.38-.23-12.45,4.62-3.92,27-4.15,31.83a45.52,45.52,0,0,1-.7,6.92,28.52,28.52,0,0,0,9.92,1.61A31.9,31.9,0,0,0,217,216.49s-7.15-16.14-7.39-25.83S210,181,213,173.82Z" transform="translate(-17 -16.9)" style="fill:#263238;stroke:#263238;stroke-linecap:round;stroke-linejoin:round"></path><path d="M240.48,225a40.32,40.32,0,0,0-9.92-9.69c-5.76-3.69-7.38-1.84-13.6,1.15s-10.85,6.23-11.77,10.85-3,7.84-.92,7.61,5.77-5.77,10.38-9.23,10.15-3.69,14.76-2.54,11.3,6,12.46,4.85S240.48,225,240.48,225Z" transform="translate(-17 -16.9)" style="fill:#FF81AE;stroke:#263238;stroke-linecap:round;stroke-linejoin:round"></path><path d="M213,230.21A15,15,0,0,1,226.18,228c7.83,2.24,8.95,8.28,9.39,16.77s1.35,54.78,1.35,54.78l-2.24-2.46-1.12-47.85s-1.56-13-5.36-16.54-10.73-3.36-14.09-1.34a26.58,26.58,0,0,0-4,2.68s-4.92,7.6-6,15-3.13,47.84-3.13,47.84L197.79,298l4-47.17S204.27,235,213,230.21Z" transform="translate(-17 -16.9)" style="fill:#878787;stroke:#263238;stroke-linecap:round;stroke-linejoin:round"></path><path d="M232.67,295.27s-18.78,2-26.38.44-10.06,1.35-10.73,5.15-1.12,14.08-3.13,19.89.22,7.83,3.35,8.95,26.38,4.24,33.53,3.57,10.07-1.56,11.18-4.47-3.35-24.49-3.24-28.12A5.21,5.21,0,0,0,232.67,295.27Z" transform="translate(-17 -16.9)" style="fill:#878787;stroke:#263238;stroke-linecap:round;stroke-linejoin:round"></path><path d="M195.78,311.14s32.86,2.68,37.11,2,2.46-6.93,2.46-11.4,1.12-1.34,1.57,3.58" transform="translate(-17 -16.9)" style="fill:none;stroke:#263238;stroke-linecap:round;stroke-linejoin:round"></path><path d="M226,285.69s3.92,3.92,5.31,4.38,6.69,1.16,8.76,2.31,2.31,6,2.31,7.84-1.39,2.31-2.77,3.46-2.31-3-2.31-3a11.28,11.28,0,0,1-5.3-1.84c-2.08-1.62-3.23-5.08-3.23-5.08l-6-1.84Z" transform="translate(-17 -16.9)" style="fill:#fff;stroke:#263238;stroke-linecap:round;stroke-linejoin:round"></path><path d="M221.8,275.31a67.58,67.58,0,0,0,9-14.53c3.22-7.61,3.69-21,1.61-26.29s-12.69-10.15-20.3-3a83.63,83.63,0,0,0-20.07,30c-4.38,11.77-3,18.92,4.85,24.45s12.45,10.61,20.07,10.84,9.45-6.22,9.45-6.92,1.85-2.07,1.39-7.15S221.8,275.31,221.8,275.31Z" transform="translate(-17 -16.9)" style="fill:#FF81AE;stroke:#263238;stroke-linecap:round;stroke-linejoin:round"></path><line x1="204.8" y1="258.41" x2="192.34" y2="252.42" style="fill:none;stroke:#263238;stroke-linecap:round;stroke-linejoin:round"></line></g><g id="freepik--Rain--inject-7"><line x1="77.99" y1="390.1" x2="78.41" y2="406.3" style="fill:none;stroke:#757575;stroke-linecap:round;stroke-linejoin:round"></line><line x1="72.91" y1="244.18" x2="76.95" y2="360.14" style="fill:none;stroke:#757575;stroke-linecap:round;stroke-linejoin:round"></line><line x1="70.71" y1="181.11" x2="72.31" y2="227.09" style="fill:none;stroke:#757575;stroke-linecap:round;stroke-linejoin:round"></line><line x1="68.24" y1="110.13" x2="70.29" y2="169.13" style="fill:none;stroke:#757575;stroke-linecap:round;stroke-linejoin:round"></line><line x1="66.13" y1="41.9" x2="67.16" y2="79.13" style="fill:none;stroke:#757575;stroke-linecap:round;stroke-linejoin:round"></line><line x1="426.99" y1="401.1" x2="428" y2="430.1" style="fill:none;stroke:#757575;stroke-linecap:round;stroke-linejoin:round"></line><line x1="418.91" y1="244.18" x2="422.95" y2="360.14" style="fill:none;stroke:#757575;stroke-linecap:round;stroke-linejoin:round"></line><line x1="416.71" y1="181.11" x2="418.31" y2="227.09" style="fill:none;stroke:#757575;stroke-linecap:round;stroke-linejoin:round"></line><line x1="414.24" y1="110.13" x2="416.29" y2="169.13" style="fill:none;stroke:#757575;stroke-linecap:round;stroke-linejoin:round"></line><line x1="412.84" y1="55.08" x2="413.16" y2="79.13" style="fill:none;stroke:#757575;stroke-linecap:round;stroke-linejoin:round"></line><line x1="94.31" y1="410.11" x2="94" y2="426.1" style="fill:none;stroke:#757575;stroke-linecap:round;stroke-linejoin:round"></line><line x1="95.47" y1="351.09" x2="94.57" y2="397.09" style="fill:none;stroke:#757575;stroke-linecap:round;stroke-linejoin:round"></line><line x1="97.95" y1="225.12" x2="96.06" y2="321.12" style="fill:none;stroke:#757575;stroke-linecap:round;stroke-linejoin:round"></line><line x1="99.88" y1="127.06" x2="98.62" y2="191.06" style="fill:none;stroke:#757575;stroke-linecap:round;stroke-linejoin:round"></line><line x1="100.6" y1="65.22" x2="100.37" y2="102.09" style="fill:none;stroke:#757575;stroke-linecap:round;stroke-linejoin:round"></line><line x1="129.55" y1="405.11" x2="129.98" y2="427.01" style="fill:none;stroke:#757575;stroke-linecap:round;stroke-linejoin:round"></line><line x1="128.31" y1="355.17" x2="129.2" y2="391.1" style="fill:none;stroke:#757575;stroke-linecap:round;stroke-linejoin:round"></line><line x1="126.41" y1="279.14" x2="127.68" y2="330.14" style="fill:none;stroke:#757575;stroke-linecap:round;stroke-linejoin:round"></line><line x1="124.07" y1="185.13" x2="125.76" y2="253.16" style="fill:none;stroke:#757575;stroke-linecap:round;stroke-linejoin:round"></line><line x1="121.95" y1="100.15" x2="123.54" y2="164.14" style="fill:none;stroke:#757575;stroke-linecap:round;stroke-linejoin:round"></line><line x1="120.67" y1="49.14" x2="121.5" y2="82.11" style="fill:none;stroke:#757575;stroke-linecap:round;stroke-linejoin:round"></line><line x1="120" y1="22.1" x2="120.45" y2="40.14" style="fill:none;stroke:#757575;stroke-linecap:round;stroke-linejoin:round"></line><line x1="10.31" y1="410.11" x2="10" y2="426.1" style="fill:none;stroke:#757575;stroke-linecap:round;stroke-linejoin:round"></line><line x1="11.47" y1="351.09" x2="10.57" y2="397.09" style="fill:none;stroke:#757575;stroke-linecap:round;stroke-linejoin:round"></line><line x1="13.95" y1="225.12" x2="12.06" y2="321.12" style="fill:none;stroke:#757575;stroke-linecap:round;stroke-linejoin:round"></line><line x1="15.88" y1="127.06" x2="14.62" y2="191.06" style="fill:none;stroke:#757575;stroke-linecap:round;stroke-linejoin:round"></line><line x1="16.45" y1="115.91" x2="16.37" y2="102.09" style="fill:none;stroke:#757575;stroke-linecap:round;stroke-linejoin:round"></line><line x1="45.55" y1="405.11" x2="45.98" y2="434.82" style="fill:none;stroke:#757575;stroke-linecap:round;stroke-linejoin:round"></line><line x1="44.31" y1="355.17" x2="45.2" y2="391.1" style="fill:none;stroke:#757575;stroke-linecap:round;stroke-linejoin:round"></line><line x1="42.41" y1="279.14" x2="43.68" y2="330.14" style="fill:none;stroke:#757575;stroke-linecap:round;stroke-linejoin:round"></line><line x1="40.07" y1="185.13" x2="41.76" y2="253.16" style="fill:none;stroke:#757575;stroke-linecap:round;stroke-linejoin:round"></line><line x1="37.95" y1="100.15" x2="39.54" y2="164.14" style="fill:none;stroke:#757575;stroke-linecap:round;stroke-linejoin:round"></line><line x1="38.03" y1="55.56" x2="38.48" y2="73.6" style="fill:none;stroke:#757575;stroke-linecap:round;stroke-linejoin:round"></line><line x1="175.99" y1="390.1" x2="177" y2="419.1" style="fill:none;stroke:#757575;stroke-linecap:round;stroke-linejoin:round"></line><line x1="170.91" y1="244.18" x2="174.95" y2="360.14" style="fill:none;stroke:#757575;stroke-linecap:round;stroke-linejoin:round"></line><line x1="168.71" y1="181.11" x2="170.31" y2="227.09" style="fill:none;stroke:#757575;stroke-linecap:round;stroke-linejoin:round"></line><line x1="166.24" y1="110.13" x2="168.29" y2="169.13" style="fill:none;stroke:#757575;stroke-linecap:round;stroke-linejoin:round"></line><line x1="163" y1="17.1" x2="165.16" y2="79.13" style="fill:none;stroke:#757575;stroke-linecap:round;stroke-linejoin:round"></line><line x1="201.31" y1="410.11" x2="201" y2="426.1" style="fill:none;stroke:#757575;stroke-linecap:round;stroke-linejoin:round"></line><line x1="202" y1="377.44" x2="201.57" y2="397.09" style="fill:none;stroke:#757575;stroke-linecap:round;stroke-linejoin:round"></line><line x1="204.95" y1="225.12" x2="203.33" y2="289.44" style="fill:none;stroke:#757575;stroke-linecap:round;stroke-linejoin:round"></line><line x1="206.88" y1="127.06" x2="206.67" y2="144.1" style="fill:none;stroke:#757575;stroke-linecap:round;stroke-linejoin:round"></line><line x1="209" y1="19.1" x2="207.37" y2="102.09" style="fill:none;stroke:#757575;stroke-linecap:round;stroke-linejoin:round"></line><line x1="236.55" y1="405.11" x2="237" y2="423.1" style="fill:none;stroke:#757575;stroke-linecap:round;stroke-linejoin:round"></line><line x1="235.31" y1="355.17" x2="236.2" y2="391.1" style="fill:none;stroke:#757575;stroke-linecap:round;stroke-linejoin:round"></line><line x1="233.41" y1="279.14" x2="234.68" y2="330.14" style="fill:none;stroke:#757575;stroke-linecap:round;stroke-linejoin:round"></line><line x1="231.07" y1="185.13" x2="232.76" y2="253.16" style="fill:none;stroke:#757575;stroke-linecap:round;stroke-linejoin:round"></line><line x1="228.95" y1="100.15" x2="230.54" y2="164.14" style="fill:none;stroke:#757575;stroke-linecap:round;stroke-linejoin:round"></line><line x1="227.67" y1="49.14" x2="228.5" y2="82.11" style="fill:none;stroke:#757575;stroke-linecap:round;stroke-linejoin:round"></line><line x1="227" y1="22.1" x2="227.45" y2="40.14" style="fill:none;stroke:#757575;stroke-linecap:round;stroke-linejoin:round"></line><line x1="331.01" y1="404.1" x2="330" y2="433.1" style="fill:none;stroke:#757575;stroke-linecap:round;stroke-linejoin:round"></line><line x1="336.09" y1="244.18" x2="332.05" y2="360.14" style="fill:none;stroke:#757575;stroke-linecap:round;stroke-linejoin:round"></line><line x1="338.29" y1="181.11" x2="336.69" y2="227.09" style="fill:none;stroke:#757575;stroke-linecap:round;stroke-linejoin:round"></line><line x1="340.76" y1="110.13" x2="338.71" y2="169.13" style="fill:none;stroke:#757575;stroke-linecap:round;stroke-linejoin:round"></line><line x1="344" y1="17.1" x2="341.84" y2="79.13" style="fill:none;stroke:#757575;stroke-linecap:round;stroke-linejoin:round"></line><line x1="305.69" y1="410.11" x2="306" y2="426.1" style="fill:none;stroke:#757575;stroke-linecap:round;stroke-linejoin:round"></line><line x1="304.53" y1="351.09" x2="305.43" y2="397.09" style="fill:none;stroke:#757575;stroke-linecap:round;stroke-linejoin:round"></line><line x1="302.05" y1="225.12" x2="303.94" y2="321.12" style="fill:none;stroke:#757575;stroke-linecap:round;stroke-linejoin:round"></line><line x1="300.12" y1="127.06" x2="301.38" y2="191.06" style="fill:none;stroke:#757575;stroke-linecap:round;stroke-linejoin:round"></line><line x1="298" y1="19.1" x2="299.63" y2="102.09" style="fill:none;stroke:#757575;stroke-linecap:round;stroke-linejoin:round"></line><line x1="270.45" y1="405.11" x2="269.85" y2="432.87" style="fill:none;stroke:#757575;stroke-linecap:round;stroke-linejoin:round"></line><line x1="271.69" y1="355.17" x2="270.8" y2="391.1" style="fill:none;stroke:#757575;stroke-linecap:round;stroke-linejoin:round"></line><line x1="273.59" y1="279.14" x2="272.32" y2="330.14" style="fill:none;stroke:#757575;stroke-linecap:round;stroke-linejoin:round"></line><line x1="275.93" y1="185.13" x2="274.24" y2="253.16" style="fill:none;stroke:#757575;stroke-linecap:round;stroke-linejoin:round"></line><line x1="278.05" y1="100.15" x2="276.46" y2="164.14" style="fill:none;stroke:#757575;stroke-linecap:round;stroke-linejoin:round"></line><line x1="279.33" y1="49.14" x2="278.5" y2="82.11" style="fill:none;stroke:#757575;stroke-linecap:round;stroke-linejoin:round"></line><line x1="279.02" y1="5.4" x2="279.55" y2="40.14" style="fill:none;stroke:#757575;stroke-linecap:round;stroke-linejoin:round"></line><line x1="420.01" y1="390.1" x2="419" y2="419.1" style="fill:none;stroke:#757575;stroke-linecap:round;stroke-linejoin:round"></line><line x1="425.09" y1="244.18" x2="421.05" y2="360.14" style="fill:none;stroke:#757575;stroke-linecap:round;stroke-linejoin:round"></line><line x1="427.29" y1="181.11" x2="425.69" y2="227.09" style="fill:none;stroke:#757575;stroke-linecap:round;stroke-linejoin:round"></line><line x1="429.76" y1="110.13" x2="427.71" y2="169.13" style="fill:none;stroke:#757575;stroke-linecap:round;stroke-linejoin:round"></line><line x1="430.08" y1="95.63" x2="430.84" y2="79.13" style="fill:none;stroke:#757575;stroke-linecap:round;stroke-linejoin:round"></line><line x1="394.69" y1="410.11" x2="395.26" y2="433.26" style="fill:none;stroke:#757575;stroke-linecap:round;stroke-linejoin:round"></line><line x1="393.53" y1="351.09" x2="394.43" y2="397.09" style="fill:none;stroke:#757575;stroke-linecap:round;stroke-linejoin:round"></line><line x1="391.05" y1="225.12" x2="392.94" y2="321.12" style="fill:none;stroke:#757575;stroke-linecap:round;stroke-linejoin:round"></line><line x1="389.12" y1="127.06" x2="390.38" y2="191.06" style="fill:none;stroke:#757575;stroke-linecap:round;stroke-linejoin:round"></line><line x1="388.51" y1="54.07" x2="388.63" y2="102.09" style="fill:none;stroke:#757575;stroke-linecap:round;stroke-linejoin:round"></line><line x1="359.45" y1="405.11" x2="359" y2="423.1" style="fill:none;stroke:#757575;stroke-linecap:round;stroke-linejoin:round"></line><line x1="360.69" y1="355.17" x2="359.8" y2="391.1" style="fill:none;stroke:#757575;stroke-linecap:round;stroke-linejoin:round"></line><line x1="362.59" y1="279.14" x2="361.32" y2="330.14" style="fill:none;stroke:#757575;stroke-linecap:round;stroke-linejoin:round"></line><line x1="364.93" y1="185.13" x2="363.24" y2="253.16" style="fill:none;stroke:#757575;stroke-linecap:round;stroke-linejoin:round"></line><line x1="367.05" y1="100.15" x2="365.46" y2="164.14" style="fill:none;stroke:#757575;stroke-linecap:round;stroke-linejoin:round"></line><line x1="368.33" y1="49.14" x2="367.5" y2="82.11" style="fill:none;stroke:#757575;stroke-linecap:round;stroke-linejoin:round"></line><line x1="369" y1="22.1" x2="368.55" y2="40.14" style="fill:none;stroke:#757575;stroke-linecap:round;stroke-linejoin:round"></line><line x1="40.52" y1="430.91" x2="42.86" y2="433.65" style="fill:none;stroke:#757575;stroke-linecap:round;stroke-linejoin:round"></line><path d="M65.33,449.76a4.34,4.34,0,0,1,3.52-2.34" transform="translate(-17 -16.9)" style="fill:none;stroke:#757575;stroke-linecap:round;stroke-linejoin:round"></path><line x1="196.01" y1="430.91" x2="198.35" y2="433.65" style="fill:none;stroke:#757575;stroke-linecap:round;stroke-linejoin:round"></line><path d="M220.82,449.76a4.34,4.34,0,0,1,3.52-2.34" transform="translate(-17 -16.9)" style="fill:none;stroke:#757575;stroke-linecap:round;stroke-linejoin:round"></path><line x1="324.54" y1="430.91" x2="326.89" y2="433.65" style="fill:none;stroke:#757575;stroke-linecap:round;stroke-linejoin:round"></line><path d="M349.36,449.76a4.33,4.33,0,0,1,3.51-2.34" transform="translate(-17 -16.9)" style="fill:none;stroke:#757575;stroke-linecap:round;stroke-linejoin:round"></path><line x1="390.57" y1="430.91" x2="392.91" y2="433.65" style="fill:none;stroke:#757575;stroke-linecap:round;stroke-linejoin:round"></line><path d="M415.38,449.76a4.36,4.36,0,0,1,3.52-2.34" transform="translate(-17 -16.9)" style="fill:none;stroke:#757575;stroke-linecap:round;stroke-linejoin:round"></path><line x1="279.62" y1="430.91" x2="281.96" y2="433.65" style="fill:none;stroke:#757575;stroke-linecap:round;stroke-linejoin:round"></line><path d="M304.43,449.76a4.34,4.34,0,0,1,3.52-2.34" transform="translate(-17 -16.9)" style="fill:none;stroke:#757575;stroke-linecap:round;stroke-linejoin:round"></path><polyline points="106.93 434.04 108.89 435.6 111.62 433.26" style="fill:none;stroke:#757575;stroke-linecap:round;stroke-linejoin:round"></polyline></g></svg>