<svg xmlns="http://www.w3.org/2000/svg" viewBox="0 0 500 500"><g id="freepik--Floor--inject-30"><path d="M407.73,241.8c-88.68-50.05-231.18-48.65-318.29,3.11S3.59,379.22,92.27,429.27s231.18,48.66,318.3-3.11S496.41,291.85,407.73,241.8Z" style="fill:#FF81AE"></path><path d="M407.73,241.8c-88.68-50.05-231.18-48.65-318.29,3.11S3.59,379.22,92.27,429.27s231.18,48.66,318.3-3.11S496.41,291.85,407.73,241.8Z" style="opacity:0.2"></path><path d="M407.73,241.8c-88.68-50.05-231.18-48.65-318.29,3.11S3.59,379.22,92.27,429.27s231.18,48.66,318.3-3.11S496.41,291.85,407.73,241.8Z" style="fill:#fff;opacity:0.2"></path><path d="M407.73,241.8c-42-23.67-95.94-35.83-150.42-36.6L24.94,338c.64,33.26,23.12,66.28,67.33,91.23,33.39,18.85,74.42,30.4,117.25,34.72l262.7-150.18C464.89,287.3,443.38,261.92,407.73,241.8Z" style="fill:#455a64"></path><path d="M257.31,205.2,24.94,338a78.11,78.11,0,0,0,.58,7.92L271,205.64Q264.16,205.31,257.31,205.2Z" style="opacity:0.2"></path><path d="M198.35,462.67c3.71.49,7.43.94,11.17,1.32L472.23,313.81q-.92-3.26-2.11-6.5Z" style="opacity:0.2"></path></g><g id="freepik--Shadows--inject-30"><path d="M365.06,298.37c-16.09-9.08-41.93-8.83-57.73.56s-15.56,24.36.52,33.44,41.92,8.82,57.72-.57S381.14,307.44,365.06,298.37Z" style="opacity:0.1"></path><path d="M215.38,312.58c-16.08-9.08-41.93-8.82-57.72.56s-15.57,24.36.51,33.44,41.92,8.82,57.72-.57S231.46,321.66,215.38,312.58Z" style="opacity:0.1"></path></g><g id="freepik--Trees--inject-30"><path d="M105.26,228.76H91.51v45.39h0a3.45,3.45,0,0,0,2,2.82,10.76,10.76,0,0,0,9.73,0,3.42,3.42,0,0,0,2-2.82h0Z" style="fill:#FF81AE"></path><path d="M105.26,228.76H91.51v45.39h0a3.45,3.45,0,0,0,2,2.82,10.76,10.76,0,0,0,9.73,0,3.42,3.42,0,0,0,2-2.82h0Z" style="opacity:0.5"></path><path d="M105.26,228.76H91.51v45.39h0a3.45,3.45,0,0,0,2,2.82,10.76,10.76,0,0,0,9.73,0,3.42,3.42,0,0,0,2-2.82h0Z" style="fill:#fff;opacity:0.1"></path><path d="M113.31,276.12h0a5.24,5.24,0,1,0-10.48,0,2.62,2.62,0,0,0,1.54,2.15,8.16,8.16,0,0,0,7.42,0,2.58,2.58,0,0,0,1.52-2.15Z" style="fill:#37474f"></path><path d="M111.23,271.8a5.88,5.88,0,0,1,.82,1.69,3.51,3.51,0,0,1-.38,2.88,4.58,4.58,0,0,1-2.54,1.58,11.51,11.51,0,0,1-4.67.36,8.19,8.19,0,0,0,7.33,0,2.58,2.58,0,0,0,1.52-2.15h0A4.82,4.82,0,0,0,111.23,271.8Z" style="opacity:0.30000000000000004"></path><path d="M144.76,213.63l-41.34-86.86a5.74,5.74,0,0,0-3.63-3.17,5.47,5.47,0,0,0-6.34,2.93L52,213.63a4.28,4.28,0,0,0,2.94,6A4.44,4.44,0,0,1,58.41,224v1a7.44,7.44,0,0,0,8.84,7.42l.64-.13a7.42,7.42,0,0,1,8.28,4.45l1.06,2.57A7.34,7.34,0,0,0,87.39,243l6.06-3.14a10.67,10.67,0,0,1,9.86,0l6.06,3.14a7.34,7.34,0,0,0,10.16-3.71l1.06-2.57a7.42,7.42,0,0,1,8.28-4.45l.64.13a7.41,7.41,0,0,0,8.84-7.28V224a4.44,4.44,0,0,1,3.47-4.34A4.27,4.27,0,0,0,144.76,213.63Z" style="fill:#FF81AE"></path><path d="M144.76,213.63l-41.34-86.86a5.74,5.74,0,0,0-3.63-3.17,5.47,5.47,0,0,0-6.34,2.93L52,213.63a4.28,4.28,0,0,0,2.94,6A4.44,4.44,0,0,1,58.41,224v1a7.44,7.44,0,0,0,8.84,7.42l.64-.13a7.42,7.42,0,0,1,8.28,4.45l1.06,2.57A7.34,7.34,0,0,0,87.39,243l6.06-3.14a10.67,10.67,0,0,1,9.86,0l6.06,3.14a7.34,7.34,0,0,0,10.16-3.71l1.06-2.57a7.42,7.42,0,0,1,8.28-4.45l.64.13a7.41,7.41,0,0,0,8.84-7.28V224a4.44,4.44,0,0,1,3.47-4.34A4.27,4.27,0,0,0,144.76,213.63Z" style="opacity:0.30000000000000004"></path><g style="opacity:0.2"><path d="M64.43,196.89v.86a6.31,6.31,0,0,0,7.51,6.3l.54-.1a6.3,6.3,0,0,1,7,3.77l.9,2.18a6.25,6.25,0,0,0,8.64,3.16l5.14-2.67a9.06,9.06,0,0,1,8.38,0l5.14,2.67a6.25,6.25,0,0,0,8.64-3.16l.9-2.18a6.3,6.3,0,0,1,7-3.77l.54.1a6.29,6.29,0,0,0,7.51-6.18v-1a3.77,3.77,0,0,1,2.74-3.62l-31.65-66.5a5.74,5.74,0,0,0-3.63-3.17,5.47,5.47,0,0,0-6.34,2.93L61.69,193.27A3.77,3.77,0,0,1,64.43,196.89Z"></path></g><path d="M135.8,184.53l-33.35-70.07a4.62,4.62,0,0,0-2.94-2.56,4.39,4.39,0,0,0-5.1,2.36L61,184.53a3.46,3.46,0,0,0,2.37,4.86,3.58,3.58,0,0,1,2.8,3.5v.81a6,6,0,0,0,7.14,6l.51-.1a6,6,0,0,1,6.68,3.58l.86,2.07a5.92,5.92,0,0,0,8.2,3l4.88-2.53a8.61,8.61,0,0,1,8,0l4.88,2.53a5.92,5.92,0,0,0,8.2-3l.86-2.07a6,6,0,0,1,6.68-3.58l.51.1a6,6,0,0,0,7.14-5.87v-.93a3.58,3.58,0,0,1,2.8-3.5A3.46,3.46,0,0,0,135.8,184.53Z" style="fill:#FF81AE"></path><path d="M135.8,184.53l-33.35-70.07a4.62,4.62,0,0,0-2.94-2.56,4.39,4.39,0,0,0-5.1,2.36L61,184.53a3.46,3.46,0,0,0,2.37,4.86,3.58,3.58,0,0,1,2.8,3.5v.81a6,6,0,0,0,7.14,6l.51-.1a6,6,0,0,1,6.68,3.58l.86,2.07a5.92,5.92,0,0,0,8.2,3l4.88-2.53a8.61,8.61,0,0,1,8,0l4.88,2.53a5.92,5.92,0,0,0,8.2-3l.86-2.07a6,6,0,0,1,6.68-3.58l.51.1a6,6,0,0,0,7.14-5.87v-.93a3.58,3.58,0,0,1,2.8-3.5A3.46,3.46,0,0,0,135.8,184.53Z" style="opacity:0.2"></path><g style="opacity:0.2"><path d="M74.59,165.42V166a4.42,4.42,0,0,0,5.26,4.41l.38-.07A4.41,4.41,0,0,1,85.16,173l.63,1.53a4.37,4.37,0,0,0,6,2.21l3.6-1.87a6.42,6.42,0,0,1,5.88,0l3.6,1.87a4.37,4.37,0,0,0,6-2.21l.63-1.53a4.41,4.41,0,0,1,4.93-2.64l.38.07a4.41,4.41,0,0,0,5.26-4.33v-.69a2.65,2.65,0,0,1,2.07-2.58,2.43,2.43,0,0,0,1-.48l-22.8-47.9a4.62,4.62,0,0,0-2.94-2.56,4.39,4.39,0,0,0-5.1,2.36l-22.9,48.1a2.43,2.43,0,0,0,1,.48A2.65,2.65,0,0,1,74.59,165.42Z"></path></g><path d="M125.08,153.89l-23.8-50a3.29,3.29,0,0,0-2.09-1.82,3.14,3.14,0,0,0-3.65,1.68L71.68,153.89a2.47,2.47,0,0,0,1.69,3.47,2.56,2.56,0,0,1,2,2.5v.58a4.28,4.28,0,0,0,5.09,4.27l.37-.07a4.26,4.26,0,0,1,4.76,2.56l.61,1.48a4.22,4.22,0,0,0,5.85,2.13L95.54,169a6.19,6.19,0,0,1,5.68,0l3.49,1.81a4.22,4.22,0,0,0,5.85-2.13l.61-1.48a4.27,4.27,0,0,1,4.77-2.56l.36.07a4.27,4.27,0,0,0,5.09-4.19v-.66a2.56,2.56,0,0,1,2-2.5A2.47,2.47,0,0,0,125.08,153.89Z" style="fill:#FF81AE"></path><path d="M199,184.74H186.92v39.84h0a3,3,0,0,0,1.79,2.48,9.43,9.43,0,0,0,8.53,0,3,3,0,0,0,1.75-2.48h0Z" style="fill:#FF81AE"></path><path d="M199,184.74H186.92v39.84h0a3,3,0,0,0,1.79,2.48,9.43,9.43,0,0,0,8.53,0,3,3,0,0,0,1.75-2.48h0Z" style="opacity:0.5"></path><path d="M199,184.74H186.92v39.84h0a3,3,0,0,0,1.79,2.48,9.43,9.43,0,0,0,8.53,0,3,3,0,0,0,1.75-2.48h0Z" style="fill:#fff;opacity:0.1"></path><path d="M206.07,226.32h0a4.61,4.61,0,1,0-9.21,0,2.32,2.32,0,0,0,1.36,1.88,7.18,7.18,0,0,0,6.51,0,2.28,2.28,0,0,0,1.34-1.88Z" style="fill:#37474f"></path><path d="M204.24,222.52A5.21,5.21,0,0,1,205,224a3.11,3.11,0,0,1-.33,2.53,4,4,0,0,1-2.23,1.39,10.15,10.15,0,0,1-4.1.32,7.17,7.17,0,0,0,6.43,0,2.28,2.28,0,0,0,1.34-1.88h0A4.24,4.24,0,0,0,204.24,222.52Z" style="opacity:0.30000000000000004"></path><path d="M233.68,171.45,197.38,95.2a5,5,0,0,0-3.19-2.78A4.8,4.8,0,0,0,188.63,95l-36.39,76.46a3.76,3.76,0,0,0,2.58,5.29,3.91,3.91,0,0,1,3.05,3.81v.89a6.53,6.53,0,0,0,7.76,6.51l.56-.11a6.51,6.51,0,0,1,7.27,3.9l.93,2.25a6.45,6.45,0,0,0,8.92,3.27l5.32-2.76a9.39,9.39,0,0,1,8.66,0l5.31,2.76a6.46,6.46,0,0,0,8.93-3.27l.93-2.25a6.5,6.5,0,0,1,7.27-3.9l.56.11a6.51,6.51,0,0,0,7.76-6.39v-1a3.9,3.9,0,0,1,3-3.81A3.76,3.76,0,0,0,233.68,171.45Z" style="fill:#FF81AE"></path><path d="M233.68,171.45,197.38,95.2a5,5,0,0,0-3.19-2.78A4.8,4.8,0,0,0,188.63,95l-36.39,76.46a3.76,3.76,0,0,0,2.58,5.29,3.91,3.91,0,0,1,3.05,3.81v.89a6.53,6.53,0,0,0,7.76,6.51l.56-.11a6.51,6.51,0,0,1,7.27,3.9l.93,2.25a6.45,6.45,0,0,0,8.92,3.27l5.32-2.76a9.39,9.39,0,0,1,8.66,0l5.31,2.76a6.46,6.46,0,0,0,8.93-3.27l.93-2.25a6.5,6.5,0,0,1,7.27-3.9l.56.11a6.51,6.51,0,0,0,7.76-6.39v-1a3.9,3.9,0,0,1,3-3.81A3.76,3.76,0,0,0,233.68,171.45Z" style="opacity:0.30000000000000004"></path><g style="opacity:0.2"><path d="M163.15,156.76v.75a5.56,5.56,0,0,0,6.6,5.54l.47-.1a5.52,5.52,0,0,1,6.17,3.32l.79,1.91a5.47,5.47,0,0,0,7.58,2.77l4.52-2.34a8,8,0,0,1,7.36,0l4.51,2.34a5.47,5.47,0,0,0,7.58-2.77l.79-1.91A5.53,5.53,0,0,1,215.7,163l.47.1a5.54,5.54,0,0,0,6.6-5.43v-.86a3.31,3.31,0,0,1,2.4-3.18L197.38,95.2a5,5,0,0,0-3.19-2.78A4.8,4.8,0,0,0,188.63,95l-27.88,58.59A3.31,3.31,0,0,1,163.15,156.76Z"></path></g><path d="M225.81,145.91,196.53,84.39A4,4,0,0,0,194,82.15a3.85,3.85,0,0,0-4.48,2.07l-29.36,61.69a3,3,0,0,0,2.08,4.26,3.14,3.14,0,0,1,2.46,3.07V154a5.27,5.27,0,0,0,6.26,5.26l.45-.09a5.25,5.25,0,0,1,5.87,3.14l.75,1.82a5.19,5.19,0,0,0,7.2,2.63l4.29-2.22a7.55,7.55,0,0,1,7,0l4.29,2.22a5.19,5.19,0,0,0,7.2-2.63l.75-1.82a5.25,5.25,0,0,1,5.87-3.14l.44.09a5.26,5.26,0,0,0,6.27-5.16v-.82a3.14,3.14,0,0,1,2.46-3.07A3,3,0,0,0,225.81,145.91Z" style="fill:#FF81AE"></path><path d="M225.81,145.91,196.53,84.39A4,4,0,0,0,194,82.15a3.85,3.85,0,0,0-4.48,2.07l-29.36,61.69a3,3,0,0,0,2.08,4.26,3.14,3.14,0,0,1,2.46,3.07V154a5.27,5.27,0,0,0,6.26,5.26l.45-.09a5.25,5.25,0,0,1,5.87,3.14l.75,1.82a5.19,5.19,0,0,0,7.2,2.63l4.29-2.22a7.55,7.55,0,0,1,7,0l4.29,2.22a5.19,5.19,0,0,0,7.2-2.63l.75-1.82a5.25,5.25,0,0,1,5.87-3.14l.44.09a5.26,5.26,0,0,0,6.27-5.16v-.82a3.14,3.14,0,0,1,2.46-3.07A3,3,0,0,0,225.81,145.91Z" style="opacity:0.2"></path><g style="opacity:0.2"><path d="M172.08,129.14v.53a3.88,3.88,0,0,0,4.62,3.87l.33-.06a3.85,3.85,0,0,1,4.32,2.32l.56,1.34a3.83,3.83,0,0,0,5.31,1.94l3.16-1.64a5.6,5.6,0,0,1,5.16,0l3.16,1.64a3.83,3.83,0,0,0,5.31-1.94l.55-1.34a3.87,3.87,0,0,1,4.33-2.32l.33.06a3.87,3.87,0,0,0,4.62-3.8v-.6a2.33,2.33,0,0,1,1.82-2.27,2.16,2.16,0,0,0,.89-.42l-20-42.06A4,4,0,0,0,194,82.15a3.85,3.85,0,0,0-4.48,2.07l-20.1,42.23a2.1,2.1,0,0,0,.89.42A2.33,2.33,0,0,1,172.08,129.14Z"></path></g><path d="M216.4,119,195.51,75.12a2.94,2.94,0,0,0-1.84-1.61,2.77,2.77,0,0,0-3.2,1.48l-20.95,44a2.17,2.17,0,0,0,1.48,3,2.24,2.24,0,0,1,1.76,2.19v.51a3.76,3.76,0,0,0,4.47,3.75l.32-.06a3.73,3.73,0,0,1,4.18,2.24l.54,1.3a3.71,3.71,0,0,0,5.14,1.88l3.06-1.59a5.41,5.41,0,0,1,5,0l3.06,1.59a3.72,3.72,0,0,0,5.14-1.88l.54-1.3a3.73,3.73,0,0,1,4.18-2.24l.32.06a3.75,3.75,0,0,0,4.47-3.68v-.58a2.24,2.24,0,0,1,1.75-2.19A2.17,2.17,0,0,0,216.4,119Z" style="fill:#FF81AE"></path></g><g id="freepik--Rocks--inject-30"><path d="M337.54,430.11a38.7,38.7,0,0,0,6-37.51,39,39,0,0,1-9,36.87C335.4,429.72,336.67,429.86,337.54,430.11Z" style="fill:#FF81AE"></path><path d="M332.84,427.11A24.18,24.18,0,0,0,323,399.28a25.6,25.6,0,0,1,7.67,26.6C331.37,426.29,332.14,426.7,332.84,427.11Z" style="fill:#FF81AE"></path><path d="M337.54,430.11a38.7,38.7,0,0,0,6-37.51,39,39,0,0,1-9,36.87C335.4,429.72,336.67,429.86,337.54,430.11Z" style="opacity:0.30000000000000004"></path><path d="M332.84,427.11A24.18,24.18,0,0,0,323,399.28a25.6,25.6,0,0,1,7.67,26.6C331.37,426.29,332.14,426.7,332.84,427.11Z" style="opacity:0.2"></path><path d="M335.72,429.47a34.76,34.76,0,0,0,3.67-23,35.22,35.22,0,0,0-12.21-20,37.55,37.55,0,0,1,4.55,41.91Z" style="fill:#FF81AE"></path><path d="M327.18,386.44a37.55,37.55,0,0,1,4.55,41.91l1.94.54C338.88,417.15,340.1,399.36,327.18,386.44Z" style="opacity:0.2"></path><path d="M343.54,392.6a39.1,39.1,0,0,1-6.21,33.49,34.76,34.76,0,0,0,2.06-19.62,35.22,35.22,0,0,0-12.21-20,37.41,37.41,0,0,1,6.38,37.81,24.09,24.09,0,0,0-10.56-25,25.6,25.6,0,0,1,7.67,26.6c.57.34,1.18.67,1.77,1-.24.49-.46,1-.71,1.47l1.89.53h.05l1.09.31-.24.27c.88.25,2.15.39,3,.64A38.7,38.7,0,0,0,343.54,392.6Z" style="opacity:0.30000000000000004"></path><polygon points="294.7 428.03 310.78 413.27 317.62 412.52 327.54 417.88 329.07 422.81 333.61 427.03 335.53 432.92 326.23 436.75 325.27 438.16 318.99 440.93 316.2 444.76 308.19 444.63 304.98 441.29 295.87 439.82 289.21 437.03 289.71 432.92 291.53 428.88 294.7 428.03" style="fill:#455a64"></polygon><polygon points="294.7 428.03 291.53 428.88 289.71 432.92 296.74 436.22 309.77 438.02 312.44 437.36 315.15 429.81 311.34 436.22 297.61 434.43 292.58 432.1 292.35 429.33 294.7 428.03" style="opacity:0.1"></polygon><polygon points="301.36 421.92 298.82 427.72 305.69 427.52 314.2 430.05 305.88 425.25 302.03 426.21 302.07 423.72 305.05 418.53 301.36 421.92" style="opacity:0.1"></polygon><polygon points="302.52 431.74 306.45 430.77 305.69 427.52 298.82 427.72 302.52 431.74" style="opacity:0.30000000000000004"></polygon><polygon points="312.29 434.63 306.45 430.77 305.69 427.52 314.2 430.05 312.29 434.63" style="opacity:0.4"></polygon><polygon points="310.78 413.27 311.64 419.76 315.07 422.96 318.09 418.72 317.62 412.52 310.78 413.27" style="opacity:0.2"></polygon><polygon points="316.43 424.66 319.68 419.04 317.62 412.52 318.09 418.72 315.07 422.96 316.43 424.66" style="opacity:0.1"></polygon><polygon points="315.15 429.81 316.43 424.66 319.68 419.04 317.62 412.52 327.54 417.88 324.27 421.9 318.27 424.61 315.15 429.81" style="opacity:0.30000000000000004"></polygon><polygon points="316.2 444.76 312.44 437.36 315.15 429.81 318.27 424.61 324.27 421.9 327.54 417.88 329.07 422.81 324.5 422.28 319.68 425.75 317.3 429.68 316.2 444.76" style="opacity:0.4"></polygon><polygon points="318.99 440.93 316.87 435.59 316.2 444.76 318.99 440.93" style="opacity:0.30000000000000004"></polygon><polygon points="325.27 438.16 325.5 433.2 327.41 425.25 333.75 433.65 326.23 436.75 325.27 438.16" style="opacity:0.4"></polygon><polygon points="324.5 422.28 327.41 425.25 333.75 433.65 335.53 432.92 333.61 427.03 329.07 422.81 324.5 422.28" style="opacity:0.30000000000000004"></polygon><polygon points="318.99 440.93 325.27 438.16 325.5 433.2 327.41 425.25 324.5 422.28 319.68 425.75 317.3 429.68 316.87 435.59 318.99 440.93" style="opacity:0.2"></polygon><polygon points="309.77 438.02 308.19 444.63 316.2 444.76 312.44 437.36 309.77 438.02" style="opacity:0.30000000000000004"></polygon><polygon points="304.98 441.29 306.92 437.63 309.77 438.02 308.19 444.63 304.98 441.29" style="opacity:0.4"></polygon><polygon points="299.3 440.37 300.91 436.79 306.92 437.63 304.98 441.29 299.3 440.37" style="opacity:0.30000000000000004"></polygon><polygon points="295.87 439.82 296.74 436.22 300.91 436.79 299.3 440.37 295.87 439.82" style="opacity:0.4"></polygon><polygon points="289.71 432.92 296.74 436.22 295.87 439.82 289.21 437.03 289.71 432.92" style="opacity:0.30000000000000004"></polygon><polygon points="302.07 423.72 302.03 426.21 305.88 425.25 314.2 430.05 312.29 434.63 315.15 429.81 316.43 424.66 315.07 422.96 311.64 419.76 310.78 413.27 305.05 418.53 302.07 423.72" style="opacity:0.05"></polygon><polygon points="325.45 433.41 337 422.81 341.92 422.27 349.05 426.12 350.14 429.66 353.4 432.7 354.79 436.93 348.1 439.68 347.41 440.69 342.9 442.68 340.89 445.43 335.14 445.34 332.83 442.94 326.29 441.88 321.51 439.88 321.86 436.92 323.17 434.02 325.45 433.41" style="fill:#455a64"></polygon><polygon points="325.45 433.41 323.17 434.02 321.86 436.92 326.92 439.29 336.28 440.59 338.19 440.11 340.14 434.69 337.41 439.29 327.54 438.01 323.93 436.33 323.76 434.34 325.45 433.41" style="opacity:0.1"></polygon><polygon points="330.23 429.02 328.41 433.19 333.35 433.05 339.46 434.86 333.48 431.41 330.71 432.1 330.74 430.32 332.88 426.59 330.23 429.02" style="opacity:0.1"></polygon><polygon points="331.07 436.08 333.89 435.38 333.35 433.05 328.41 433.19 331.07 436.08" style="opacity:0.30000000000000004"></polygon><polygon points="338.08 438.15 333.89 435.38 333.35 433.05 339.46 434.86 338.08 438.15" style="opacity:0.4"></polygon><polygon points="337 422.81 337.62 427.47 340.08 429.77 342.25 426.73 341.92 422.27 337 422.81" style="opacity:0.2"></polygon><polygon points="341.06 430.99 343.39 426.95 341.92 422.27 342.25 426.73 340.08 429.77 341.06 430.99" style="opacity:0.1"></polygon><polygon points="340.14 434.69 341.06 430.99 343.39 426.95 341.92 422.27 349.05 426.12 346.69 429.01 342.38 430.95 340.14 434.69" style="opacity:0.30000000000000004"></polygon><polygon points="340.89 445.43 338.19 440.11 340.14 434.69 342.38 430.95 346.69 429.01 349.05 426.12 350.14 429.66 346.86 429.28 343.39 431.78 341.68 434.6 340.89 445.43" style="opacity:0.4"></polygon><polygon points="342.9 442.68 341.37 438.84 340.89 445.43 342.9 442.68" style="opacity:0.30000000000000004"></polygon><polygon points="347.41 440.69 347.57 437.12 348.95 431.41 353.5 437.45 348.1 439.68 347.41 440.69" style="opacity:0.4"></polygon><polygon points="346.86 429.28 348.95 431.41 353.5 437.45 354.79 436.93 353.4 432.7 350.14 429.66 346.86 429.28" style="opacity:0.30000000000000004"></polygon><polygon points="342.9 442.68 347.41 440.69 347.57 437.12 348.95 431.41 346.86 429.28 343.39 431.78 341.68 434.6 341.37 438.84 342.9 442.68" style="opacity:0.2"></polygon><polygon points="336.28 440.59 335.14 445.34 340.89 445.43 338.19 440.11 336.28 440.59" style="opacity:0.30000000000000004"></polygon><polygon points="332.83 442.94 334.23 440.31 336.28 440.59 335.14 445.34 332.83 442.94" style="opacity:0.4"></polygon><polygon points="328.75 442.28 329.91 439.71 334.23 440.31 332.83 442.94 328.75 442.28" style="opacity:0.30000000000000004"></polygon><polygon points="326.29 441.88 326.92 439.29 329.91 439.71 328.75 442.28 326.29 441.88" style="opacity:0.4"></polygon><polygon points="321.86 436.92 326.92 439.29 326.29 441.88 321.51 439.88 321.86 436.92" style="opacity:0.30000000000000004"></polygon><polygon points="330.74 430.32 330.71 432.1 333.48 431.41 339.46 434.86 338.08 438.15 340.14 434.69 341.06 430.99 340.08 429.77 337.62 427.47 337 422.81 332.88 426.59 330.74 430.32" style="opacity:0.05"></polygon><polygon points="353.4 432.7 350.14 429.66 349.05 426.12 341.92 422.27 337 422.81 333.01 426.47 329.07 422.81 327.54 417.88 317.62 412.52 310.78 413.27 305.05 418.53 301.36 421.92 301.36 421.92 294.7 428.03 291.53 428.88 289.71 432.92 289.21 437.03 295.87 439.82 304.98 441.29 308.19 444.63 316.2 444.76 318.99 440.93 321.51 439.81 321.51 439.88 326.29 441.88 328.75 442.28 332.83 442.94 335.14 445.34 340.89 445.43 342.9 442.68 347.41 440.69 348.1 439.68 354.79 436.93 353.4 432.7" style="fill:#fff;opacity:0.2"></polygon><path d="M419.9,360.93a28.28,28.28,0,0,0,8.6-26.37,28.5,28.5,0,0,1-10.7,25.56C418.4,360.4,419.3,360.65,419.9,360.93Z" style="fill:#FF81AE"></path><path d="M415.28,359.61a17.64,17.64,0,0,0-7.18-20.31,18.7,18.7,0,0,1,5.6,19.42C414.21,359,414.77,359.31,415.28,359.61Z" style="fill:#FF81AE"></path><path d="M419.9,360.93a28.28,28.28,0,0,0,8.6-26.37,28.5,28.5,0,0,1-10.7,25.56C418.4,360.4,419.3,360.65,419.9,360.93Z" style="opacity:0.30000000000000004"></path><path d="M415.28,359.61a17.64,17.64,0,0,0-7.18-20.31,18.7,18.7,0,0,1,5.6,19.42C414.21,359,414.77,359.31,415.28,359.61Z" style="opacity:0.2"></path><path d="M419,360.94a25.47,25.47,0,0,0,2.68-16.8,25.75,25.75,0,0,0-8.92-14.62,27.41,27.41,0,0,1,3.32,30.6Z" style="fill:#FF81AE"></path><path d="M412.79,329.52a27.41,27.41,0,0,1,3.32,30.6l1.42.4C421.34,351.94,422.22,339,412.79,329.52Z" style="opacity:0.2"></path><g style="opacity:0.2"><path d="M428.5,334.56a28.57,28.57,0,0,1-8,23.2,25.41,25.41,0,0,0,1.25-13.62,25.75,25.75,0,0,0-8.92-14.62,27.79,27.79,0,0,1,2.4,3.3,28.87,28.87,0,0,1,1.88,3.62,27.17,27.17,0,0,1,2.08,7.87,26.46,26.46,0,0,1,.13,4.08,27.5,27.5,0,0,1-3.17,11.73l.7.19.72.21h0l1.5.42.14-.3a7.4,7.4,0,0,1,.73.29A28.28,28.28,0,0,0,428.5,334.56Z"></path><path d="M415.15,348.23a17.79,17.79,0,0,0-7-8.93,18.7,18.7,0,0,1,5.6,19.42c.51.29,1.07.59,1.58.89A17.8,17.8,0,0,0,415.15,348.23Z"></path></g><polygon points="402.29 367.86 413.17 357.87 417.8 357.37 424.51 360.99 425.55 364.33 428.62 367.19 429.92 371.17 423.63 373.76 422.97 374.71 418.72 376.59 416.84 379.18 411.42 379.09 409.25 376.83 403.08 375.83 398.58 373.95 398.91 371.17 400.15 368.43 402.29 367.86" style="fill:#455a64"></polygon><polygon points="402.29 367.86 400.15 368.43 398.91 371.17 403.67 373.4 412.49 374.62 414.29 374.17 416.13 369.06 413.55 373.4 404.26 372.19 400.86 370.61 400.7 368.74 402.29 367.86" style="opacity:0.1"></polygon><polygon points="406.8 363.72 405.08 367.65 409.73 367.51 415.49 369.23 409.86 365.98 407.25 366.63 407.28 364.94 409.29 361.43 406.8 363.72" style="opacity:0.1"></polygon><polygon points="407.59 370.37 410.24 369.71 409.73 367.51 405.08 367.65 407.59 370.37" style="opacity:0.30000000000000004"></polygon><polygon points="414.19 372.32 410.24 369.71 409.73 367.51 415.49 369.23 414.19 372.32" style="opacity:0.4"></polygon><polygon points="413.17 357.87 413.75 362.26 416.07 364.43 418.12 361.56 417.8 357.37 413.17 357.87" style="opacity:0.2"></polygon><polygon points="417 365.58 419.19 361.77 417.8 357.37 418.12 361.56 416.07 364.43 417 365.58" style="opacity:0.1"></polygon><polygon points="416.13 369.06 417 365.58 419.19 361.77 417.8 357.37 424.51 360.99 422.3 363.71 418.24 365.54 416.13 369.06" style="opacity:0.30000000000000004"></polygon><polygon points="416.84 379.18 414.29 374.17 416.13 369.06 418.24 365.54 422.3 363.71 424.51 360.99 425.55 364.33 422.45 363.97 419.19 366.32 417.58 368.98 416.84 379.18" style="opacity:0.4"></polygon><polygon points="418.72 376.59 417.29 372.97 416.84 379.18 418.72 376.59" style="opacity:0.30000000000000004"></polygon><polygon points="422.97 374.71 423.13 371.36 424.42 365.97 428.71 371.67 423.63 373.76 422.97 374.71" style="opacity:0.4"></polygon><polygon points="422.45 363.97 424.42 365.97 428.71 371.67 429.92 371.17 428.62 367.19 425.55 364.33 422.45 363.97" style="opacity:0.30000000000000004"></polygon><polygon points="418.72 376.59 422.97 374.71 423.13 371.36 424.42 365.97 422.45 363.97 419.19 366.32 417.58 368.98 417.29 372.97 418.72 376.59" style="opacity:0.2"></polygon><polygon points="412.49 374.62 411.42 379.09 416.84 379.18 414.29 374.17 412.49 374.62" style="opacity:0.30000000000000004"></polygon><polygon points="409.25 376.83 410.56 374.35 412.49 374.62 411.42 379.09 409.25 376.83" style="opacity:0.4"></polygon><polygon points="405.4 376.21 406.5 373.79 410.56 374.35 409.25 376.83 405.4 376.21" style="opacity:0.30000000000000004"></polygon><polygon points="403.08 375.83 403.67 373.4 406.5 373.79 405.4 376.21 403.08 375.83" style="opacity:0.4"></polygon><polygon points="398.91 371.17 403.67 373.4 403.08 375.83 398.58 373.95 398.91 371.17" style="opacity:0.30000000000000004"></polygon><polygon points="407.28 364.94 407.25 366.63 409.86 365.98 415.49 369.23 414.19 372.32 416.13 369.06 417 365.58 416.07 364.43 413.75 362.26 413.17 357.87 409.29 361.43 407.28 364.94" style="opacity:0.05"></polygon><polygon points="428.62 367.19 425.55 364.33 424.51 360.99 417.8 357.37 413.17 357.87 409.29 361.43 406.8 363.72 406.8 363.73 402.29 367.86 400.15 368.43 398.91 371.17 398.58 373.95 403.08 375.83 409.25 376.83 411.42 379.09 416.84 379.18 418.72 376.59 422.97 374.71 423.63 373.76 428.71 371.67 429.92 371.17 428.62 367.19" style="fill:#fff;opacity:0.2"></polygon><path d="M90.12,281.36a27.56,27.56,0,0,0,4.27-26.72A27.79,27.79,0,0,1,88,280.9C88.59,281.08,89.49,281.18,90.12,281.36Z" style="fill:#FF81AE"></path><path d="M86.77,279.23a17.23,17.23,0,0,0-7-19.83,18.24,18.24,0,0,1,5.46,19C85.72,278.64,86.27,278.93,86.77,279.23Z" style="fill:#FF81AE"></path><path d="M90.12,281.36a27.56,27.56,0,0,0,4.27-26.72A27.79,27.79,0,0,1,88,280.9C88.59,281.08,89.49,281.18,90.12,281.36Z" style="opacity:0.30000000000000004"></path><path d="M86.77,279.23a17.23,17.23,0,0,0-7-19.83,18.24,18.24,0,0,1,5.46,19C85.72,278.64,86.27,278.93,86.77,279.23Z" style="opacity:0.2"></path><path d="M88.82,280.91a24.78,24.78,0,0,0,2.61-16.39,25,25,0,0,0-8.7-14.27A26.73,26.73,0,0,1,86,280.11Z" style="fill:#FF81AE"></path><path d="M82.73,250.25A26.73,26.73,0,0,1,86,280.11l1.39.39C91.07,272.13,91.94,259.46,82.73,250.25Z" style="opacity:0.2"></path><path d="M94.39,254.64A27.9,27.9,0,0,1,90,278.5a24.77,24.77,0,0,0,1.46-14,25,25,0,0,0-8.7-14.27,26.65,26.65,0,0,1,4.55,26.94,17.16,17.16,0,0,0-7.52-17.79,18.24,18.24,0,0,1,5.46,19l1.26.71c-.17.35-.33.7-.51,1.05l1.35.38h0l.77.22-.17.18c.63.18,1.53.28,2.16.46A27.56,27.56,0,0,0,94.39,254.64Z" style="opacity:0.2"></path><polygon points="59.6 279.88 71.05 269.36 75.92 268.83 82.99 272.65 84.08 276.16 87.31 279.17 88.68 283.37 82.06 286.1 81.37 287.09 76.89 289.07 74.91 291.8 69.2 291.71 66.92 289.33 60.43 288.28 55.69 286.29 56.04 283.36 57.34 280.48 59.6 279.88" style="fill:#455a64"></polygon><polygon points="59.6 279.88 57.34 280.48 56.04 283.36 61.05 285.71 70.33 287 72.23 286.53 74.17 281.15 71.45 285.71 61.67 284.44 58.09 282.78 57.92 280.81 59.6 279.88" style="opacity:0.1"></polygon><polygon points="64.34 275.53 62.53 279.66 67.42 279.52 73.49 281.32 67.56 277.9 64.82 278.58 64.84 276.81 66.97 273.11 64.34 275.53" style="opacity:0.1"></polygon><polygon points="65.17 282.53 67.97 281.83 67.42 279.52 62.53 279.66 65.17 282.53" style="opacity:0.30000000000000004"></polygon><polygon points="72.12 284.58 67.97 281.83 67.42 279.52 73.49 281.32 72.12 284.58" style="opacity:0.4"></polygon><polygon points="71.05 269.36 71.66 273.99 74.1 276.27 76.25 273.25 75.92 268.83 71.05 269.36" style="opacity:0.2"></polygon><polygon points="75.08 277.48 77.39 273.47 75.92 268.83 76.25 273.25 74.1 276.27 75.08 277.48" style="opacity:0.1"></polygon><polygon points="74.17 281.15 75.08 277.48 77.39 273.47 75.92 268.83 82.99 272.65 80.66 275.51 76.39 277.44 74.17 281.15" style="opacity:0.30000000000000004"></polygon><polygon points="74.91 291.8 72.23 286.53 74.17 281.15 76.39 277.44 80.66 275.51 82.99 272.65 84.08 276.16 80.82 275.79 77.39 278.26 75.69 281.06 74.91 291.8" style="opacity:0.4"></polygon><polygon points="76.89 289.07 75.39 285.26 74.91 291.8 76.89 289.07" style="opacity:0.30000000000000004"></polygon><polygon points="81.37 287.09 81.53 283.56 82.89 277.9 87.41 283.89 82.06 286.1 81.37 287.09" style="opacity:0.4"></polygon><polygon points="80.82 275.79 82.89 277.9 87.41 283.89 88.68 283.37 87.31 279.17 84.08 276.16 80.82 275.79" style="opacity:0.30000000000000004"></polygon><polygon points="76.89 289.07 81.37 287.09 81.53 283.56 82.89 277.9 80.82 275.79 77.39 278.26 75.69 281.06 75.39 285.26 76.89 289.07" style="opacity:0.2"></polygon><polygon points="70.33 287 69.2 291.71 74.91 291.8 72.23 286.53 70.33 287" style="opacity:0.30000000000000004"></polygon><polygon points="66.92 289.33 68.3 286.72 70.33 287 69.2 291.71 66.92 289.33" style="opacity:0.4"></polygon><polygon points="62.87 288.67 64.02 286.12 68.3 286.72 66.92 289.33 62.87 288.67" style="opacity:0.30000000000000004"></polygon><polygon points="60.43 288.28 61.05 285.71 64.02 286.12 62.87 288.67 60.43 288.28" style="opacity:0.4"></polygon><polygon points="56.04 283.36 61.05 285.71 60.43 288.28 55.69 286.29 56.04 283.36" style="opacity:0.30000000000000004"></polygon><polygon points="64.84 276.81 64.82 278.58 67.56 277.9 73.49 281.32 72.12 284.58 74.17 281.15 75.08 277.48 74.1 276.27 71.66 273.99 71.05 269.36 66.97 273.11 64.84 276.81" style="opacity:0.05"></polygon><polygon points="81.5 283.72 89.73 276.16 93.23 275.78 98.31 278.52 99.09 281.04 101.42 283.2 102.4 286.22 97.64 288.18 97.14 288.9 93.93 290.32 92.5 292.28 88.4 292.21 86.76 290.5 82.1 289.75 78.69 288.32 78.94 286.21 79.88 284.15 81.5 283.72" style="fill:#455a64"></polygon><polygon points="81.5 283.72 79.88 284.15 78.94 286.21 82.55 287.9 89.22 288.83 90.58 288.49 91.97 284.63 90.02 287.9 82.99 286.99 80.42 285.8 80.3 284.38 81.5 283.72" style="opacity:0.1"></polygon><polygon points="84.91 280.59 83.61 283.55 87.13 283.45 91.48 284.75 87.22 282.29 85.25 282.78 85.27 281.51 86.8 278.85 84.91 280.59" style="opacity:0.1"></polygon><polygon points="85.5 285.62 87.51 285.12 87.13 283.45 83.61 283.55 85.5 285.62" style="opacity:0.30000000000000004"></polygon><polygon points="90.5 287.09 87.51 285.12 87.13 283.45 91.48 284.75 90.5 287.09" style="opacity:0.4"></polygon><polygon points="89.73 276.16 90.17 279.48 91.92 281.12 93.47 278.95 93.23 275.78 89.73 276.16" style="opacity:0.2"></polygon><polygon points="92.62 281.99 94.28 279.11 93.23 275.78 93.47 278.95 91.92 281.12 92.62 281.99" style="opacity:0.1"></polygon><polygon points="91.97 284.63 92.62 281.99 94.28 279.11 93.23 275.78 98.31 278.52 96.63 280.58 93.56 281.96 91.97 284.63" style="opacity:0.30000000000000004"></polygon><polygon points="92.5 292.28 90.58 288.49 91.97 284.63 93.56 281.96 96.63 280.58 98.31 278.52 99.09 281.04 96.75 280.77 94.28 282.55 93.06 284.56 92.5 292.28" style="opacity:0.4"></polygon><polygon points="93.93 290.32 92.84 287.58 92.5 292.28 93.93 290.32" style="opacity:0.30000000000000004"></polygon><polygon points="97.14 288.9 97.26 286.36 98.24 282.29 101.49 286.59 97.64 288.18 97.14 288.9" style="opacity:0.4"></polygon><polygon points="96.75 280.77 98.24 282.29 101.49 286.59 102.4 286.22 101.42 283.2 99.09 281.04 96.75 280.77" style="opacity:0.30000000000000004"></polygon><polygon points="93.93 290.32 97.14 288.9 97.26 286.36 98.24 282.29 96.75 280.77 94.28 282.55 93.06 284.56 92.84 287.58 93.93 290.32" style="opacity:0.2"></polygon><polygon points="89.22 288.83 88.4 292.21 92.5 292.28 90.58 288.49 89.22 288.83" style="opacity:0.30000000000000004"></polygon><polygon points="86.76 290.5 87.76 288.63 89.22 288.83 88.4 292.21 86.76 290.5" style="opacity:0.4"></polygon><polygon points="83.85 290.03 84.68 288.2 87.76 288.63 86.76 290.5 83.85 290.03" style="opacity:0.30000000000000004"></polygon><polygon points="82.1 289.75 82.55 287.9 84.68 288.2 83.85 290.03 82.1 289.75" style="opacity:0.4"></polygon><polygon points="78.94 286.21 82.55 287.9 82.1 289.75 78.69 288.32 78.94 286.21" style="opacity:0.30000000000000004"></polygon><polygon points="85.27 281.51 85.25 282.78 87.22 282.29 91.48 284.75 90.5 287.09 91.97 284.63 92.62 281.99 91.92 281.12 90.17 279.48 89.73 276.16 86.8 278.85 85.27 281.51" style="opacity:0.05"></polygon><polygon points="101.42 283.2 99.09 281.04 98.31 278.52 93.23 275.78 89.73 276.16 86.89 278.77 84.08 276.16 82.99 272.65 75.92 268.83 71.05 269.36 66.97 273.11 64.34 275.53 64.34 275.53 59.6 279.88 57.34 280.48 56.04 283.36 55.69 286.29 60.43 288.28 66.92 289.33 69.2 291.71 74.91 291.8 76.89 289.07 78.7 288.27 78.69 288.32 82.1 289.75 83.85 290.03 86.76 290.5 88.4 292.21 92.5 292.28 93.93 290.32 97.14 288.9 97.64 288.18 102.4 286.22 101.42 283.2" style="fill:#fff;opacity:0.2"></polygon></g><g id="freepik--Clouds--inject-30"><path d="M212.8,67.17a19.24,19.24,0,0,1-7-1.62,17.37,17.37,0,0,0-2.87-1.15,10.22,10.22,0,0,0-5,.36A26,26,0,0,1,193,65.85c-1.67.1-1.92.3-3.46-.38s-2.69-1.86-4.26-2.16c-2-.38-3.94.8-6,.94a5.94,5.94,0,0,1-4.22-1.38,18,18,0,0,1-2.78-3.67,5.87,5.87,0,0,0-3.57-2.73,5.31,5.31,0,0,0-1.49,0,5.73,5.73,0,0,0-3.34,1.31,7.36,7.36,0,0,0-1.1-4.31c-1.33-1.8-3.94-2-6.13-2.45a3.41,3.41,0,0,1-2.25-2.63,17.73,17.73,0,0,0-1-3.5c-1-1.85-3.1-2.71-5.08-3.39a7.88,7.88,0,0,0-3.72-.61c-3,.47-4.6,4-7.49,4.77-1.64.44-3.37-.08-5-.43s-3.57-.49-4.9.58-1.63,2.8-2.81,3.9c-1.62,1.52-4.25,1.29-6.12,2.5a4.76,4.76,0,0,0-2.23,4.48c-2.73-1.58-6.14-1.24-9.23-.58a9.84,9.84,0,0,0-2.66.85c-1.69.89-2.8,2.54-4,4-.61.75-1.75,1.71-2.64,1.34a17.3,17.3,0,0,0-6-1.63,5.79,5.79,0,0,0-5.29,2.67c-.38.7-.77,1.65-1.56,1.61-.5,0-.86-.47-1.21-.82A5,5,0,0,0,75.19,66a3.54,3.54,0,0,1-.88,1.77,2.08,2.08,0,0,1-1.32.34c-1.51,0-2.92-.78-4.42-1a6.11,6.11,0,0,0-3.7.71c-1,.56-1.85,1.4-2.91,1.87a10.87,10.87,0,0,1-4.62.5A36.68,36.68,0,0,0,45.22,72c3,.22,6.5.58,9.5.8a7.77,7.77,0,0,1,1.86.3c.94.32,1.73,1,2.69,1.27,3.26.9,6.17-3.33,9.5-2.73,1.41.26,2.56,1.36,4,1.59,2.58.42,4.81-2.15,7.43-2.14,1.85,0,3.45,1.29,5.27,1.7,4.88,1.08,9.38-4.41,14.3-3.49,2.7.51,4.75,2.85,7.43,3.43,2.42.52,4.87-.47,7.2-1.32s5-1.53,7.21-.46a14.53,14.53,0,0,0,6.9,1.68c2.78-.25,5.13-2.18,7.85-2.8,3.5-.79,7.06.68,10.42,1.94s7.2,2.28,10.43.72c1.62-.79,3.19-2.23,4.94-1.83.87.19,1.59.83,2.45,1,2.59.67,4.87-2.52,7.52-2.2a11.49,11.49,0,0,1,1.8.51c2.47.69,5-.3,7.42-1.27a10.38,10.38,0,0,1,5.11-.24,26,26,0,0,0,5,.46c3.57-.23,6.91-2.52,10.46-2.07.73.09,1.43.3,2.14.46A20,20,0,0,0,212.8,67.17Z" style="fill:#455a64"></path><path d="M313.2,75.88a16.57,16.57,0,0,0,6-1.38,15.54,15.54,0,0,1,2.44-1,8.87,8.87,0,0,1,4.24.3,21.56,21.56,0,0,0,4.18.93c1.43.09,1.64.26,2.95-.32s2.29-1.58,3.63-1.84c1.7-.33,3.37.68,5.09.8a5,5,0,0,0,3.59-1.18,15.47,15.47,0,0,0,2.37-3.12,5,5,0,0,1,3.05-2.33,4.5,4.5,0,0,1,1.27,0,4.9,4.9,0,0,1,2.84,1.13,6.38,6.38,0,0,1,.94-3.68c1.14-1.53,3.37-1.71,5.23-2.09a2.91,2.91,0,0,0,1.92-2.24,15,15,0,0,1,.82-3c.82-1.58,2.65-2.31,4.33-2.88a6.74,6.74,0,0,1,3.18-.53c2.52.41,3.91,3.4,6.38,4.07a9.27,9.27,0,0,0,4.29-.37c1.42-.3,3.05-.41,4.19.5s1.39,2.38,2.39,3.32c1.38,1.3,3.63,1.11,5.22,2.13a4.09,4.09,0,0,1,1.9,3.83c2.33-1.35,5.23-1.06,7.87-.5a8.25,8.25,0,0,1,2.27.73,12.07,12.07,0,0,1,3.41,3.42c.52.64,1.49,1.45,2.25,1.14a14.63,14.63,0,0,1,5.1-1.39,5,5,0,0,1,4.51,2.27c.32.6.65,1.41,1.33,1.37.43,0,.73-.39,1-.7a4.31,4.31,0,0,1,7.12,1.6,3,3,0,0,0,.75,1.51,1.76,1.76,0,0,0,1.13.29c1.29,0,2.49-.67,3.76-.83a5.19,5.19,0,0,1,3.16.6c.86.47,1.58,1.19,2.48,1.6a9.31,9.31,0,0,0,3.94.42A31.2,31.2,0,0,1,456.08,80c-2.55.19-5.54.5-8.1.69a6.51,6.51,0,0,0-1.58.25c-.8.27-1.48.86-2.3,1.08-2.77.77-5.26-2.84-8.1-2.32-1.2.22-2.18,1.16-3.39,1.35-2.2.36-4.1-1.83-6.33-1.83-1.59,0-2.95,1.11-4.5,1.45-4.16.93-8-3.75-12.19-3-2.3.43-4,2.43-6.33,2.93-2.07.44-4.16-.41-6.15-1.13s-4.24-1.31-6.15-.39a12.46,12.46,0,0,1-5.88,1.43c-2.37-.21-4.37-1.86-6.69-2.38-3-.68-6,.58-8.88,1.64s-6.15,2-8.9.62c-1.38-.67-2.72-1.9-4.21-1.56-.74.17-1.36.71-2.09.9-2.21.56-4.15-2.16-6.41-1.88a10.7,10.7,0,0,0-1.54.43c-2.1.59-4.3-.25-6.32-1.07a8.68,8.68,0,0,0-4.36-.21,23.05,23.05,0,0,1-4.29.39c-3.05-.2-5.9-2.15-8.93-1.77-.61.08-1.21.26-1.82.4A17,17,0,0,1,313.2,75.88Z" style="fill:#455a64"></path><path d="M314.14,111c-4-1.36-8.43.09-12.5-1-1-.25-2-.66-3-.85-1.41-.26-2.91-.13-4.21-.73s-2.35-2.09-3.39-3.29-2.77-2.51-4.3-2.07c-1.28-1.7-1.74-3.94-3.18-5.5a5.92,5.92,0,0,0-7.87-.53,19.56,19.56,0,0,1-1.53,1.34c-1.67,1.11-3.88.63-5.89.76s-4.67,1-6,2.6a22.42,22.42,0,0,0-1.31,2.15,5.82,5.82,0,0,1-3.72,2.46c-3.15.6-6.3-1.46-9.49-1.09-3.45.4-6.23,3.57-9.7,3.52-2.62,0-4.94-1.91-7.56-1.94-2.89,0-5.32,2.2-8.15,2.8a15,15,0,0,1-5-.09c2.17.82,4.23,1.81,6.54,1.61s4.26-1.31,6.46-1.26c2.67,0,5,1.76,7.29,3.1a15.41,15.41,0,0,0,5.65,2.1c5.89.76,11.46-3.43,17.4-3.22a14.81,14.81,0,0,1,8.1,2.38c1.2.8,2.55,1.77,3.93,1.37a3.75,3.75,0,0,0,1.62-1.11c1.48-1.53,2.76-3.58,4.85-3.95,2.35-.42,4.41,1.49,6.62,2.39a12.27,12.27,0,0,0,4.34.75,25,25,0,0,0,8.06-1.14A10.24,10.24,0,0,1,301,112c1.46,0,2.84.67,4.3.77C308.09,112.93,311.39,110.7,314.14,111Z" style="fill:#455a64"></path><g style="opacity:0.5"><path d="M212.8,67.17a19.24,19.24,0,0,1-7-1.62,17.37,17.37,0,0,0-2.87-1.15,10.22,10.22,0,0,0-5,.36A26,26,0,0,1,193,65.85c-1.67.1-1.92.3-3.46-.38s-2.69-1.86-4.26-2.16c-2-.38-3.94.8-6,.94a5.94,5.94,0,0,1-4.22-1.38,18,18,0,0,1-2.78-3.67,5.87,5.87,0,0,0-3.57-2.73,5.31,5.31,0,0,0-1.49,0,5.73,5.73,0,0,0-3.34,1.31,7.36,7.36,0,0,0-1.1-4.31c-1.33-1.8-3.94-2-6.13-2.45a3.41,3.41,0,0,1-2.25-2.63,17.73,17.73,0,0,0-1-3.5c-1-1.85-3.1-2.71-5.08-3.39a7.88,7.88,0,0,0-3.72-.61c-3,.47-4.6,4-7.49,4.77-1.64.44-3.37-.08-5-.43s-3.57-.49-4.9.58-1.63,2.8-2.81,3.9c-1.62,1.52-4.25,1.29-6.12,2.5a4.76,4.76,0,0,0-2.23,4.48c-2.73-1.58-6.14-1.24-9.23-.58a9.84,9.84,0,0,0-2.66.85c-1.69.89-2.8,2.54-4,4-.61.75-1.75,1.71-2.64,1.34a17.3,17.3,0,0,0-6-1.63,5.79,5.79,0,0,0-5.29,2.67c-.38.7-.77,1.65-1.56,1.61-.5,0-.86-.47-1.21-.82A5,5,0,0,0,75.19,66a3.54,3.54,0,0,1-.88,1.77,2.08,2.08,0,0,1-1.32.34c-1.51,0-2.92-.78-4.42-1a6.11,6.11,0,0,0-3.7.71c-1,.56-1.85,1.4-2.91,1.87a10.87,10.87,0,0,1-4.62.5A36.68,36.68,0,0,0,45.22,72c3,.22,6.5.58,9.5.8a7.77,7.77,0,0,1,1.86.3c.94.32,1.73,1,2.69,1.27,3.26.9,6.17-3.33,9.5-2.73,1.41.26,2.56,1.36,4,1.59,2.58.42,4.81-2.15,7.43-2.14,1.85,0,3.45,1.29,5.27,1.7,4.88,1.08,9.38-4.41,14.3-3.49,2.7.51,4.75,2.85,7.43,3.43,2.42.52,4.87-.47,7.2-1.32s5-1.53,7.21-.46a14.53,14.53,0,0,0,6.9,1.68c2.78-.25,5.13-2.18,7.85-2.8,3.5-.79,7.06.68,10.42,1.94s7.2,2.28,10.43.72c1.62-.79,3.19-2.23,4.94-1.83.87.19,1.59.83,2.45,1,2.59.67,4.87-2.52,7.52-2.2a11.49,11.49,0,0,1,1.8.51c2.47.69,5-.3,7.42-1.27a10.38,10.38,0,0,1,5.11-.24,26,26,0,0,0,5,.46c3.57-.23,6.91-2.52,10.46-2.07.73.09,1.43.3,2.14.46A20,20,0,0,0,212.8,67.17Z" style="fill:#fff"></path><path d="M313.2,75.88a16.57,16.57,0,0,0,6-1.38,15.54,15.54,0,0,1,2.44-1,8.87,8.87,0,0,1,4.24.3,21.56,21.56,0,0,0,4.18.93c1.43.09,1.64.26,2.95-.32s2.29-1.58,3.63-1.84c1.7-.33,3.37.68,5.09.8a5,5,0,0,0,3.59-1.18,15.47,15.47,0,0,0,2.37-3.12,5,5,0,0,1,3.05-2.33,4.5,4.5,0,0,1,1.27,0,4.9,4.9,0,0,1,2.84,1.13,6.38,6.38,0,0,1,.94-3.68c1.14-1.53,3.37-1.71,5.23-2.09a2.91,2.91,0,0,0,1.92-2.24,15,15,0,0,1,.82-3c.82-1.58,2.65-2.31,4.33-2.88a6.74,6.74,0,0,1,3.18-.53c2.52.41,3.91,3.4,6.38,4.07a9.27,9.27,0,0,0,4.29-.37c1.42-.3,3.05-.41,4.19.5s1.39,2.38,2.39,3.32c1.38,1.3,3.63,1.11,5.22,2.13a4.09,4.09,0,0,1,1.9,3.83c2.33-1.35,5.23-1.06,7.87-.5a8.25,8.25,0,0,1,2.27.73,12.07,12.07,0,0,1,3.41,3.42c.52.64,1.49,1.45,2.25,1.14a14.63,14.63,0,0,1,5.1-1.39,5,5,0,0,1,4.51,2.27c.32.6.65,1.41,1.33,1.37.43,0,.73-.39,1-.7a4.31,4.31,0,0,1,7.12,1.6,3,3,0,0,0,.75,1.51,1.76,1.76,0,0,0,1.13.29c1.29,0,2.49-.67,3.76-.83a5.19,5.19,0,0,1,3.16.6c.86.47,1.58,1.19,2.48,1.6a9.31,9.31,0,0,0,3.94.42A31.2,31.2,0,0,1,456.08,80c-2.55.19-5.54.5-8.1.69a6.51,6.51,0,0,0-1.58.25c-.8.27-1.48.86-2.3,1.08-2.77.77-5.26-2.84-8.1-2.32-1.2.22-2.18,1.16-3.39,1.35-2.2.36-4.1-1.83-6.33-1.83-1.59,0-2.95,1.11-4.5,1.45-4.16.93-8-3.75-12.19-3-2.3.43-4,2.43-6.33,2.93-2.07.44-4.16-.41-6.15-1.13s-4.24-1.31-6.15-.39a12.46,12.46,0,0,1-5.88,1.43c-2.37-.21-4.37-1.86-6.69-2.38-3-.68-6,.58-8.88,1.64s-6.15,2-8.9.62c-1.38-.67-2.72-1.9-4.21-1.56-.74.17-1.36.71-2.09.9-2.21.56-4.15-2.16-6.41-1.88a10.7,10.7,0,0,0-1.54.43c-2.1.59-4.3-.25-6.32-1.07a8.68,8.68,0,0,0-4.36-.21,23.05,23.05,0,0,1-4.29.39c-3.05-.2-5.9-2.15-8.93-1.77-.61.08-1.21.26-1.82.4A17,17,0,0,1,313.2,75.88Z" style="fill:#fff"></path><path d="M314.14,111c-4-1.36-8.43.09-12.5-1-1-.25-2-.66-3-.85-1.41-.26-2.91-.13-4.21-.73s-2.35-2.09-3.39-3.29-2.77-2.51-4.3-2.07c-1.28-1.7-1.74-3.94-3.18-5.5a5.92,5.92,0,0,0-7.87-.53,19.56,19.56,0,0,1-1.53,1.34c-1.67,1.11-3.88.63-5.89.76s-4.67,1-6,2.6a22.42,22.42,0,0,0-1.31,2.15,5.82,5.82,0,0,1-3.72,2.46c-3.15.6-6.3-1.46-9.49-1.09-3.45.4-6.23,3.57-9.7,3.52-2.62,0-4.94-1.91-7.56-1.94-2.89,0-5.32,2.2-8.15,2.8a15,15,0,0,1-5-.09c2.17.82,4.23,1.81,6.54,1.61s4.26-1.31,6.46-1.26c2.67,0,5,1.76,7.29,3.1a15.41,15.41,0,0,0,5.65,2.1c5.89.76,11.46-3.43,17.4-3.22a14.81,14.81,0,0,1,8.1,2.38c1.2.8,2.55,1.77,3.93,1.37a3.75,3.75,0,0,0,1.62-1.11c1.48-1.53,2.76-3.58,4.85-3.95,2.35-.42,4.41,1.49,6.62,2.39a12.27,12.27,0,0,0,4.34.75,25,25,0,0,0,8.06-1.14A10.24,10.24,0,0,1,301,112c1.46,0,2.84.67,4.3.77C308.09,112.93,311.39,110.7,314.14,111Z" style="fill:#fff"></path></g></g><g id="freepik--character-2--inject-30"><path d="M320.7,218.18c5.16-12.39,7-28.6,7-28.6h-3.47c-3,0-4.72,2.19-5.45,5.1l-5,20c-4.63,5.2-10.32,16.86-10.32,16.86l-4.14,2.29a1.94,1.94,0,0,0-1,2.07l1.08,5.53a1.94,1.94,0,0,0,1.64,1.55l3.76.5a1.94,1.94,0,0,0,1.63-.55l1-1a1.94,1.94,0,0,0,.46-2l-.42-1.19c2.48-1.84,1.78-5.27,1.78-5.27C319.49,224.62,320.7,218.18,320.7,218.18Z" style="fill:#ffa8a7"></path><path d="M300.9,234.69a6.19,6.19,0,0,1,3.59-.81l-.61.56a2.6,2.6,0,0,0-.72,2.64l.57,1.91a1.23,1.23,0,0,0,1.54.81h0a1.22,1.22,0,0,0,.84-1.31l-.12-1.06a2.17,2.17,0,0,0,2.14-1.56,2.14,2.14,0,0,1-.94,1.76l.35,1.1-.64-1.12a2.05,2.05,0,0,1-.52.13l.15.95a1.45,1.45,0,0,1-1,1.62h0a1.46,1.46,0,0,1-1.86-1l-.81-2.69a2.59,2.59,0,0,1,.4-2.27h0A9.48,9.48,0,0,0,300.9,234.69Z" style="opacity:0.2"></path><path d="M327.74,189.58l-3.13-.11a7,7,0,0,0-6.95,5l-3.84,14c4.17,4.77,10.36,2.78,10.36,2.78l3.32-12.36Z" style="fill:#455a64"></path><path d="M327.74,189.58l-3.13-.11a7,7,0,0,0-6.95,5l-3.84,14c4.17,4.77,10.36,2.78,10.36,2.78l3.32-12.36Z" style="fill:#37474f"></path><polygon points="352.79 228.08 343.55 197.96 341.33 199.15 350.63 229.53 352.79 228.08" style="fill:#FF81AE"></polygon><polygon points="352.79 228.08 343.55 197.96 341.33 199.15 350.63 229.53 352.79 228.08" style="opacity:0.4"></polygon><path d="M322.61,302.76a34.67,34.67,0,0,1-1,5.64c1.43,4,6.12,1.92,6.12,1.92l.11-.62.08-.49c.26-1.43,1.2-4.32,1.2-4.32Z" style="fill:#ffa8a7"></path><path d="M327.14,315.65c-.61.44-1.28.79-1.89,1.23-1.68,1.21-2.78,2.77-4.46,4a8.53,8.53,0,0,1-5.79,1.53,10.59,10.59,0,0,1-5.59-2.4,9.78,9.78,0,0,0,.11,1.25,8.38,8.38,0,0,0,11.12,1.19c1.68-1.21,2.79-2.77,4.47-4,.61-.44,1.27-.79,1.88-1.23a4.14,4.14,0,0,0,1.41-1.72s0-.46-.07-1.16A4.25,4.25,0,0,1,327.14,315.65Z" style="fill:#fff"></path><path d="M328.38,309.82a.63.63,0,0,0-.43-.61l-.08.49a6,6,0,0,1-1.94,0,1.33,1.33,0,0,0-1.14.33l-.18.18c-.09.09-.23.19-.35.13a.24.24,0,0,1-.11-.21.71.71,0,0,1,.06-.24c.06-.16.11-.36.17-.55a.92.92,0,0,0-.27-.93,4.09,4.09,0,0,0-2.42-1,.55.55,0,0,0-.58.44c-.58,2.85-5.93,7.36-7.59,7.6l-.39.07c2.64.36,5.95,1.82,6.14,6.22a7.79,7.79,0,0,0,1.52-.85c1.68-1.21,2.78-2.77,4.46-4,.61-.44,1.28-.79,1.89-1.23a4.25,4.25,0,0,0,1.19-1.31A36.59,36.59,0,0,1,328.38,309.82Z" style="fill:#455a64"></path><path d="M313.13,315.49c-2.27.41-3.79,1.49-3.72,4.5a10.59,10.59,0,0,0,5.59,2.4,8.56,8.56,0,0,0,4.27-.68C319.08,317.31,315.77,315.85,313.13,315.49Z" style="fill:#fff"></path><path d="M353.42,293.78a12.26,12.26,0,0,1,3.05,3.62c2.61,1.66,5.55-3,5.55-3l-.21-.45c-.74-1.31-2.46-4.55-2.46-4.55Z" style="fill:#ffa8a7"></path><path d="M364.86,299.67c-.24.71-.58,1.38-.82,2.09-.67,2-.67,3.87-1.34,5.83a8.48,8.48,0,0,1-3.84,4.59,10.57,10.57,0,0,1-5.95,1.28,9.4,9.4,0,0,0,.81,1,8.4,8.4,0,0,0,9.76-5.47c.68-1.95.67-3.86,1.35-5.82.24-.71.58-1.38.82-2.1a4.16,4.16,0,0,0,.16-2.21s-.29-.35-.73-.91A4.23,4.23,0,0,1,364.86,299.67Z" style="fill:#fff"></path><path d="M362.5,294.19a.61.61,0,0,0-.69-.25l.21.45a6.28,6.28,0,0,1-1.59,1.12,1.31,1.31,0,0,0-.73.92l-.05.25c0,.13-.08.29-.21.31a.23.23,0,0,1-.21-.1.65.65,0,0,1-.09-.23c0-.17-.12-.36-.18-.55a.92.92,0,0,0-.76-.61,4.18,4.18,0,0,0-2.56.57.55.55,0,0,0-.22.7c1.17,2.65-.58,9.43-1.8,10.58l-.28.28c2.36-1.23,5.9-1.95,8.61,1.53a8.38,8.38,0,0,0,.75-1.57c.67-2,.67-3.87,1.34-5.83.24-.71.58-1.38.82-2.09a4.23,4.23,0,0,0,.22-1.76A39,39,0,0,1,362.5,294.19Z" style="fill:#455a64"></path><path d="M353.34,307.63c-1.61,1.66-2.22,3.42-.43,5.83a10.57,10.57,0,0,0,5.95-1.28,8.44,8.44,0,0,0,3.09-3C359.24,305.68,355.7,306.4,353.34,307.63Z" style="fill:#fff"></path><path d="M347,221.67c3.54,12.64.09,24.07-5.63,40.82,4.54,3.36,11,13.56,18.52,27.13,0,0-4.2,5.83-8.91,6l-13.55-17.51-7.65,27.72s-6.06,1-9.57-2.47c0,0,4.69-31.69,6.1-39.39-3.62-7.15-8.91-19.7-4.31-42.24Z" style="fill:#455a64"></path><path d="M347,221.67c3.54,12.64.09,24.07-5.63,40.82,4.54,3.36,11,13.56,18.52,27.13,0,0-4.2,5.83-8.91,6l-13.55-17.51-7.65,27.72s-6.06,1-9.57-2.47c0,0,4.69-31.69,6.1-39.39-3.62-7.15-8.91-19.7-4.31-42.24Z" style="fill:#fff;opacity:0.2"></path><path d="M326.71,261.88c1.61-12.28,3.46-20.59,3.46-20.59-4.65-2.47-6.14-5.06-6.14-5.06a10.68,10.68,0,0,0,4.36,6.46C326.92,249.74,326.71,261.88,326.71,261.88Z" style="opacity:0.2"></path><path d="M337.42,278.08a25.87,25.87,0,0,0,.68-6.23l3.26-9.36L339,272c.21,2.25.27,6.4-.21,7.84Z" style="opacity:0.2"></path><path d="M330.27,188.76l-2.51.26a6.21,6.21,0,0,0-4.54,2.78c-2.58,4-3.78,10.08-3.09,16.67.87,8.22.33,22.45.33,22.45,10.9,8,27.16.87,28.89-.86,0,0-2.94-16.55-2.49-17.59,1-2.39,2.86-7.1,3.11-10.74a19.12,19.12,0,0,0-2-9.38l-9.56-3.59Z" style="fill:#455a64"></path><path d="M338.46,182.43V189a3,3,0,0,1-1,2.27,8.73,8.73,0,0,1-6.28,2.16,2.22,2.22,0,0,1-1.29-.4,1.69,1.69,0,0,1-.42-1.77,3.46,3.46,0,0,1,.41-.87,3.43,3.43,0,0,0,.58-1.86v-6Z" style="fill:#ffa8a7"></path><path d="M338,182.47l-7.52,0V188a12.3,12.3,0,0,0,4.75-1.74A7.39,7.39,0,0,0,338,182.47Z" style="opacity:0.2"></path><path d="M323.44,171.39a4.58,4.58,0,0,1-3-1,4.83,4.83,0,0,1-1.18-1.37.63.63,0,0,1,.68-.91,4.91,4.91,0,0,0,1.75,0,8.32,8.32,0,0,1-1.63-6.18.79.79,0,0,1,1.12-.58A15.43,15.43,0,0,0,329,163c1.42-.11,2.83-.41,4.26-.52a7.85,7.85,0,0,1,4.18.64,4,4,0,0,1,2.29,3.37,1.94,1.94,0,0,1,1.41-.81,2.14,2.14,0,0,1,1.65.48l-2.45,1.37a2.12,2.12,0,0,1,2.33,1.15,5.65,5.65,0,0,1,.45,2.62,20.29,20.29,0,0,1-.16,3.57,6.92,6.92,0,0,1-1.35,3.27,5.15,5.15,0,0,1-2.46,1.66,6.68,6.68,0,0,1-4-.13,15.68,15.68,0,0,1-3.62-1.8A56.94,56.94,0,0,1,323.44,171.39Z" style="fill:#263238"></path><path d="M323.26,169a27.36,27.36,0,0,0,1.57,14.65,5.21,5.21,0,0,0,2,2.76,5.53,5.53,0,0,0,3.56.3,18.12,18.12,0,0,0,5.61-1.58,7.7,7.7,0,0,0,3.89-4.19,3.35,3.35,0,0,0,3.4-1.33,6.4,6.4,0,0,0,1.1-3.72,2.28,2.28,0,0,0-.91-2.21,2.13,2.13,0,0,0-2.15.54,6.34,6.34,0,0,0-2.1,3.15c-.56-2-1.42-4-2-6.08a3.47,3.47,0,0,0-1.19-2.13c-.86-.55-2-.24-3,0A19.56,19.56,0,0,1,323.26,169Z" style="fill:#ffa8a7"></path><polygon points="329.23 175.24 326.83 179.27 329.69 179.8 329.23 175.24" style="fill:#f28f8f"></polygon><path d="M332.44,181.19l-2.17,1.06a1.43,1.43,0,0,0,1.65.47A1.29,1.29,0,0,0,332.44,181.19Z" style="fill:#f28f8f"></path><path d="M332.44,181.19l-2.17,1.06a1.43,1.43,0,0,0,1.65.47A1.29,1.29,0,0,0,332.44,181.19Z" style="opacity:0.4"></path><path d="M331.16,182.79a1.39,1.39,0,0,0,.76-.07,1.15,1.15,0,0,0,.58-1.15,1.4,1.4,0,0,0-.86.3A1.43,1.43,0,0,0,331.16,182.79Z" style="fill:#f28f8f"></path><path d="M333.36,175.4a.8.8,0,0,1-.73.89.82.82,0,0,1-.9-.73.83.83,0,0,1,.74-.9A.81.81,0,0,1,333.36,175.4Z" style="fill:#263238"></path><path d="M326.48,175.82a.82.82,0,0,1-1.63.17.83.83,0,0,1,.74-.9A.8.8,0,0,1,326.48,175.82Z" style="fill:#263238"></path><path d="M325.36,172.65l-1.68,1.44a1.18,1.18,0,0,1,.22-1.32A1.39,1.39,0,0,1,325.36,172.65Z" style="fill:#263238"></path><path d="M332.34,171.85l1.94,1.07a1.18,1.18,0,0,0-.48-1.25A1.42,1.42,0,0,0,332.34,171.85Z" style="fill:#263238"></path><path d="M338.59,240.64c-5.1-7.15-15.81-27.5-9.31-51.78l-2.26-.1c-7.08,21,3.18,45.75,10.54,54.75Z" style="fill:#FF81AE"></path><path d="M338.59,240.64c-5.1-7.15-15.81-27.5-9.31-51.78l-2.26-.1c-7.08,21,3.18,45.75,10.54,54.75Z" style="opacity:0.4"></path><path d="M338.63,247.46l19.15-16.14,3.38,11.93a.46.46,0,0,1-.1.44h0l0,0-.07.05-18.89,16.89a.5.5,0,0,0,.14-.5Z" style="fill:#FF81AE"></path><path d="M338.63,247.46l19.15-16.14,3.38,11.93a.46.46,0,0,1-.1.44h0l0,0-.07.05-18.89,16.89a.5.5,0,0,0,.14-.5Z" style="opacity:0.15"></path><polygon points="339.45 250.36 336.45 239.76 339.45 250.36 339.45 250.36" style="fill:#FF81AE"></polygon><path d="M334.42,238.63l0,0Z" style="fill:#FF81AE"></path><path d="M342.09,260.66Z" style="fill:#FF81AE"></path><polygon points="334.38 238.66 334.4 238.65 334.39 238.66 334.38 238.66" style="fill:#FF81AE"></polygon><polygon points="342.08 260.67 342.08 260.67 342.09 260.66 342.08 260.67" style="fill:#FF81AE"></polygon><polygon points="358.49 233.8 358.49 233.8 358.49 233.8 358.49 233.8" style="fill:#FF81AE"></polygon><path d="M334.2,239.23a.68.68,0,0,1,.19-.57h0l0,0a.68.68,0,0,1,.58-.18h0a1.84,1.84,0,0,1,1.45,1.31l3,10.6,2.78,9.8a.5.5,0,0,1-.14.5h0a.48.48,0,0,1-.48.11l-3.75-1.13a1.52,1.52,0,0,1-1.07-1.25Z" style="fill:#FF81AE"></path><path d="M334.2,239.23a.68.68,0,0,1,.19-.57h0l0,0a.68.68,0,0,1,.58-.18h0a1.84,1.84,0,0,1,1.45,1.31l3,10.6,2.78,9.8a.5.5,0,0,1-.14.5h0a.48.48,0,0,1-.48.11l-3.75-1.13a1.52,1.52,0,0,1-1.07-1.25Z" style="opacity:0.30000000000000004"></path><polygon points="345.35 240.57 348.74 252.72 348.2 253.23 344.93 241.18 345.35 240.57" style="fill:#FF81AE"></polygon><polygon points="352.53 234.15 355.92 246.3 355.38 246.81 352.11 234.76 352.53 234.15" style="fill:#FF81AE"></polygon><path d="M353.33,221.73h0l0,0a.73.73,0,0,1,.56-.16,1.81,1.81,0,0,1,1.46,1.31L358,232a3,3,0,0,1-.9,3l-2,1.74-13.64,11.86a1.68,1.68,0,0,1-2.71-.81l-2.28-8.06a1.84,1.84,0,0,0-1.45-1.31h0a.68.68,0,0,0-.58.18Z" style="fill:#FF81AE"></path><path d="M353.33,221.73h0l0,0a.73.73,0,0,1,.56-.16,1.81,1.81,0,0,1,1.46,1.31L358,232a3,3,0,0,1-.9,3l-2,1.74-13.64,11.86a1.68,1.68,0,0,1-2.71-.81l-2.28-8.06a1.84,1.84,0,0,0-1.45-1.31h0a.68.68,0,0,0-.58.18Z" style="fill:#fff;opacity:0.2"></path><path d="M331,225.69a5.51,5.51,0,0,1-5.51-5.51v-4.42h2.95v4.42a2.56,2.56,0,0,0,5.12,0v-5.3h2.95v5.3A5.51,5.51,0,0,1,331,225.69Z" style="fill:#FF81AE"></path><path d="M328,215.15a2.3,2.3,0,0,0-2.09,0,.64.64,0,0,0,0,1.21,2.3,2.3,0,0,0,2.09,0A.64.64,0,0,0,328,215.15Z" style="fill:#FF81AE"></path><path d="M328,215.15a2.3,2.3,0,0,0-2.09,0,.64.64,0,0,0,0,1.21,2.3,2.3,0,0,0,2.09,0A.64.64,0,0,0,328,215.15Z" style="fill:#fff;opacity:0.30000000000000004"></path><path d="M342.14,213.25c-.73-.71-1.47-1.5-2.21-2.27a6,6,0,0,0-3.94-1.84l-1.55-.1a.9.9,0,0,0-.95.82l-.06.91a5.8,5.8,0,0,0-1.54.19,1.65,1.65,0,0,0-1.15.79,2.45,2.45,0,0,0-.11,1.45l.41,3.33a5.11,5.11,0,0,0,.39,1.63,4.37,4.37,0,0,0,2.56,1.91,1.52,1.52,0,0,0,1.09,0c1.61-.58,3.29-1.08,4.89-1.69l8.24,10.06a5.43,5.43,0,0,0,6.84,1.3h0a5.42,5.42,0,0,0,2.77-5l-1.09-22.66a9.44,9.44,0,0,0-5.23-8L348,192.34l1.67,25.89Z" style="fill:#ffa8a7"></path><path d="M355.08,221.87l-5.46-3.64-.06-1.06h0a4.6,4.6,0,0,1,3.86,2.11Z" style="opacity:0.2"></path><path d="M348,192.34l3.1,1.28a10.17,10.17,0,0,1,6.27,8.39l1.18,11.86a14.87,14.87,0,0,1-10.11-.15l-1.14-14.14a11.36,11.36,0,0,1,.06-3.19Z" style="fill:#37474f"></path><path d="M336.53,208.07h-3v3.17h0a.75.75,0,0,0,.45.62,2.26,2.26,0,0,0,2.1,0,.71.71,0,0,0,.43-.6h0Z" style="fill:#FF81AE"></path><path d="M336.09,207.45a2.34,2.34,0,0,0-2.11,0,.64.64,0,0,0,0,1.22,2.32,2.32,0,0,0,2.1,0A.65.65,0,0,0,336.09,207.45Z" style="fill:#FF81AE"></path><path d="M336.09,207.45a2.34,2.34,0,0,0-2.11,0,.64.64,0,0,0,0,1.22,2.32,2.32,0,0,0,2.1,0A.65.65,0,0,0,336.09,207.45Z" style="fill:#fff;opacity:0.30000000000000004"></path><path d="M336,154.36H334.1v53.5a.45.45,0,0,0,.28.4,1.48,1.48,0,0,0,1.33,0,.47.47,0,0,0,.28-.39h0Z" style="fill:#e0e0e0"></path><path d="M278.64,137.27c7.81,4.65,15.76,21.07,16.68,23.72,6.29-21.32,26.94-46.64,39.72-51.4C317.7,107.63,289,120.1,278.64,137.27Z" style="fill:#FF81AE"></path><path d="M295.32,161c4.5-1.46,32.57,4.76,39.72,9v-60.4C322.26,114.35,301.61,139.67,295.32,161Z" style="fill:#FF81AE"></path><path d="M308.92,103.75c7.2-.83,17.95-.08,26.12,5.84V98.37A63.77,63.77,0,0,0,308.92,103.75Z" style="fill:#FF81AE"></path><path d="M308.92,103.75c-17.19,7.65-27.6,22-30.28,33.52C289,120.1,317.7,107.63,335,109.59,326.87,103.67,316.12,102.92,308.92,103.75Z" style="fill:#FF81AE"></path><path d="M391.44,137.27c-7.82,4.65-15.76,21.07-16.69,23.72-6.28-21.32-26.94-46.64-39.71-51.4C352.38,107.63,381.08,120.1,391.44,137.27Z" style="fill:#FF81AE"></path><path d="M374.75,161c-4.5-1.46-32.56,4.76-39.71,9v-60.4C347.81,114.35,368.47,139.67,374.75,161Z" style="fill:#FF81AE"></path><path d="M361.15,103.75c-7.19-.83-17.94-.08-26.11,5.84V98.37A63.69,63.69,0,0,1,361.15,103.75Z" style="fill:#FF81AE"></path><path d="M361.15,103.75c17.19,7.65,27.61,22,30.29,33.52-10.36-17.17-39.06-29.64-56.4-27.68C343.21,103.67,354,102.92,361.15,103.75Z" style="fill:#FF81AE"></path><g style="opacity:0.2"><path d="M295.32,161c4.5-1.46,32.57,4.76,39.72,9v-60.4C322.26,114.35,301.61,139.67,295.32,161Z"></path><path d="M308.92,103.75c-17.19,7.65-27.6,22-30.28,33.52C289,120.1,317.7,107.63,335,109.59,326.87,103.67,316.12,102.92,308.92,103.75Z"></path><path d="M391.44,137.27c-7.82,4.65-15.76,21.07-16.69,23.72-6.28-21.32-26.94-46.64-39.71-51.4C352.38,107.63,381.08,120.1,391.44,137.27Z"></path><path d="M361.15,103.75c-7.19-.83-17.94-.08-26.11,5.84V98.37A63.69,63.69,0,0,1,361.15,103.75Z"></path></g><g style="opacity:0.1"><path d="M278.64,137.27c7.81,4.65,15.76,21.07,16.68,23.72,6.29-21.32,26.94-46.64,39.72-51.4C317.7,107.63,289,120.1,278.64,137.27Z" style="fill:#fff"></path><path d="M295.32,161c4.5-1.46,32.57,4.76,39.72,9v-60.4C322.26,114.35,301.61,139.67,295.32,161Z" style="fill:#fff"></path><path d="M308.92,103.75c7.2-.83,17.95-.08,26.12,5.84V98.37A63.77,63.77,0,0,0,308.92,103.75Z" style="fill:#fff"></path><path d="M308.92,103.75c-17.19,7.65-27.6,22-30.28,33.52C289,120.1,317.7,107.63,335,109.59,326.87,103.67,316.12,102.92,308.92,103.75Z" style="fill:#fff"></path><path d="M391.44,137.27c-7.82,4.65-15.76,21.07-16.69,23.72-6.28-21.32-26.94-46.64-39.71-51.4C352.38,107.63,381.08,120.1,391.44,137.27Z" style="fill:#fff"></path><path d="M374.75,161c-4.5-1.46-32.56,4.76-39.71,9v-60.4C347.81,114.35,368.47,139.67,374.75,161Z" style="fill:#fff"></path><path d="M361.15,103.75c-7.19-.83-17.94-.08-26.11,5.84V98.37A63.69,63.69,0,0,1,361.15,103.75Z" style="fill:#fff"></path><path d="M361.15,103.75c17.19,7.65,27.61,22,30.29,33.52-10.36-17.17-39.06-29.64-56.4-27.68C343.21,103.67,354,102.92,361.15,103.75Z" style="fill:#fff"></path></g><path d="M336,105.76h-1.93v3.59h0a.47.47,0,0,0,.28.41,1.54,1.54,0,0,0,1.37,0,.48.48,0,0,0,.27-.39h0Z" style="fill:#e0e0e0"></path><path d="M335.72,105.35a1.54,1.54,0,0,0-1.37,0,.42.42,0,0,0,0,.79,1.54,1.54,0,0,0,1.37,0A.43.43,0,0,0,335.72,105.35Z" style="fill:#f5f5f5"></path></g><g id="freepik--character-1--inject-30"><path d="M186.3,208.28h-.21a6.31,6.31,0,0,0-5.91,5.09L178,223.87l-5.32-12.22-3.35,3.07L173,232.3a5.39,5.39,0,0,0,5.28,4.31h0a5.39,5.39,0,0,0,5.36-4.79Z" style="fill:#ffa8a7"></path><path d="M176.63,220.69c-1,2.3-4.59,2.35-5.65,2l1.91,9.46a5.61,5.61,0,0,0,5.5,4.5h0a5.61,5.61,0,0,0,5.58-5.05l2.33-23.28h-.44a6.09,6.09,0,0,0-6,5.11L178,223.87Z" style="fill:#FF81AE"></path><path d="M176.63,220.69c-1,2.3-4.59,2.35-5.65,2l1.91,9.46a5.61,5.61,0,0,0,5.5,4.5h0a5.61,5.61,0,0,0,5.58-5.05l2.33-23.28h-.44a6.09,6.09,0,0,0-6,5.11L178,223.87Z" style="fill:#fff;opacity:0.30000000000000004"></path><path d="M178,223.87l1.75,4.67v-2.47a2.76,2.76,0,0,0-1.19-2.27l-.48-.34Z" style="opacity:0.30000000000000004"></path><path d="M165.16,226.42a4.93,4.93,0,0,1-4.92-4.92v-3.95h2.64v3.95a2.29,2.29,0,0,0,4.57,0v-4.74h2.64v4.74A4.93,4.93,0,0,1,165.16,226.42Z" style="fill:#455a64"></path><path d="M162.48,217a2.06,2.06,0,0,0-1.87,0,.57.57,0,0,0,0,1.08,2.09,2.09,0,0,0,1.87,0A.57.57,0,0,0,162.48,217Z" style="fill:#455a64"></path><path d="M162.48,217a2.06,2.06,0,0,0-1.87,0,.57.57,0,0,0,0,1.08,2.09,2.09,0,0,0,1.87,0A.57.57,0,0,0,162.48,217Z" style="fill:#fff;opacity:0.30000000000000004"></path><path d="M176.43,331.91c3,.15,6.27-2.86,7.74-3.9s2.43-1,3.13-4.3l.65-1.86L182.52,320l-.64,3.21a3,3,0,0,1-.95,1.67l-4.54,4.05a12.31,12.31,0,0,1-2.27,1.65l-.14.08C173.91,331.21,174.42,331.82,176.43,331.91Z" style="fill:#ffa8a7"></path><path d="M187.3,323.71c-.7,3.3-1.66,3.26-3.13,4.3s-4.77,4.05-7.74,3.9c-2-.09-2.52-.7-2.45-1.29l-2.11,1.19a2.05,2.05,0,0,0-.46,3.26l0,0a4.65,4.65,0,0,0,2.72,1,8.59,8.59,0,0,0,5.38-1.36c1.26-.83,2.31-2,3.71-2.59a22.3,22.3,0,0,1,2.33-.67,3.92,3.92,0,0,0,2.06-1.2,4,4,0,0,0,.66-2.74A9.9,9.9,0,0,0,187.3,323.71Z" style="fill:#FF81AE"></path><path d="M187.3,323.71c-.7,3.3-1.66,3.26-3.13,4.3s-4.77,4.05-7.74,3.9c-2-.09-2.52-.7-2.45-1.29l-2.11,1.19a2.05,2.05,0,0,0-.46,3.26l0,0a4.65,4.65,0,0,0,2.72,1,8.59,8.59,0,0,0,5.38-1.36c1.26-.83,2.31-2,3.71-2.59a22.3,22.3,0,0,1,2.33-.67,3.92,3.92,0,0,0,2.06-1.2,4,4,0,0,0,.66-2.74A9.9,9.9,0,0,0,187.3,323.71Z" style="fill:#fff;opacity:0.30000000000000004"></path><path d="M215.91,320.89a1.79,1.79,0,0,0,1.58,0,4.1,4.1,0,0,0,2.1-2.37,13.8,13.8,0,0,0,.64-3.55c.08-.82.17-1.63.25-2.45a9.57,9.57,0,0,0,.06-2.33,2.5,2.5,0,0,0-.92-1.64l-1.35-3-4.45,3.61,1.31,1.37a2.7,2.7,0,0,1,.75,1.87l0,5.82a3.78,3.78,0,0,1-.47,1.81A1.11,1.11,0,0,0,215.91,320.89Z" style="fill:#ffa8a7"></path><path d="M222.36,310.6a2.83,2.83,0,0,0-2.74-2.06,2.5,2.5,0,0,1,.92,1.64,7.79,7.79,0,0,1,0,1.93c-.11,1.07-.22,2.13-.32,3.2a12.41,12.41,0,0,1-.61,3.2,4.1,4.1,0,0,1-2.1,2.37,1.79,1.79,0,0,1-1.58,0,1.11,1.11,0,0,1-.54-.82,3.93,3.93,0,0,1-.77,1c-.19.19-.37.37-.51.54a1.71,1.71,0,0,0-.33,1.85,2.35,2.35,0,0,0,1.81,1,7.63,7.63,0,0,0,3.12-.06,4,4,0,0,0,2.48-1.8,6.27,6.27,0,0,0,.61-2.58l.57-6.22c.05-.64.1-1.28.11-1.92A4.58,4.58,0,0,0,222.36,310.6Z" style="fill:#FF81AE"></path><path d="M222.36,310.6a2.83,2.83,0,0,0-2.74-2.06,2.5,2.5,0,0,1,.92,1.64,7.79,7.79,0,0,1,0,1.93c-.11,1.07-.22,2.13-.32,3.2a12.41,12.41,0,0,1-.61,3.2,4.1,4.1,0,0,1-2.1,2.37,1.79,1.79,0,0,1-1.58,0,1.11,1.11,0,0,1-.54-.82,3.93,3.93,0,0,1-.77,1c-.19.19-.37.37-.51.54a1.71,1.71,0,0,0-.33,1.85,2.35,2.35,0,0,0,1.81,1,7.63,7.63,0,0,0,3.12-.06,4,4,0,0,0,2.48-1.8,6.27,6.27,0,0,0,.61-2.58l.57-6.22c.05-.64.1-1.28.11-1.92A4.58,4.58,0,0,0,222.36,310.6Z" style="fill:#fff;opacity:0.30000000000000004"></path><path d="M203.14,233.76c7.45,15.85,2.68,27.05-2.89,44.25,4.69,3.36,11.43,13.68,19.36,27.42,0,0-1.84,4.51-6.64,4.74-1-1.23-16.5-16.16-16.5-16.16l-7.36,28.44a9.59,9.59,0,0,1-7.91-2.63s2.37-32.19,3.69-40.08c-3.82-7.25-9.42-20-5.09-43.08Z" style="fill:#FF81AE"></path><path d="M203.14,233.76c7.45,15.85,2.68,27.05-2.89,44.25,4.69,3.36,11.43,13.68,19.36,27.42,0,0-1.84,4.51-6.64,4.74-1-1.23-16.5-16.16-16.5-16.16l-7.36,28.44a9.59,9.59,0,0,1-7.91-2.63s2.37-32.19,3.69-40.08c-3.82-7.25-9.42-20-5.09-43.08Z" style="opacity:0.30000000000000004"></path><path d="M203.14,233.76c7.45,15.85,2.68,27.05-2.89,44.25,4.69,3.36,11.43,13.68,19.36,27.42,0,0-1.84,4.51-6.64,4.74-1-1.23-16.5-16.16-16.5-16.16l-7.36,28.44a9.59,9.59,0,0,1-7.91-2.63s2.37-32.19,3.69-40.08c-3.82-7.25-9.42-20-5.09-43.08Z" style="fill:#fff;opacity:0.1"></path><path d="M185.28,277.63c1.44-12.57,3.2-21.09,3.2-21.09-4.79-2.45-6.36-5.07-6.36-5.07a10.9,10.9,0,0,0,4.56,6.53C185.3,265.22,185.28,277.63,185.28,277.63Z" style="opacity:0.2"></path><path d="M196.47,294a26.1,26.1,0,0,0,.6-6.38l3.18-9.62-2.3,9.71c.24,2.29.48,6.23,0,7.71Z" style="opacity:0.2"></path><path d="M188.54,208.08l-2.25.17a2.87,2.87,0,0,0-2.17,1.26l-5.2,7.7a6.24,6.24,0,0,0,.41,7.53h0a3.62,3.62,0,0,1,.83,2.82l-2.65,20.36c10.22,7.58,25.86,4.49,30.5,2a33.71,33.71,0,0,0-4.54-16.41,9.34,9.34,0,0,1-.89-7.18l1.49-5.29-4.47-12.59Z" style="fill:#FF81AE"></path><path d="M188.54,208.08l-2.25.17a2.87,2.87,0,0,0-2.17,1.26l-5.2,7.7a6.24,6.24,0,0,0,.41,7.53h0a3.62,3.62,0,0,1,.83,2.82l-2.65,20.36c10.22,7.58,25.86,4.49,30.5,2a33.71,33.71,0,0,0-4.54-16.41,9.34,9.34,0,0,1-.89-7.18l1.49-5.29-4.47-12.59Z" style="fill:#fff;opacity:0.5"></path><path d="M181.85,195.86a7.24,7.24,0,0,1-.87-9.09,2.51,2.51,0,0,1-1.55-2.51,2.49,2.49,0,0,1,2-2.17,7.1,7.1,0,0,1,2.64.37,12.54,12.54,0,0,0,4.53,0c1.5-.22,3-.54,4.51-.65a9.15,9.15,0,0,1,4.46.63,5,5,0,0,1,2.88,3.32,3.46,3.46,0,0,1,3.31,1.38,5.83,5.83,0,0,1,1.09,3.39c0,1.21-.12,2.42-.18,3.62a8.29,8.29,0,0,0,.45,3.57c.54,1.3,1.62,2.37,2,3.74a3.75,3.75,0,0,1-4.6,4.55,10.08,10.08,0,0,0,.35-2.94c-.12,1.33-1.44,2.37-2.7,2.82a10.54,10.54,0,0,1-4,.35l-4.69-.19-5.47-.21a7.5,7.5,0,0,1-2.86-.5,4.88,4.88,0,0,1-2.54-4.2A12.59,12.59,0,0,1,181.85,195.86Z" style="fill:#263238"></path><path d="M188.54,203.47v5s-4.08,2.61-2.36,4c3.24,2.6,10.18-4,10.18-4v-8.31Z" style="fill:#ffa8a7"></path><path d="M196.36,200.13c-1.2,3.58-5.57,6.29-7.82,6.83v-3.49Z" style="opacity:0.30000000000000004"></path><path d="M195.43,194.46a7.42,7.42,0,0,0-.09,1.88,2.22,2.22,0,0,0,.62,1.25,1.4,1.4,0,0,0,1.27.38A2.45,2.45,0,0,1,202,196.8a3.13,3.13,0,0,1-.52,2.56,5.8,5.8,0,0,1-2,1.7,2.09,2.09,0,0,1-2.48-1c-2.38,3-6.54,5.29-10.43,5a5.58,5.58,0,0,1-3-1.05c-1.48-1.14-1.59-2.86-1.77-4.56a23.76,23.76,0,0,1,.05-6.47,12.76,12.76,0,0,1,4.09-7.8C187.27,191.62,193.17,194,195.43,194.46Z" style="fill:#ffa8a7"></path><polygon points="187.32 193.73 184.65 197.01 187.13 197.87 187.32 193.73" style="fill:#f28f8f"></polygon><path d="M189.41,199.47l-2.08.66a1.29,1.29,0,0,0,1.41.63A1.15,1.15,0,0,0,189.41,199.47Z" style="fill:#f28f8f"></path><path d="M189.41,199.47l-2.08.66a1.29,1.29,0,0,0,1.41.63A1.15,1.15,0,0,0,189.41,199.47Z" style="opacity:0.30000000000000004"></path><path d="M188.06,200.72a1.14,1.14,0,0,0,.68,0,1,1,0,0,0,.67-.95,1.23,1.23,0,0,0-.8.16A1.2,1.2,0,0,0,188.06,200.72Z" style="fill:#f28f8f"></path><path d="M191,194.41a.74.74,0,1,1-.71-.77A.74.74,0,0,1,191,194.41Z" style="fill:#263238"></path><path d="M184.79,193.89a.74.74,0,0,1-1.48-.06.75.75,0,0,1,.78-.71A.74.74,0,0,1,184.79,193.89Z" style="fill:#263238"></path><path d="M184.2,190.92,182.51,192a1.07,1.07,0,0,1,.38-1.15A1.22,1.22,0,0,1,184.2,190.92Z" style="fill:#263238"></path><path d="M190.54,191.11l1.59,1.21a1,1,0,0,0-.27-1.17A1.23,1.23,0,0,0,190.54,191.11Z" style="fill:#263238"></path><path d="M199.6,208.46c-.71,7,1.72,10.45,8.13,22.61,0,0-2.19,10.39-4.83,15.43-2.61,1.07-3.93,2.88-5.44,3.65a.49.49,0,0,0-.2.7c.61,1,2.22.22,3.7-.63a18.77,18.77,0,0,1-3.37,4.5c-1,.95-.29,2.49,2.29,2.49a5.62,5.62,0,0,0,4.51-2.7c.47-.68,3.71-7.15,3.71-7.15l6.52-13.14a6.3,6.3,0,0,0,.16-5.27l-6.67-15.67a7.91,7.91,0,0,0-7.28-4.82Z" style="fill:#ffa8a7"></path><path d="M199.6,208.46c-2.34,7.92,6.73,20.56,7.87,22.59-.73,1.7-2.47,10.08-2.47,10.08,3.71.45,5,2.38,5,2.38l4.54-8.24a8,8,0,0,0,.37-7.07c-1.84-4.27-4.85-11.23-6.36-14.8C206.27,208,201.6,208.41,199.6,208.46Z" style="fill:#FF81AE"></path><path d="M199.6,208.46c-2.34,7.92,6.73,20.56,7.87,22.59-.73,1.7-2.47,10.08-2.47,10.08,3.71.45,5,2.38,5,2.38l4.54-8.24a8,8,0,0,0,.37-7.07c-1.84-4.27-4.85-11.23-6.36-14.8C206.27,208,201.6,208.41,199.6,208.46Z" style="fill:#fff;opacity:0.30000000000000004"></path><path d="M197.7,222.41a8.2,8.2,0,0,1-9.88,2.91,6.09,6.09,0,0,0,5.64,1.57A6.72,6.72,0,0,0,197.7,222.41Z" style="opacity:0.2"></path><path d="M171.05,216.42l-.35.08-.09,1a1.54,1.54,0,0,1-1,1.29l-1.06.38a1.48,1.48,0,0,1-1.34-.15l-2.52-1.61a1.52,1.52,0,0,1-.66-1.65l1.07-4.31a1.53,1.53,0,0,1,1.38-1.16l3.21-.2a3.25,3.25,0,0,1,3,1.55h0A3.22,3.22,0,0,1,171.05,216.42Z" style="fill:#ffa8a7"></path><path d="M167.64,211.37c3.59-.36,2.5.66,2.5.66l-.62.19a2.05,2.05,0,0,0-1.4,1.65l-.22,1.55a1,1,0,0,0,.83,1.1h0a1,1,0,0,0,1-.66l.26-.8a1.7,1.7,0,0,0,2-.4,1.69,1.69,0,0,1-1.26,1l-.11.89-.08-1a1.44,1.44,0,0,1-.42-.08l-.21.73a1.14,1.14,0,0,1-1.24.83h0a1.15,1.15,0,0,1-1-1.31l.33-2.19a2,2,0,0,1,1-1.49h0A10.85,10.85,0,0,0,167.64,211.37Z" style="opacity:0.2"></path><path d="M170.09,208.53h-2.67v2.84h0a.66.66,0,0,0,.4.55,2.07,2.07,0,0,0,1.89,0,.68.68,0,0,0,.38-.53h0Z" style="fill:#455a64"></path><path d="M169.69,208a2.13,2.13,0,0,0-1.89,0,.58.58,0,0,0,0,1.09,2.1,2.1,0,0,0,1.89,0A.58.58,0,0,0,169.69,208Z" style="fill:#455a64"></path><path d="M169.69,208a2.13,2.13,0,0,0-1.89,0,.58.58,0,0,0,0,1.09,2.1,2.1,0,0,0,1.89,0A.58.58,0,0,0,169.69,208Z" style="fill:#fff;opacity:0.30000000000000004"></path><path d="M169.6,178h-1.69v30.36a.43.43,0,0,0,.25.36,1.33,1.33,0,0,0,1.2,0,.44.44,0,0,0,.24-.35h0Z" style="fill:#e0e0e0"></path><path d="M118.34,162.7c7,4.16,14.08,18.83,14.91,21.2,5.62-19.05,24.08-41.69,35.5-46C153.25,136.21,127.59,147.35,118.34,162.7Z" style="fill:#455a64"></path><path d="M133.25,183.9c4-1.3,29.11,4.26,35.5,8V138C157.33,142.21,138.87,164.85,133.25,183.9Z" style="fill:#455a64"></path><path d="M145.41,132.73c6.43-.74,16-.07,23.34,5.22v-10A56.88,56.88,0,0,0,145.41,132.73Z" style="fill:#455a64"></path><path d="M145.41,132.73c-15.37,6.84-24.68,19.69-27.07,30,9.25-15.35,34.91-26.49,50.41-24.75C161.45,132.66,151.84,132,145.41,132.73Z" style="fill:#455a64"></path><path d="M219.17,162.7c-7,4.16-14.08,18.83-14.91,21.2-5.62-19.05-24.09-41.69-35.51-46C184.26,136.21,209.91,147.35,219.17,162.7Z" style="fill:#455a64"></path><path d="M204.26,183.9c-4-1.3-29.12,4.26-35.51,8V138C180.17,142.21,198.64,164.85,204.26,183.9Z" style="fill:#455a64"></path><path d="M192.1,132.73c-6.43-.74-16-.07-23.35,5.22v-10A57,57,0,0,1,192.1,132.73Z" style="fill:#455a64"></path><path d="M192.1,132.73c15.37,6.84,24.68,19.69,27.07,30-9.26-15.35-34.91-26.49-50.42-24.75C176.06,132.66,185.67,132,192.1,132.73Z" style="fill:#455a64"></path><g style="opacity:0.30000000000000004"><path d="M118.34,162.7c7,4.16,14.08,18.83,14.91,21.2,5.62-19.05,24.08-41.69,35.5-46C153.25,136.21,127.59,147.35,118.34,162.7Z" style="fill:#fff"></path><path d="M133.25,183.9c4-1.3,29.11,4.26,35.5,8V138C157.33,142.21,138.87,164.85,133.25,183.9Z" style="fill:#fff"></path><path d="M145.41,132.73c6.43-.74,16-.07,23.34,5.22v-10A56.88,56.88,0,0,0,145.41,132.73Z" style="fill:#fff"></path><path d="M145.41,132.73c-15.37,6.84-24.68,19.69-27.07,30,9.25-15.35,34.91-26.49,50.41-24.75C161.45,132.66,151.84,132,145.41,132.73Z" style="fill:#fff"></path><path d="M219.17,162.7c-7,4.16-14.08,18.83-14.91,21.2-5.62-19.05-24.09-41.69-35.51-46C184.26,136.21,209.91,147.35,219.17,162.7Z" style="fill:#fff"></path><path d="M204.26,183.9c-4-1.3-29.12,4.26-35.51,8V138C180.17,142.21,198.64,164.85,204.26,183.9Z" style="fill:#fff"></path><path d="M192.1,132.73c-6.43-.74-16-.07-23.35,5.22v-10A57,57,0,0,1,192.1,132.73Z" style="fill:#fff"></path><path d="M192.1,132.73c15.37,6.84,24.68,19.69,27.07,30-9.26-15.35-34.91-26.49-50.42-24.75C176.06,132.66,185.67,132,192.1,132.73Z" style="fill:#fff"></path></g><g style="opacity:0.2"><path d="M133.25,183.9c4-1.3,29.11,4.26,35.5,8V138C157.33,142.21,138.87,164.85,133.25,183.9Z"></path><path d="M145.41,132.73c-15.37,6.84-24.68,19.69-27.07,30,9.25-15.35,34.91-26.49,50.41-24.75C161.45,132.66,151.84,132,145.41,132.73Z"></path><path d="M219.17,162.7c-7,4.16-14.08,18.83-14.91,21.2-5.62-19.05-24.09-41.69-35.51-46C184.26,136.21,209.91,147.35,219.17,162.7Z"></path><path d="M192.1,132.73c-6.43-.74-16-.07-23.35,5.22v-10A57,57,0,0,1,192.1,132.73Z"></path></g><path d="M169.62,134.53h-1.73v3.21h0a.45.45,0,0,0,.26.36,1.35,1.35,0,0,0,1.22,0,.46.46,0,0,0,.25-.35h0Z" style="fill:#e0e0e0"></path><path d="M169.36,134.17a1.35,1.35,0,0,0-1.22,0c-.34.2-.33.51,0,.71a1.35,1.35,0,0,0,1.22,0A.37.37,0,0,0,169.36,134.17Z" style="fill:#f5f5f5"></path></g><g id="freepik--Rain--inject-30"><g style="opacity:0.5"><path d="M55.87,147.38l7,7.21c.45.46,1.16-.25.71-.71q-3.52-3.6-7-7.21c-.45-.46-1.16.25-.71.71Z" style="fill:#e0e0e0"></path><path d="M68.15,147.6q2.49,2.51,5,5a.5.5,0,0,0,.7-.7q-2.49-2.51-5-5a.5.5,0,0,0-.7.7Z" style="fill:#e0e0e0"></path><path d="M70.66,130.09l15.43,15.32a.5.5,0,0,0,.71-.7L71.37,129.38c-.46-.45-1.17.26-.71.71Z" style="fill:#e0e0e0"></path><path d="M77.9,114.35l6.75,6.75a.5.5,0,0,0,.7-.7l-6.75-6.75a.5.5,0,0,0-.7.7Z" style="fill:#e0e0e0"></path><path d="M87.16,168.34l7.25,7.25a.5.5,0,0,0,.7-.7l-7.25-7.25a.5.5,0,0,0-.7.7Z" style="fill:#e0e0e0"></path><path d="M94.9,152.1l6,6.25c.44.47,1.15-.24.7-.7l-6-6.25c-.44-.47-1.15.24-.7.7Z" style="fill:#e0e0e0"></path><path d="M72.4,178.1q5.49,5.51,11,11a.5.5,0,0,0,.7-.7q-5.49-5.51-11-11a.5.5,0,0,0-.7.7Z" style="fill:#e0e0e0"></path><path d="M37.65,181.35q8,8,16,16a.5.5,0,0,0,.7-.7q-8-8-16-16a.5.5,0,0,0-.7.7Z" style="fill:#e0e0e0"></path><path d="M46.64,226.36l11,10.5c.47.44,1.18-.26.71-.71l-11-10.5c-.47-.44-1.18.26-.71.71Z" style="fill:#e0e0e0"></path><path d="M73.65,217.35q5.75,5.76,11.5,11.5a.5.5,0,0,0,.7-.7q-5.75-5.76-11.5-11.5a.5.5,0,0,0-.7.7Z" style="fill:#e0e0e0"></path><path d="M76.6,253.9q14,13.75,28,27.53a.5.5,0,0,0,.71-.71q-14-13.75-28-27.53a.5.5,0,0,0-.71.71Z" style="fill:#e0e0e0"></path><path d="M110.65,235.35q5.49,5.51,11,11a.5.5,0,0,0,.7-.7q-5.49-5.51-11-11a.5.5,0,0,0-.7.7Z" style="fill:#e0e0e0"></path><path d="M115.65,209.35q10.25,10.26,20.5,20.5a.5.5,0,0,0,.7-.7q-10.24-10.26-20.5-20.5a.5.5,0,0,0-.7.7Z" style="fill:#e0e0e0"></path><path d="M139.15,243.35l4.5,5c.43.48,1.13-.23.7-.7l-4.5-5c-.43-.48-1.13.23-.7.7Z" style="fill:#e0e0e0"></path><path d="M137.15,209.85l10.5,10.5a.5.5,0,0,0,.7-.7l-10.5-10.5a.5.5,0,0,0-.7.7Z" style="fill:#e0e0e0"></path><path d="M143.65,172.35l19.5,19.5a.5.5,0,0,0,.7-.7l-19.5-19.5a.5.5,0,0,0-.7.7Z" style="fill:#e0e0e0"></path><path d="M136.65,129.35l12,12a.5.5,0,0,0,.7-.7l-12-12a.5.5,0,0,0-.7.7Z" style="fill:#e0e0e0"></path><path d="M119.19,132.31l10.42,10.08c.47.44,1.18-.26.71-.71L119.9,131.6c-.46-.45-1.17.26-.71.71Z" style="fill:#e0e0e0"></path><path d="M125.65,93.85q8.74,8.76,17.5,17.5a.5.5,0,0,0,.7-.7q-8.74-8.76-17.5-17.5a.5.5,0,0,0-.7.7Z" style="fill:#e0e0e0"></path><path d="M164.65,121.85q4.24,4.26,8.5,8.5a.5.5,0,0,0,.7-.7q-4.24-4.26-8.5-8.5a.5.5,0,0,0-.7.7Z" style="fill:#e0e0e0"></path><path d="M98.15,76.35l12,12a.5.5,0,0,0,.7-.7l-12-12a.5.5,0,0,0-.7.7Z" style="fill:#e0e0e0"></path><path d="M173.15,87.85q7.74,7.75,15.5,15.5a.5.5,0,0,0,.7-.7q-7.74-7.75-15.5-15.5a.5.5,0,0,0-.7.7Z" style="fill:#e0e0e0"></path><path d="M203.65,167.35l25.5,25.5a.5.5,0,0,0,.7-.7l-25.5-25.5a.5.5,0,0,0-.7.7Z" style="fill:#e0e0e0"></path><path d="M212.15,211.35l10.5,10.5a.5.5,0,0,0,.7-.7l-10.5-10.5a.5.5,0,0,0-.7.7Z" style="fill:#e0e0e0"></path><path d="M210.65,237.35q5,5,10,10a.5.5,0,0,0,.7-.7q-5-5-10-10a.5.5,0,0,0-.7.7Z" style="fill:#e0e0e0"></path><path d="M175.59,238.91l12,12.48c.45.47,1.16-.24.71-.7l-12-12.49c-.45-.46-1.16.24-.71.71Z" style="fill:#e0e0e0"></path><path d="M161.1,253.4l17.5,17c.46.45,1.17-.26.71-.71l-17.5-17c-.46-.44-1.17.26-.71.71Z" style="fill:#e0e0e0"></path><path d="M142.15,280.35l5.5,6c.44.48,1.14-.23.71-.71l-5.5-6c-.44-.47-1.14.23-.71.71Z" style="fill:#e0e0e0"></path><path d="M115.68,285.82l22.5,22c.46.45,1.16-.25.7-.7l-22.49-22c-.46-.45-1.17.26-.71.71Z" style="fill:#e0e0e0"></path><path d="M75.15,296.35l9.5,9.5a.5.5,0,0,0,.7-.7l-9.5-9.5a.5.5,0,0,0-.7.7Z" style="fill:#e0e0e0"></path><path d="M45.15,316.85l22.5,22.5a.5.5,0,0,0,.7-.7l-22.5-22.5a.5.5,0,0,0-.7.7Z" style="fill:#e0e0e0"></path><path d="M34.65,267.85l20,20a.5.5,0,0,0,.7-.7l-20-20a.5.5,0,0,0-.7.7Z" style="fill:#e0e0e0"></path><path d="M104.63,352.37l18,17.5c.46.45,1.17-.26.71-.71l-18-17.5c-.46-.45-1.17.26-.71.71Z" style="fill:#e0e0e0"></path><path d="M80.08,366.42l25,25a.5.5,0,0,0,.71-.71l-25-25a.5.5,0,0,0-.71.71Z" style="fill:#e0e0e0"></path><path d="M123.15,336.35l11,10.5c.46.45,1.17-.26.7-.7l-11-10.5c-.46-.45-1.17.26-.7.7Z" style="fill:#e0e0e0"></path><path d="M142.65,374.85q3.49,3.25,7,6.5c.47.44,1.18-.26.7-.7q-3.49-3.25-7-6.5c-.47-.44-1.18.26-.7.7Z" style="fill:#e0e0e0"></path><path d="M150.65,343.35l9.5,9.5a.5.5,0,0,0,.7-.7l-9.5-9.5a.5.5,0,0,0-.7.7Z" style="fill:#e0e0e0"></path><path d="M171.65,305.85l17,17a.5.5,0,0,0,.7-.7l-17-17a.5.5,0,0,0-.7.7Z" style="fill:#e0e0e0"></path><path d="M198.15,335.35l10,10.5c.44.47,1.15-.24.7-.7l-10-10.5c-.44-.47-1.15.24-.7.7Z" style="fill:#e0e0e0"></path><path d="M208.65,291.35l14,14a.5.5,0,0,0,.7-.7l-14-14a.5.5,0,0,0-.7.7Z" style="fill:#e0e0e0"></path><path d="M232.65,260.85l9,9a.5.5,0,0,0,.7-.7l-9-9a.5.5,0,0,0-.7.7Z" style="fill:#e0e0e0"></path><path d="M168.65,278.35l7,7.5c.44.48,1.14-.23.7-.7l-7-7.5c-.44-.48-1.14.23-.7.7Z" style="fill:#e0e0e0"></path><path d="M250.65,293.35l13,13a.5.5,0,0,0,.7-.7l-13-13a.5.5,0,0,0-.7.7Z" style="fill:#e0e0e0"></path><path d="M236.18,343.82l11.49,11.51a.5.5,0,0,0,.71-.71l-11.49-11.51a.5.5,0,0,0-.71.71Z" style="fill:#e0e0e0"></path><path d="M191.67,362.83l11,11.51c.45.46,1.15-.24.71-.71l-11-11.5c-.45-.47-1.16.24-.71.7Z" style="fill:#e0e0e0"></path><path d="M184.11,387.39l8.51,9c.44.47,1.15-.24.71-.71q-4.26-4.5-8.51-9c-.45-.47-1.15.24-.71.71Z" style="fill:#e0e0e0"></path><path d="M220.65,393.35l28,28a.5.5,0,0,0,.7-.7l-28-28a.5.5,0,0,0-.7.7Z" style="fill:#e0e0e0"></path><path d="M189.15,412.35l13,13a.5.5,0,0,0,.7-.7l-13-13a.5.5,0,0,0-.7.7Z" style="fill:#e0e0e0"></path><path d="M216.15,415.35l11,11a.5.5,0,0,0,.7-.7l-11-11a.5.5,0,0,0-.7.7Z" style="fill:#e0e0e0"></path><path d="M139.15,410.35l11.5,11.5a.5.5,0,0,0,.7-.7l-11.5-11.5a.5.5,0,0,0-.7.7Z" style="fill:#e0e0e0"></path><path d="M236.65,119.85l12,12a.5.5,0,0,0,.7-.7l-12-12a.5.5,0,0,0-.7.7Z" style="fill:#e0e0e0"></path><path d="M233.65,81.85q4.24,4.26,8.5,8.5a.5.5,0,0,0,.7-.7q-4.24-4.26-8.5-8.5a.5.5,0,0,0-.7.7Z" style="fill:#e0e0e0"></path><path d="M260.65,132.85l7,7a.5.5,0,0,0,.7-.7l-7-7a.5.5,0,0,0-.7.7Z" style="fill:#e0e0e0"></path><path d="M254.65,152.85l8.5,8.5a.5.5,0,0,0,.7-.7q-4.25-4.26-8.5-8.5a.5.5,0,0,0-.7.7Z" style="fill:#e0e0e0"></path><path d="M278.69,134.3l11,10.51c.46.45,1.17-.26.7-.71l-11-10.5c-.46-.45-1.17.26-.71.7Z" style="fill:#e0e0e0"></path><path d="M291.65,125.85l23,23a.5.5,0,0,0,.7-.7l-23-23a.5.5,0,0,0-.7.7Z" style="fill:#e0e0e0"></path><path d="M303.15,95.35l12.5,12.5a.5.5,0,0,0,.7-.7l-12.5-12.5a.5.5,0,0,0-.7.7Z" style="fill:#e0e0e0"></path><path d="M326.65,128.85l6,6a.5.5,0,0,0,.7-.7l-6-6a.5.5,0,0,0-.7.7Z" style="fill:#e0e0e0"></path><path d="M274.65,178.35l12.5,12.5a.5.5,0,0,0,.7-.7l-12.5-12.5a.5.5,0,0,0-.7.7Z" style="fill:#e0e0e0"></path><path d="M255.15,191.35l26.5,26.5a.5.5,0,0,0,.7-.7q-13.25-13.26-26.5-26.5a.5.5,0,0,0-.7.7Z" style="fill:#e0e0e0"></path><path d="M253.65,235.35l8.5,8.5a.5.5,0,0,0,.7-.7q-4.25-4.26-8.5-8.5a.5.5,0,0,0-.7.7Z" style="fill:#e0e0e0"></path><path d="M262.15,258.35l16,16a.5.5,0,0,0,.7-.7l-16-16a.5.5,0,0,0-.7.7Z" style="fill:#e0e0e0"></path><path d="M279.18,232.82l12,11.51c.47.45,1.18-.26.71-.7l-12-11.52c-.47-.44-1.18.26-.71.71Z" style="fill:#e0e0e0"></path><path d="M298.15,267.35l16.5,16.5a.5.5,0,0,0,.7-.7l-16.5-16.5a.5.5,0,0,0-.7.7Z" style="fill:#e0e0e0"></path><path d="M293.15,292.85l5,5a.5.5,0,0,0,.7-.7l-5-5a.5.5,0,0,0-.7.7Z" style="fill:#e0e0e0"></path><path d="M281.15,312.85l18.5,18.5a.5.5,0,0,0,.7-.7l-18.5-18.5a.5.5,0,0,0-.7.7Z" style="fill:#e0e0e0"></path><path d="M272.15,337.35l6,6a.5.5,0,0,0,.7-.7l-6-6a.5.5,0,0,0-.7.7Z" style="fill:#e0e0e0"></path><path d="M267.17,379.33l11.49,11.51c.46.45,1.17-.26.71-.71l-11.49-11.51a.5.5,0,0,0-.71.71Z" style="fill:#e0e0e0"></path><path d="M264.15,398.85l12,12a.5.5,0,0,0,.7-.7l-12-12a.5.5,0,0,0-.7.7Z" style="fill:#e0e0e0"></path><path d="M298.15,378.85l6.5,6.5a.5.5,0,0,0,.7-.7l-6.5-6.5a.5.5,0,0,0-.7.7Z" style="fill:#e0e0e0"></path><path d="M302.65,342.35l18.5,18.5a.5.5,0,0,0,.7-.7l-18.5-18.5a.5.5,0,0,0-.7.7Z" style="fill:#e0e0e0"></path><path d="M332.75,377.74l13.92,13.59c.46.45,1.17-.26.71-.71L333.46,377c-.46-.45-1.17.25-.71.7Z" style="fill:#e0e0e0"></path><path d="M298.05,397.45l11.56,11.44c.46.45,1.17-.26.71-.71l-11.57-11.43a.5.5,0,0,0-.7.7Z" style="fill:#e0e0e0"></path><path d="M266.73,435.77l11,11a.5.5,0,0,0,.71-.71l-11-11a.5.5,0,0,0-.71.71Z" style="fill:#e0e0e0"></path><path d="M268.65,416.85l11,11a.5.5,0,0,0,.7-.7l-11-11a.5.5,0,0,0-.7.7Z" style="fill:#e0e0e0"></path><path d="M245.6,374.4l12,12a.5.5,0,0,0,.71-.71l-12-12a.5.5,0,0,0-.7.7Z" style="fill:#e0e0e0"></path><path d="M192.59,264.41,205.1,276.9a.5.5,0,0,0,.71-.71l-12.52-12.48a.5.5,0,0,0-.7.7Z" style="fill:#e0e0e0"></path><path d="M196.17,234.33l12.49,13c.45.46,1.15-.24.71-.71l-12.5-13c-.44-.47-1.15.24-.7.7Z" style="fill:#e0e0e0"></path><path d="M345.15,227.35l20.5,20.5a.5.5,0,0,0,.7-.7l-20.5-20.5a.5.5,0,0,0-.7.7Z" style="fill:#e0e0e0"></path><path d="M345.65,252.35l10.5,11c.44.47,1.15-.24.7-.7l-10.5-11c-.44-.47-1.15.24-.7.7Z" style="fill:#e0e0e0"></path><path d="M321.65,251.85l12.5,12.5a.5.5,0,0,0,.7-.7l-12.5-12.5a.5.5,0,0,0-.7.7Z" style="fill:#e0e0e0"></path><path d="M327.62,293.88l9.51,9c.47.44,1.18-.26.71-.71l-9.51-9c-.47-.44-1.17.26-.71.71Z" style="fill:#e0e0e0"></path><path d="M323.7,86.63,340.35,103c.46.46,1.17-.25.71-.7L324.41,85.93c-.46-.46-1.17.25-.71.7Z" style="fill:#e0e0e0"></path><path d="M354.3,105,362,112.7a.5.5,0,0,0,.71-.71L355,104.33c-.46-.46-1.17.25-.71.7Z" style="fill:#e0e0e0"></path><path d="M364,90.35l11,11a.5.5,0,0,0,.71-.7l-11-11c-.46-.46-1.17.25-.71.7Z" style="fill:#e0e0e0"></path><path d="M351.66,124,362,134.35a.5.5,0,0,0,.7-.71L352.36,123.3a.5.5,0,0,0-.7.71Z" style="fill:#e0e0e0"></path><path d="M341.31,148.69l8.34,8.33c.45.46,1.16-.25.7-.71L342,148a.5.5,0,0,0-.71.71Z" style="fill:#e0e0e0"></path><path d="M366.4,151.27l19,19c.46.46,1.17-.25.71-.7l-19-19c-.45-.45-1.16.26-.7.71Z" style="fill:#e0e0e0"></path><path d="M308,171.38l9,9a.5.5,0,0,0,.71-.71l-9-9a.5.5,0,0,0-.71.71Z" style="fill:#e0e0e0"></path><path d="M359.69,182l14.67,14.67c.45.46,1.16-.25.71-.71L360.4,181.27a.5.5,0,0,0-.71.7Z" style="fill:#e0e0e0"></path><path d="M383,190.69l12,12a.5.5,0,0,0,.71-.71l-12-12a.5.5,0,0,0-.71.71Z" style="fill:#e0e0e0"></path><path d="M377.65,222,388,232.35a.5.5,0,0,0,.71-.7l-10.34-10.34a.5.5,0,0,0-.7.71Z" style="fill:#e0e0e0"></path><path d="M270.31,75.35l7,7c.46.46,1.17-.25.71-.7l-7-7a.5.5,0,0,0-.71.7Z" style="fill:#e0e0e0"></path><path d="M273.65,109.69,282,118a.5.5,0,0,0,.71-.71L274.35,109c-.45-.46-1.16.25-.7.71Z" style="fill:#e0e0e0"></path><path d="M406,95.36q6.66,7,13.34,14c.44.47,1.15-.24.7-.71l-13.33-14c-.45-.47-1.15.24-.71.7Z" style="fill:#e0e0e0"></path><path d="M417.31,144.69,430.65,158c.45.46,1.16-.25.7-.71L418,144a.5.5,0,0,0-.71.71Z" style="fill:#e0e0e0"></path><path d="M401.31,166.69,414.65,180c.45.46,1.16-.25.7-.71L402,166a.5.5,0,0,0-.71.71Z" style="fill:#e0e0e0"></path><path d="M396,124.69l8.67,8.66a.5.5,0,0,0,.7-.7L396.69,124a.5.5,0,0,0-.71.71Z" style="fill:#e0e0e0"></path><path d="M410.65,206q8.66,8.67,17.33,17.33a.5.5,0,0,0,.71-.7l-17.34-17.34a.5.5,0,0,0-.7.71Z" style="fill:#e0e0e0"></path><path d="M410,232l8.67,8.67a.5.5,0,0,0,.7-.71l-8.66-8.67a.5.5,0,0,0-.71.71Z" style="fill:#e0e0e0"></path><path d="M390.7,257.64l24.67,24.66c.45.46,1.16-.25.7-.71L391.4,256.93a.5.5,0,0,0-.7.71Z" style="fill:#e0e0e0"></path><path d="M415,259l5.67,5.67a.5.5,0,0,0,.7-.71l-5.66-5.67a.5.5,0,0,0-.71.71Z" style="fill:#e0e0e0"></path><path d="M401.65,291.35,421,310.69a.5.5,0,0,0,.71-.71l-19.34-19.33a.5.5,0,0,0-.7.7Z" style="fill:#e0e0e0"></path><path d="M380.65,273l8,8c.45.46,1.16-.25.7-.71l-8-8a.5.5,0,0,0-.7.71Z" style="fill:#e0e0e0"></path><path d="M383,298.69l16.67,16.66a.5.5,0,0,0,.7-.7L383.69,298a.5.5,0,0,0-.71.71Z" style="fill:#e0e0e0"></path><path d="M357,292.69l15.67,15.66a.5.5,0,0,0,.7-.7L357.69,292a.5.5,0,0,0-.71.71Z" style="fill:#e0e0e0"></path><path d="M356.65,314.69l10.66,10.66c.46.46,1.17-.25.71-.7L357.35,314c-.45-.46-1.16.25-.7.71Z" style="fill:#e0e0e0"></path><path d="M348.65,331l17.66,17.67A.5.5,0,0,0,367,348l-17.67-17.67a.5.5,0,0,0-.7.71Z" style="fill:#e0e0e0"></path><path d="M361.71,370.62l22,21.7a.5.5,0,0,0,.71-.71l-22-21.7c-.46-.45-1.17.26-.71.71Z" style="fill:#e0e0e0"></path><path d="M389.31,341.35l10,10c.46.46,1.17-.25.71-.7l-10-10a.5.5,0,0,0-.71.7Z" style="fill:#e0e0e0"></path><path d="M432.57,320.09l18,18a.5.5,0,0,0,.71-.71l-18-18c-.45-.45-1.16.26-.71.71Z" style="fill:#e0e0e0"></path><path d="M439.32,277l12.33,12.66c.45.47,1.16-.24.71-.7q-6.18-6.33-12.34-12.67c-.45-.46-1.15.25-.7.71Z" style="fill:#e0e0e0"></path><path d="M438.68,242l14,14a.5.5,0,0,0,.71-.71l-14-14a.5.5,0,0,0-.71.7Z" style="fill:#e0e0e0"></path><path d="M401.31,377.35l16,16c.46.46,1.17-.25.71-.7l-16-16a.5.5,0,0,0-.71.7Z" style="fill:#e0e0e0"></path><path d="M371.31,403.35q4.67,5,9.34,10c.44.48,1.14-.23.7-.7l-9.33-10c-.44-.48-1.15.23-.71.7Z" style="fill:#e0e0e0"></path><path d="M326.65,403.35,346,422.69a.5.5,0,0,0,.71-.71l-19.34-19.33a.5.5,0,0,0-.7.7Z" style="fill:#e0e0e0"></path><path d="M432.65,365.35,447.31,380a.5.5,0,0,0,.71-.71l-14.67-14.66a.5.5,0,0,0-.7.7Z" style="fill:#e0e0e0"></path><path d="M312,424.65l19.33,20c.45.46,1.16-.25.71-.71l-19.33-20c-.45-.46-1.16.25-.71.71Z" style="fill:#e0e0e0"></path><path d="M172.65,436.69l14.66,14c.47.44,1.18-.26.71-.71l-14.67-14c-.46-.44-1.17.26-.7.71Z" style="fill:#e0e0e0"></path><path d="M97.15,405.85l17.5,17.5a.5.5,0,0,0,.7-.7l-17.5-17.5a.5.5,0,0,0-.7.7Z" style="fill:#e0e0e0"></path><path d="M94.65,323.35l7.33,7.34a.5.5,0,0,0,.71-.71l-7.34-7.33a.5.5,0,0,0-.7.7Z" style="fill:#e0e0e0"></path><path d="M59.31,354l5.34,5.33a.5.5,0,0,0,.7-.7L60,353.31a.5.5,0,0,0-.71.71Z" style="fill:#e0e0e0"></path><path d="M243.31,57.35l10,10c.46.46,1.17-.25.71-.7l-10-10a.5.5,0,0,0-.71.7Z" style="fill:#e0e0e0"></path><path d="M285.34,40l8,7.34c.48.44,1.19-.27.71-.71l-8-7.34c-.48-.43-1.18.27-.71.71Z" style="fill:#e0e0e0"></path><path d="M71.31,84.69l5.34,6c.42.48,1.13-.23.7-.71L72,84c-.43-.48-1.13.23-.71.71Z" style="fill:#e0e0e0"></path><path d="M438,112.69l6.67,6.66a.5.5,0,0,0,.7-.7L438.69,112a.5.5,0,0,0-.71.71Z" style="fill:#e0e0e0"></path></g></g></svg>